<?xml version="1.0" encoding="UTF-8" standalone="no"?>
<!-- Created with Inkscape (http://www.inkscape.org/) -->

<svg
   width="210mm"
   height="297mm"
   viewBox="0 0 210 297"
   version="1.1"
   id="svg1"
   inkscape:version="1.4.1-rc (06eac75fbf, 2025-03-29)"
   sodipodi:docname="ddd.svg"
   xmlns:inkscape="http://www.inkscape.org/namespaces/inkscape"
   xmlns:sodipodi="http://sodipodi.sourceforge.net/DTD/sodipodi-0.dtd"
   xmlns="http://www.w3.org/2000/svg"
   xmlns:svg="http://www.w3.org/2000/svg">
  <sodipodi:namedview
     id="namedview1"
     pagecolor="#ffffff"
     bordercolor="#000000"
     borderopacity="0.25"
     inkscape:showpageshadow="2"
     inkscape:pageopacity="0.0"
     inkscape:pagecheckerboard="0"
     inkscape:deskcolor="#d1d1d1"
     inkscape:document-units="mm"
     showguides="true"
     inkscape:zoom="0.70710678"
     inkscape:cx="581.24177"
     inkscape:cy="584.77731"
     inkscape:window-width="1854"
     inkscape:window-height="1011"
     inkscape:window-x="0"
     inkscape:window-y="0"
     inkscape:window-maximized="1"
     inkscape:current-layer="layer1">
    <sodipodi:guide
       position="9.8938357,279.06164"
       orientation="1,0"
       id="guide5"
       inkscape:locked="false" />
    <sodipodi:guide
       position="34.979991,277.77735"
       orientation="1,0"
       id="guide6"
       inkscape:locked="false" />
    <sodipodi:guide
       position="39.39041,273.69864"
       orientation="0,-1"
       id="guide8"
       inkscape:locked="false" />
    <sodipodi:guide
       position="34.783842,224.29393"
       orientation="0,-1"
       id="guide9"
       inkscape:locked="false" />
    <sodipodi:guide
       position="97.473197,197.09465"
       orientation="0,-1"
       id="guide10"
       inkscape:locked="false" />
    <sodipodi:guide
       position="45.114381,299.87686"
       orientation="1,0"
       id="guide13"
       inkscape:locked="false" />
    <sodipodi:guide
       position="69.959981,281.56958"
       orientation="1,0"
       id="guide14"
       inkscape:locked="false" />
    <sodipodi:guide
       position="80.367187,274.775"
       orientation="1,0"
       id="guide15"
       inkscape:locked="false" />
    <sodipodi:guide
       position="105.03958,272.65834"
       orientation="1,0"
       id="guide16"
       inkscape:locked="false" />
    <sodipodi:guide
       position="-17.025068,182.31465"
       orientation="0,-1"
       id="guide17"
       inkscape:locked="false" />
    <sodipodi:guide
       position="-4.8947915,167.08959"
       orientation="0,-1"
       id="guide28"
       inkscape:locked="false" />
    <sodipodi:guide
       position="-16.089625,124.50425"
       orientation="0,-1"
       id="guide30"
       inkscape:locked="false" />
    <sodipodi:guide
       position="28.0633,109.53716"
       orientation="0,-1"
       id="guide31"
       inkscape:locked="false" />
    <sodipodi:guide
       position="-2.245064,72.4936"
       orientation="0,-1"
       id="guide35"
       inkscape:locked="false" />
  </sodipodi:namedview>
  <defs
     id="defs1" />
  <g
     inkscape:label="Layer 1"
     inkscape:groupmode="layer"
     id="layer1">
    <path
       style="fill:#008000;stroke-width:0.197239"
       d="M 21.563702,72.554697 C 17.834945,71.97771 14.471099,68.117365 12.29415,61.916966 10.603723,57.102293 9.9020123,51.468692 10.202362,45.123288 c 0.435673,-9.204376 3.835511,-17.683975 8.270493,-20.627576 6.890176,-4.573172 14.03982,3.115628 15.999796,17.206341 0.43256,3.109786 0.426699,9.265886 -0.01181,12.439497 -1.03954,7.522837 -3.528782,13.327887 -7.037874,16.412715 -1.826183,1.605388 -3.880216,2.306666 -5.859232,2.000432 z"
       id="path7" />
    <ellipse
       style="fill:#ff0000;stroke-width:0.264583"
       id="path9-9"
       cx="147.14389"
       cy="-16.32888"
       rx="17.58807"
       ry="4.1845222"
       transform="rotate(90.775726)" />
    <ellipse
       style="fill:#ff0000;stroke-width:0.225852"
       id="path10"
       cx="22.311283"
       cy="107.42588"
       rx="12.43456"
       ry="7.3882971" />
    <path
       id="rect11-3"
       style="fill:#ff0000;stroke-width:0.264583"
       d="M 9.9916382 187.65056 L 9.9916382 218.66107 L 9.9254924 218.66107 L 9.9254924 221.66864 L 20.909835 221.66864 L 20.909835 218.66107 L 14.830103 218.66107 L 14.830103 187.65056 L 9.9916382 187.65056 z " />
    <path
       sodipodi:type="star"
       style="fill:#ff0000;stroke-width:0.264583"
       id="path15"
       inkscape:flatsided="true"
       sodipodi:sides="5"
       sodipodi:cx="52.175762"
       sodipodi:cy="33.868477"
       sodipodi:r1="46.108845"
       sodipodi:r2="31.064915"
       sodipodi:arg1="0.948261"
       sodipodi:arg2="1.5765796"
       inkscape:rounded="0"
       inkscape:randomized="0"
       d="M 79.061679,71.327428 24.858388,71.013956 8.4067793,19.366694 52.442418,-12.239597 l 43.667129,32.1135 z"
       inkscape:transform-center-x="-0.59503868"
       inkscape:transform-center-y="0.94626175"
       transform="matrix(0.28318072,0,0,0.58761655,42.493502,30.564937)" />
    <rect
       style="fill:#ddff55;stroke-width:0.264583"
       id="rect16"
       width="24.738541"
       height="48.683334"
       x="80.168747"
       y="23.8125" />
    <rect
       style="fill:#ddff55;stroke-width:0.264583"
       id="rect17"
       width="24.695704"
       height="14.405828"
       x="45.088367"
       y="100.09244" />
    <path
       sodipodi:type="star"
       style="fill:#00ff00;stroke-width:0.264583"
       id="path17"
       inkscape:flatsided="true"
       sodipodi:sides="5"
       sodipodi:cx="91.486359"
       sodipodi:cy="99.344086"
       sodipodi:r1="12.422744"
       sodipodi:r2="10.050211"
       sodipodi:arg1="0.92428318"
       sodipodi:arg2="1.5526017"
       inkscape:rounded="0"
       inkscape:randomized="0"
       d="M 98.969905,109.25979 84.368511,109.52548 79.60374,95.720835 91.260344,86.923398 103.22929,95.290929 Z"
       inkscape:transform-center-x="0.072331668"
       inkscape:transform-center-y="-1.1196461"
       transform="matrix(1.0356351,0,0,1,-1.9947886,5.332027)" />
    <ellipse
       style="fill:#eef4d7;stroke-width:0.264583"
       id="path18"
       cx="17.001684"
       cy="105.40108"
       rx="1.7539562"
       ry="1.6136397" />
    <ellipse
       style="fill:#eef4d7;stroke-width:0.264583"
       id="path18-5"
       cx="26.964586"
       cy="105.41193"
       rx="1.7539562"
       ry="1.6136397" />
    <ellipse
       style="fill:#112b00;stroke-width:0.321335"
       id="path19"
       ry="0.51449382"
       rx="0.51741707"
       cy="105.34261"
       cx="16.940294" />
    <ellipse
       style="fill:#112b00;stroke-width:1.02801"
       id="path19-9"
       ry="0.51449382"
       rx="5.295682"
       cy="110.66782"
       cx="23.646616" />
    <ellipse
       style="fill:#112b00;stroke-width:0.321335"
       id="path19-6"
       ry="0.51449382"
       rx="0.51741707"
       cy="105.55408"
       cx="26.97575" />
    <rect
       style="fill:#f6ffd5;stroke-width:0.264583"
       id="rect23"
       width="4.299479"
       height="3.8364582"
       x="49.146355"
       y="102.26146" />
    <rect
       style="fill:#f6ffd5;stroke-width:0.264583"
       id="rect24"
       width="4.3656249"
       height="4.4979167"
       x="60.655727"
       y="102.65833" />
    <rect
       style="fill:#f6ffd5;stroke-width:0.264583"
       id="rect25"
       width="14.750521"
       height="1.7197917"
       x="52.453644"
       y="110.26511" />
    <rect
       style="fill:#22280b;stroke-width:0.264583"
       id="rect26"
       width="1.6536458"
       height="1.2567708"
       x="50.403126"
       y="103.9151" />
    <rect
       style="fill:#22280b;stroke-width:0.264583"
       id="rect27"
       width="1.7859374"
       height="1.7859374"
       x="62.309376"
       y="104.31198" />
    <path
       style="fill:#e2e3db;stroke-width:0.264583"
       id="path27"
       sodipodi:type="arc"
       sodipodi:cx="93.563278"
       sodipodi:cy="103.68359"
       sodipodi:rx="4.5309896"
       sodipodi:ry="4.5309896"
       sodipodi:start="0"
       sodipodi:end="5.7816217"
       sodipodi:open="true"
       sodipodi:arc-type="arc"
       d="m 98.094268,103.68359 a 4.5309896,4.5309896 0 0 1 -3.964333,4.49542 4.5309896,4.5309896 0 0 1 -4.955911,-3.371 4.5309896,4.5309896 0 0 1 2.724734,-5.338588 4.5309896,4.5309896 0 0 1 5.637436,2.035688" />
    <path
       style="fill:#280b0b;stroke-width:0.264583"
       id="path28"
       sodipodi:type="arc"
       sodipodi:cx="93.464058"
       sodipodi:cy="103.28672"
       sodipodi:rx="1.5875"
       sodipodi:ry="1.6205729"
       sodipodi:start="0"
       sodipodi:end="5.7816217"
       sodipodi:open="true"
       sodipodi:arc-type="arc"
       d="m 95.051558,103.28672 a 1.5875,1.6205729 0 0 1 -1.388963,1.60785 1.5875,1.6205729 0 0 1 -1.736378,-1.20569 1.5875,1.6205729 0 0 1 0.954651,-1.90942 1.5875,1.6205729 0 0 1 1.97516,0.72809" />
    <rect
       style="fill:#66ff00;stroke-width:0.264583"
       id="rect28"
       width="3.2740517"
       height="40.59824"
       x="44.901279"
       y="129.93307" />
    <path
       id="rect29"
       style="fill:#00ffff;stroke-width:0.274263"
       d="m 83.674479,129.97656 v 32.16276 l -0.01085,-0.004 -3.093868,8.69716 2.718697,1.11664 2.078426,-5.84198 2.957959,5.03351 2.460832,-1.66969 -3.870048,-6.58603 V 129.977 Z" />
    <path
       id="path31"
       style="fill:#00ffff;stroke-width:0.264583"
       d="M 48.749479 187.325 A 3.6380208 16.734896 0 0 0 45.111458 204.0599 A 3.6380208 16.734896 0 0 0 46.878792 218.41354 A 6.0854168 1.9182291 0 0 0 46.698958 218.87656 A 6.0854168 1.9182291 0 0 0 47.546452 219.85273 A 3.6380208 16.734896 0 0 0 48.749479 220.79479 A 3.6380208 16.734896 0 0 0 49.450212 220.48112 A 6.0854168 1.9182291 0 0 0 52.784375 220.79479 A 6.0854168 1.9182291 0 0 0 58.869792 218.87656 A 6.0854168 1.9182291 0 0 0 52.784375 216.95833 A 6.0854168 1.9182291 0 0 0 51.04598 217.03843 A 3.6380208 16.734896 0 0 0 52.3875 204.0599 A 3.6380208 16.734896 0 0 0 48.749479 187.325 z " />
    <path
       id="rect33"
       style="fill:#99ff55;stroke-width:0.264583"
       d="m 84.096136,187.46298 v 26.4728 h -3.554305 v 8.79326 h 3.928442 v -7.10913 h 1.77767 v 7.0156 h 4.116028 v -9.54154 h -3.835425 v -25.63099 z" />
  </g>
</svg>
