<svg width="36" height="30" viewBox="0 0 36 30" fill="none" xmlns="http://www.w3.org/2000/svg">
<path d="M8.23775 15.4755C12.2351 15.4755 15.4755 12.2351 15.4755 8.23776C15.4755 4.24046 12.2351 1 8.23775 1C4.24044 1 0.999985 4.24046 0.999985 8.23776C0.999985 12.2351 4.24044 15.4755 8.23775 15.4755Z" fill="#F4F4F4" stroke="#362F2D" stroke-width="2" stroke-linecap="round" stroke-linejoin="round"/>
<path d="M8.23774 9.21676C9.18879 9.21676 9.95977 8.44578 9.95977 7.49473C9.95977 6.54368 9.18879 5.77271 8.23774 5.77271C7.28669 5.77271 6.51572 6.54368 6.51572 7.49473C6.51572 8.44578 7.28669 9.21676 8.23774 9.21676Z" fill="#362F2D" stroke="#362F2D" stroke-width="2" stroke-linecap="round" stroke-linejoin="round"/>
<path d="M27.014 15.4755C31.0113 15.4755 34.2517 12.2351 34.2517 8.23776C34.2517 4.24046 31.0113 1 27.014 1C23.0167 1 19.7762 4.24046 19.7762 8.23776C19.7762 12.2351 23.0167 15.4755 27.014 15.4755Z" fill="#F4F4F4" stroke="#362F2D" stroke-width="2" stroke-linecap="round" stroke-linejoin="round"/>
<path d="M27.014 9.21676C27.965 9.21676 28.736 8.44578 28.736 7.49473C28.736 6.54368 27.965 5.77271 27.014 5.77271C26.0629 5.77271 25.2919 6.54368 25.2919 7.49473C25.2919 8.44578 26.0629 9.21676 27.014 9.21676Z" fill="#362F2D" stroke="#362F2D" stroke-width="2" stroke-linecap="round" stroke-linejoin="round"/>
<path d="M10.6259 20.126C12.6259 31.626 22.6259 30.626 23.6259 20.126" stroke="#362F2D" stroke-width="2" stroke-linecap="round" stroke-linejoin="round"/>
</svg>
