<svg width="106" height="28" viewBox="0 0 106 28" fill="none" xmlns="http://www.w3.org/2000/svg">
<g filter="url(#filter0_d_621_222)">
<rect x="3" y="3" width="100" height="18" rx="9" fill="#6BE1FF"/>
<rect x="3" y="3" width="100" height="18" rx="9" stroke="#362F2D" stroke-width="5"/>
</g>
<path d="M89.3683 6.99713H91.8592C92.3073 6.99713 92.6237 7.4757 92.4853 7.93285L91.734 10.4043C91.6352 10.74 91.767 11.0971 92.0569 11.2614L93.6451 12.1543C94.0668 12.39 94.1261 13.0257 93.7505 13.3471L89.5001 16.99L90.2249 14.2114C90.3106 13.8828 90.1722 13.54 89.8889 13.3828L88.36 12.5328C88.103 12.39 87.958 12.0757 88.0108 11.7686L88.7159 7.5757C88.7752 7.23285 89.0454 6.98999 89.3617 6.98999L89.3683 6.99713Z" fill="#362F2D"/>
<path d="M15.912 16.12C15.216 16.12 14.62 15.956 14.124 15.628C13.636 15.292 13.264 14.812 13.008 14.188C12.752 13.564 12.624 12.808 12.624 11.92C12.624 11.2 12.704 10.564 12.864 10.012C13.032 9.452 13.272 8.98 13.584 8.596C13.896 8.212 14.276 7.92 14.724 7.72C15.18 7.52 15.692 7.42 16.26 7.42C16.612 7.42 16.968 7.476 17.328 7.588C17.696 7.692 18.04 7.852 18.36 8.068C18.488 8.148 18.572 8.252 18.612 8.38C18.652 8.508 18.656 8.636 18.624 8.764C18.6 8.884 18.544 8.992 18.456 9.088C18.376 9.176 18.272 9.232 18.144 9.256C18.016 9.272 17.876 9.236 17.724 9.148C17.452 8.988 17.196 8.876 16.956 8.812C16.716 8.748 16.476 8.716 16.236 8.716C15.772 8.716 15.38 8.824 15.06 9.04C14.74 9.256 14.496 9.58 14.328 10.012C14.168 10.444 14.088 10.984 14.088 11.632V12.532H13.944C14.008 12.124 14.14 11.776 14.34 11.488C14.548 11.192 14.812 10.968 15.132 10.816C15.452 10.656 15.808 10.576 16.2 10.576C16.688 10.576 17.12 10.692 17.496 10.924C17.872 11.156 18.168 11.476 18.384 11.884C18.6 12.292 18.708 12.76 18.708 13.288C18.708 13.832 18.588 14.32 18.348 14.752C18.116 15.176 17.788 15.512 17.364 15.76C16.948 16 16.464 16.12 15.912 16.12ZM15.828 14.896C16.116 14.896 16.368 14.832 16.584 14.704C16.808 14.576 16.98 14.396 17.1 14.164C17.22 13.924 17.28 13.652 17.28 13.348C17.28 13.036 17.22 12.764 17.1 12.532C16.98 12.3 16.808 12.12 16.584 11.992C16.368 11.856 16.116 11.788 15.828 11.788C15.54 11.788 15.288 11.856 15.072 11.992C14.856 12.12 14.684 12.3 14.556 12.532C14.436 12.764 14.376 13.036 14.376 13.348C14.376 13.652 14.436 13.924 14.556 14.164C14.684 14.396 14.856 14.576 15.072 14.704C15.288 14.832 15.54 14.896 15.828 14.896ZM21.2593 16.096C21.0753 16.096 20.9233 16.052 20.8033 15.964C20.6833 15.876 20.6113 15.76 20.5873 15.616C20.5633 15.464 20.5993 15.296 20.6953 15.112L24.3193 8.296V8.824H20.4313C20.2153 8.824 20.0473 8.768 19.9273 8.656C19.8153 8.544 19.7593 8.388 19.7593 8.188C19.7593 7.98 19.8153 7.82 19.9273 7.708C20.0473 7.596 20.2153 7.54 20.4313 7.54H25.0753C25.2913 7.54 25.4673 7.596 25.6033 7.708C25.7393 7.82 25.8073 7.98 25.8073 8.188C25.8073 8.364 25.7833 8.52 25.7353 8.656C25.6873 8.784 25.6233 8.924 25.5433 9.076L22.1353 15.592C22.0473 15.768 21.9313 15.896 21.7873 15.976C21.6513 16.056 21.4753 16.096 21.2593 16.096Z" fill="#362F2D"/>
<defs>
<filter id="filter0_d_621_222" x="0.5" y="0.5" width="105" height="27" filterUnits="userSpaceOnUse" color-interpolation-filters="sRGB">
<feFlood flood-opacity="0" result="BackgroundImageFix"/>
<feColorMatrix in="SourceAlpha" type="matrix" values="0 0 0 0 0 0 0 0 0 0 0 0 0 0 0 0 0 0 127 0" result="hardAlpha"/>
<feOffset dy="4"/>
<feComposite in2="hardAlpha" operator="out"/>
<feColorMatrix type="matrix" values="0 0 0 0 0 0 0 0 0 0 0 0 0 0 0 0 0 0 0.25 0"/>
<feBlend mode="normal" in2="BackgroundImageFix" result="effect1_dropShadow_621_222"/>
<feBlend mode="normal" in="SourceGraphic" in2="effect1_dropShadow_621_222" result="shape"/>
</filter>
</defs>
</svg>
