<svg width="70" height="70" viewBox="0 0 70 70" fill="none" xmlns="http://www.w3.org/2000/svg">
<path d="M53.4999 13.43C53.4499 14.45 54.2999 15.26 55.3099 15.13C61.1599 14.41 62.6599 18.34 61.7699 21.89C61.0299 24.82 58.7999 25.76 56.4699 25.7C54.6899 25.65 53.4399 23.93 51.8199 23.89C50.1299 23.85 44.1599 31.94 42.5399 33.78L36.6899 28.72C38.2699 26.85 45.8899 19.78 45.6099 18.11C45.3299 16.44 43.0199 15.54 42.5099 13.83C41.5699 10.66 42.8899 9.12997 45.6799 7.97997C49.0499 6.58997 53.8099 7.84997 53.5099 13.44L53.4999 13.43Z" fill="#F4E6D3" stroke="#362F2D" stroke-width="2" stroke-linecap="round" stroke-linejoin="round"/>
<path d="M50.1699 36.7C48.9499 48.44 36.6399 62.2 30.3599 62.2C29.0399 62.2 27.5099 61.67 25.8699 60.78C18.0599 56.51 7.95986 43.83 8.29986 40.08C8.70986 35.47 15.5099 27.34 25.5299 26.38C29.3199 26.02 27.2699 23.05 29.6099 21.45C33.0799 19.07 39.9399 22.07 44.7899 26.56C48.1299 29.65 50.5099 33.45 50.1699 36.7Z" fill="#CB500F" stroke="#362F2D" stroke-width="2" stroke-linecap="round" stroke-linejoin="round"/>
<path opacity="0.2" d="M50.1701 36.7C48.9501 48.44 36.6401 62.2 30.3601 62.2C29.0401 62.2 27.5101 61.67 25.8701 60.78C25.2001 56.03 30.3001 51.4 30.8101 49.64C38.0201 50.26 47.7701 31.83 47.4101 29.39C49.1701 31.22 50.5201 33.45 50.1801 36.7H50.1701Z" fill="black"/>
<path opacity="0.2" d="M24.6802 26.49C25.6402 27.03 26.8402 26.91 27.6502 26.18C28.4202 25.49 28.6902 24.38 28.3302 23.4C30.8802 24.07 32.6502 25.75 32.7802 27.6C32.8802 28.98 32.0802 30.71 31.0502 30.88C30.3702 30.99 29.8702 30.38 28.7302 29.39C27.8302 28.61 26.5002 27.56 24.6802 26.49Z" fill="black"/>
<path d="M30.3501 62.2C22.7401 62.2 7.89015 44.62 8.29015 40.08C8.70015 35.47 15.5001 27.33 25.5201 26.38C29.3101 26.02 27.2701 23.05 29.6101 21.44C35.4601 17.43 51.0001 28.72 50.1601 36.69C48.9401 48.43 36.6301 62.2 30.3501 62.2Z" stroke="#362F2D" stroke-width="2" stroke-linecap="round" stroke-linejoin="round"/>
<path d="M32.6019 61.3307C35.6168 58.3159 32.8245 50.6356 26.3652 44.1763C19.906 37.717 12.2257 34.9248 9.21082 37.9396C6.19597 40.9545 8.98823 48.6348 15.4475 55.094C21.9068 61.5533 29.5871 64.3456 32.6019 61.3307Z" fill="#E84857" stroke="#362F2D" stroke-width="2" stroke-linecap="round" stroke-linejoin="round"/>
<path d="M23.8769 53.8228C24.7947 52.9051 23.8038 50.4262 21.6637 48.2862C19.5236 46.1461 17.0448 45.1552 16.127 46.0729C15.2093 46.9907 16.2002 49.4695 18.3403 51.6096C20.4804 53.7496 22.9592 54.7405 23.8769 53.8228Z" fill="#F4E6D3" stroke="#362F2D" stroke-width="1.5" stroke-linecap="round" stroke-linejoin="round"/>
</svg>
