<svg width="42" height="42" viewBox="0 0 42 42" fill="none" xmlns="http://www.w3.org/2000/svg">
<path d="M18.9033 37.9003C22.1557 40.8987 31.7122 42.2603 36.0598 37.9003C44.5232 29.4127 42.7096 1 25.9521 1C31.7676 8.42358 30.2684 16.4517 26.9798 18.4829C27.7778 12.9938 25.3355 7.03317 17.0897 6.57373C20.2574 9.9349 19.5562 15.2064 17.1744 17.3948C14.8893 16.8023 13.7165 14.9525 13.3538 12.1958C4.12869 14.0578 -0.671252 24.8546 1.52922 32.8706C5.30147 30.3074 13.3538 30.6218 18.9033 37.9124V37.9003Z" fill="#D2FF49" stroke="#362F2D" stroke-width="1.5" stroke-linecap="round" stroke-linejoin="round"/>
<path d="M26.9798 18.4829C25.3113 19.7524 20.1971 23.9962 18.9034 31.1901C18.4197 33.8379 18.6011 36.1713 18.9034 37.9124" stroke="#362F2D" stroke-width="1.5" stroke-linecap="round" stroke-linejoin="round"/>
</svg>
