<svg width="48" height="61" viewBox="0 0 48 61" fill="none" xmlns="http://www.w3.org/2000/svg">
<path d="M46.0941 54.0982C46.0941 54.2122 46.0846 54.3261 46.056 54.4305C45.3127 57.5824 34.1916 59.1394 23.1849 59.1014H23.1468C12.5022 59.0634 1.98155 57.5444 1.06671 54.5254C1.01906 54.3925 1 54.2406 1 54.0982C1 54.0982 1.76237 45.3261 6.10787 40.8166C9.75771 37.0286 14.4177 36.5444 23.547 36.5444C32.6764 36.5444 37.3364 37.0286 40.9862 40.8166C45.3317 45.3261 46.0941 54.0982 46.0941 54.0982Z" fill="#31EAF4" stroke="#362F2D" stroke-width="2" stroke-linecap="round" stroke-linejoin="round"/>
<path d="M16.924 30.2881V36.6773C16.924 36.6773 16.924 42.0602 23.547 42.0602C30.1701 42.0602 30.1701 36.6773 30.1701 36.6773V30.2881H16.924Z" fill="#F4E6D3" stroke="#362F2D" stroke-width="2" stroke-linecap="round" stroke-linejoin="round"/>
<path opacity="0.2" d="M30.1701 35.595C30.1701 37.9589 16.924 37.9589 16.924 35.595V33.1836H30.1701V35.595Z" fill="black"/>
<path d="M16.924 30.2881V36.6773C16.924 36.6773 16.924 42.0602 23.547 42.0602C30.1701 42.0602 30.1701 36.6773 30.1701 36.6773V30.2881H16.924Z" stroke="#362F2D" stroke-width="2" stroke-linecap="round" stroke-linejoin="round"/>
<path d="M23.547 4.32275C9.6243 4.32275 10.1675 14.1392 10.1675 19.3607C10.1675 24.5822 11.7018 27.8291 14.5988 30.886C17.4958 33.943 21.1646 34.1234 23.547 34.1234C25.9294 34.1234 29.5983 33.943 32.4953 30.886C35.3923 27.8196 36.9266 24.5822 36.9266 19.3607C36.9266 14.1392 37.4698 4.32275 23.547 4.32275Z" fill="#F4E6D3" stroke="#362F2D" stroke-width="2" stroke-linecap="round" stroke-linejoin="round"/>
<path opacity="0.2" d="M36.9266 19.3607C36.9266 20.6898 34.8587 25.0949 34.6681 26.1867C34.0105 22.8734 29.6174 22.8734 25.1004 24.212C24.0998 24.5063 23.0515 24.4493 22.07 24.1076C18.1628 22.712 13.1788 22.8829 12.4546 26.5095C12.2545 25.4177 10.1579 20.6898 10.1579 19.3607C10.1579 14.1392 9.61476 4.32275 23.5375 4.32275C37.4603 4.32275 36.9171 14.1392 36.9171 19.3607H36.9266Z" fill="black"/>
<path d="M23.547 4.32275C9.6243 4.32275 10.1675 14.1392 10.1675 19.3607C10.1675 24.5822 11.7018 27.8291 14.5988 30.886C17.4958 33.943 21.1646 34.1234 23.547 34.1234C25.9294 34.1234 29.5983 33.943 32.4953 30.886C35.3923 27.8196 36.9266 24.5822 36.9266 19.3607C36.9266 14.1392 37.4698 4.32275 23.547 4.32275Z" stroke="#362F2D" stroke-width="2" stroke-linecap="round" stroke-linejoin="round"/>
<path d="M34.4966 5.01582C32.4572 2.70886 28.4071 1.07595 23.6042 1C18.7918 1.07595 14.4463 2.77532 12.4165 5.09177C6.96553 11.2722 6.33657 31.8354 12.3498 34.1329C9.99594 25.2278 13.3599 19.019 15.9901 13.9114L17.591 17.2816C18.1914 17.4335 20.9073 17.4335 23.6137 17.4051C26.3202 17.4335 29.0361 17.4335 29.6365 17.2816L31.2374 13.9114C33.8581 19.019 37.2792 25.2278 34.9254 34.1329C40.9386 31.8354 39.957 11.1962 34.5061 5.01582H34.4966Z" fill="#CB500F" stroke="#362F2D" stroke-width="2" stroke-linecap="round" stroke-linejoin="round"/>
<path opacity="0.2" d="M45.7796 51.9147C45.7796 51.9147 41.9296 55.6647 39.4805 52.7311C38.1178 51.0982 35.5353 45.3925 35.3256 46.5128C34.8682 48.9242 35.9165 51.9811 33.1624 54.0792C31.5233 55.3229 15.7614 55.3229 13.9317 54.0792C11.0728 52.133 12.2259 48.9336 11.7684 46.5128C11.5588 45.3925 8.97627 51.0982 7.61354 52.7311C5.16443 55.6647 1.31447 51.9147 1.31447 51.9147L1.03812 54.44C1.77189 57.5539 12.6642 59.1109 23.547 59.1109C34.4394 59.1109 45.3222 57.5539 46.056 54.44L45.7796 51.9147Z" fill="black"/>
</svg>
