<svg width="30" height="30" viewBox="0 0 30 30" fill="none" xmlns="http://www.w3.org/2000/svg">
<path opacity="0.4" d="M25.4399 20.5543C25.0199 18.2571 25.8256 16.8257 25.6113 11.9571C25.397 7.08856 21.797 5.94856 19.4485 6.3857C14.0142 -1.14001 3.27417 6.24856 4.67131 12.24C6.06845 18.2314 4.53417 22.6971 2.87988 24.9257C4.85131 27.0171 11.5027 26.7343 11.5027 26.7343C11.5027 26.7343 9.41131 24.36 9.12845 21.1543C8.8456 17.9486 10.1056 17.1086 14.8456 15.4028C16.8599 14.6828 18.2485 13.32 19.0885 11.8286C19.9713 12.8057 21.5827 15.3428 21.5827 18.4457C21.5827 22.1228 20.237 24.7371 18.6856 26.7428C24.2656 27.2657 27.1199 24.4971 27.1199 24.4971C27.1199 24.4971 25.8256 22.6886 25.4399 20.5457V20.5543Z" fill="black"/>
</svg>
