<svg width="30" height="30" viewBox="0 0 30 30" fill="none" xmlns="http://www.w3.org/2000/svg">
<path opacity="0.4" d="M26.4343 12.0428C29.0143 4.89427 21.2143 2.83713 20.22 2.71713C20.04 2.01427 18.8229 1.72284 18.8229 1.72284H11.1772C11.1772 1.72284 9.96002 2.01427 9.78002 2.71713C8.78574 2.83713 0.985737 4.8857 3.56574 12.0428C2.80288 13.0971 2.22002 14.7428 2.39145 16.7914C3.67717 17.6743 5.50288 19.02 5.50288 19.02L6.90859 17.7857L6.96859 12.3343C6.96859 12.3343 7.55145 11.8628 7.96288 12.3343C8.37431 12.8057 9.03431 14.28 11.2029 14.28C13.3715 14.28 14.4515 12.24 14.52 11.6228C14.52 11.5543 14.5457 11.4943 14.5715 11.4428C14.5886 11.4086 14.6143 11.3743 14.64 11.34C14.64 11.34 14.6486 11.3228 14.6572 11.3228C14.7343 11.2457 14.8372 11.2114 14.94 11.1943C14.9572 11.1943 14.9743 11.1943 15 11.1943C15.0172 11.1943 15.0343 11.1943 15.06 11.1943C15.1629 11.2114 15.2657 11.2457 15.3429 11.3228C15.3429 11.3228 15.3515 11.34 15.36 11.34C15.3857 11.3657 15.4115 11.4 15.4286 11.4428C15.4543 11.4943 15.4715 11.5543 15.48 11.6228C15.5486 12.2486 16.6286 14.28 18.7972 14.28C20.9657 14.28 21.6257 12.7971 22.0372 12.3343C22.4486 11.8628 23.0315 12.3343 23.0315 12.3343L23.0915 17.7857L24.4972 19.02C24.4972 19.02 26.3143 17.6743 27.6086 16.7914C27.7886 14.7428 27.1972 13.0971 26.4343 12.0428Z" fill="black"/>
<path opacity="0.4" d="M18.8314 15.6C17.1514 15.6514 15.8743 14.6228 15.3171 14.0743C15.1286 13.8857 14.8971 13.86 14.7429 14.0143C14.2114 14.5457 12.9171 15.6514 11.1686 15.6C8.87143 15.5314 8.14285 14.3486 8.14285 14.3486C8.14285 14.3486 8.07428 16.7228 8.57143 19.02C9.06 21.3171 8.57143 25.32 8.57143 25.32C8.57143 25.32 9.3 27.8914 13.9457 28.2343C14.28 28.26 15.5229 28.2686 15.7714 28.2514C20.6657 27.9943 21.4286 25.3114 21.4286 25.3114C21.4286 25.3114 20.94 21.3 21.4286 19.0114C21.9171 16.7143 21.8571 14.34 21.8571 14.34C21.8571 14.34 21.1371 15.5228 18.8314 15.5914V15.6Z" fill="black"/>
</svg>
