<svg width="30" height="30" viewBox="0 0 30 30" fill="none" xmlns="http://www.w3.org/2000/svg">
<path opacity="0.4" d="M14.9998 2.37426C7.8255 2.35712 4.77407 4.28569 3.77979 6.18854C3.85693 10.3114 4.4655 18.2485 8.1255 22.7485C10.6969 25.9114 12.8484 27.0428 13.8855 27.4371C14.2369 27.5743 14.6141 27.6343 14.9998 27.6343C15.3855 27.6343 15.7541 27.5743 16.1141 27.4371C17.1426 27.0428 19.2941 25.9114 21.8741 22.7485C25.5341 18.2485 26.1512 10.3114 26.2198 6.18854C25.2255 4.27712 22.1741 2.35712 14.9998 2.37426ZM8.20264 11.9057C8.20264 11.9057 9.93407 9.69426 11.3484 9.72855C12.7626 9.76283 13.9112 11.3314 13.9112 11.3314C12.4712 11.7171 8.20264 11.9057 8.20264 11.9057ZM14.9655 21.5571C11.0569 21.5571 9.71121 15.66 9.71121 15.66C9.71121 15.66 12.8826 16.7828 14.7169 16.7828C17.1512 16.7828 20.2284 15.66 20.2284 15.66C20.2284 15.66 18.6598 21.5571 14.9741 21.5571H14.9655ZM16.0884 11.3314C16.0884 11.3314 17.2455 9.76283 18.6512 9.72855C20.0655 9.69426 21.7969 11.9057 21.7969 11.9057C21.7969 11.9057 17.5284 11.7171 16.0884 11.3314Z" fill="black"/>
</svg>
