<svg width="60" height="61" viewBox="0 0 60 61" fill="none" xmlns="http://www.w3.org/2000/svg">
<path d="M50.5 6.96977C50.45 7.98977 51.3 8.79977 52.31 8.66977C58.16 7.94977 59.66 11.8798 58.77 15.4298C58.03 18.3598 55.8 19.2998 53.47 19.2398C51.69 19.1898 50.44 17.4698 48.82 17.4298C47.13 17.3898 41.16 25.4798 39.54 27.3198L33.69 22.2598C35.27 20.3898 42.89 13.3198 42.61 11.6498C42.33 9.97977 40.02 9.07977 39.51 7.36977C38.57 4.19977 39.89 2.66977 42.68 1.51977C46.05 0.129766 50.81 1.38977 50.51 6.97977L50.5 6.96977Z" fill="#F4E6D3" stroke="#362F2D" stroke-width="2" stroke-linecap="round" stroke-linejoin="round"/>
<path d="M47.17 30.2396C45.95 41.9796 33.64 55.7396 27.36 55.7396C26.04 55.7396 24.51 55.2096 22.87 54.3196C15.06 50.0496 4.95999 37.3696 5.29999 33.6196C5.70999 29.0096 12.51 20.8796 22.53 19.9196C26.32 19.5596 24.27 16.5896 26.61 14.9896C30.08 12.6096 36.94 15.6096 41.79 20.0996C45.13 23.1896 47.51 26.9896 47.17 30.2396Z" fill="#CB500F" stroke="#362F2D" stroke-width="2" stroke-linecap="round" stroke-linejoin="round"/>
<path opacity="0.2" d="M47.17 30.2397C45.95 41.9797 33.64 55.7397 27.36 55.7397C26.04 55.7397 24.51 55.2097 22.87 54.3197C22.2 49.5697 27.3 44.9397 27.81 43.1797C35.02 43.7997 44.77 25.3697 44.41 22.9297C46.17 24.7597 47.52 26.9897 47.18 30.2397H47.17Z" fill="black"/>
<path opacity="0.2" d="M21.68 20.0297C22.64 20.5697 23.84 20.4497 24.65 19.7197C25.42 19.0297 25.69 17.9197 25.33 16.9397C27.88 17.6097 29.65 19.2897 29.78 21.1397C29.88 22.5197 29.08 24.2497 28.05 24.4197C27.37 24.5297 26.87 23.9197 25.73 22.9297C24.83 22.1497 23.5 21.0997 21.68 20.0297Z" fill="black"/>
<path d="M27.36 55.7497C19.75 55.7497 4.9 38.1697 5.3 33.6297C5.71 29.0197 12.51 20.8797 22.53 19.9297C26.32 19.5697 24.28 16.5997 26.62 14.9897C32.47 10.9797 48.01 22.2697 47.17 30.2397C45.95 41.9797 33.64 55.7497 27.36 55.7497Z" stroke="#362F2D" stroke-width="2" stroke-linecap="round" stroke-linejoin="round"/>
<path d="M29.6013 54.8795C32.6162 51.8646 29.8239 44.1844 23.3646 37.7251C16.9054 31.2658 9.22509 28.4736 6.21024 31.4884C3.19539 34.5032 5.98765 42.1835 12.4469 48.6428C18.9062 55.1021 26.5865 57.8943 29.6013 54.8795Z" fill="#E84857" stroke="#362F2D" stroke-width="2" stroke-linecap="round" stroke-linejoin="round"/>
<path d="M20.8765 47.3714C21.7942 46.4537 20.8033 43.9748 18.6632 41.8347C16.5231 39.6947 14.0443 38.7038 13.1266 39.6215C12.2088 40.5392 13.1997 43.0181 15.3398 45.1581C17.4799 47.2982 19.9587 48.2891 20.8765 47.3714Z" fill="#F4E6D3" stroke="#362F2D" stroke-width="1.5" stroke-linecap="round" stroke-linejoin="round"/>
</svg>
