<svg width="30" height="30" viewBox="0 0 30 30" fill="none" xmlns="http://www.w3.org/2000/svg">
<path opacity="0.4" d="M26.3828 15.6343L23.7685 10.8514C23.7685 10.8514 23.3142 5.97428 20.52 4.25999C17.7257 2.54571 10.2342 0.394278 5.99139 4.72285C1.74853 9.05999 4.26853 15.4543 5.44282 17.0743C6.43711 18.4457 7.30282 19.0457 7.49139 22.98C7.52568 23.6914 7.53425 25.6886 7.52568 26.64C7.52568 28.2086 18.54 28.2086 18.54 26.64L18.6342 23.1171C18.6342 23.1171 21.3514 23.8028 23.0657 22.4571C24.78 21.1114 23.8628 17.2543 23.8628 17.2543C23.8628 17.2543 25.7571 16.8943 26.3914 15.6257L26.3828 15.6343Z" fill="black"/>
</svg>
