<svg width="70" height="70" viewBox="0 0 70 70" fill="none" xmlns="http://www.w3.org/2000/svg">
<path d="M26.6821 45.8336L31.4376 50.1912L23.2156 59.1639C22.6819 59.7463 21.7709 59.7932 21.1811 59.2527L18.549 56.8408C17.9666 56.3071 17.9197 55.3961 18.4602 54.8063L26.6821 45.8336Z" fill="#994430" stroke="#362F2D" stroke-width="2" stroke-linecap="round" stroke-linejoin="round"/>
<path opacity="0.2" d="M26.6841 45.8304L31.4395 50.188L27.8319 54.125C27.2982 54.7075 26.3872 54.7543 25.7973 54.2139L23.1653 51.802C22.5828 51.2683 22.536 50.3573 23.0764 49.7675L26.6841 45.8304Z" fill="black"/>
<path d="M26.6821 45.8336L31.4376 50.1912L23.2156 59.1639C22.6819 59.7463 21.7709 59.7932 21.1811 59.2527L18.549 56.8408C17.9666 56.3071 17.9197 55.3961 18.4602 54.8063L26.6821 45.8336Z" stroke="#362F2D" stroke-width="2" stroke-linecap="round" stroke-linejoin="round"/>
<path d="M59.38 15.08L59.32 15.66L58.5 23.56L33.36 48.27C32.78 48.89 31.81 48.93 31.19 48.37L29.82 47.12L28.71 46.09C28.08 45.51 28.04 44.54 28.61 43.92L51.03 16.72L59.39 15.09L59.38 15.08Z" fill="#CCCCCC" stroke="#362F2D" stroke-width="2" stroke-linecap="round" stroke-linejoin="round"/>
<path opacity="0.2" d="M59.3198 15.66L58.4998 23.56L33.3598 48.27C32.7798 48.89 31.8098 48.93 31.1898 48.37L29.8198 47.12L59.3298 15.67L59.3198 15.66Z" fill="black"/>
<path d="M31.1798 48.36L28.6998 46.08C28.0698 45.51 28.0298 44.53 28.6098 43.91L51.0298 16.71L59.3898 15.09L58.4998 23.56L33.3598 48.27C32.7898 48.9 31.8098 48.94 31.1898 48.36H31.1798Z" stroke="#362F2D" stroke-width="2" stroke-linecap="round" stroke-linejoin="round"/>
<path d="M31.1499 44.14C27.9099 41.84 24.1499 41.55 21.3999 44.56L33.1999 55.37C36.0699 52.24 35.2199 48.15 32.2999 45.13C32.1799 45.01 31.4199 44.34 31.1499 44.14Z" fill="#FFCF6E" stroke="#362F2D" stroke-width="2" stroke-linecap="round" stroke-linejoin="round"/>
<path d="M16.4302 20.88C24.0202 13.66 34.9202 9.82 47.2402 14.29" stroke="#362F2D" stroke-width="2" stroke-linecap="round" stroke-linejoin="round"/>
<path d="M12.6099 25.15C12.9699 24.68 13.3399 24.22 13.7199 23.77" stroke="#362F2D" stroke-width="2" stroke-linecap="round" stroke-linejoin="round"/>
<path d="M28.8799 20.88C33.1399 19.11 37.9399 18.9 42.1699 20.31" stroke="#362F2D" stroke-width="2" stroke-linecap="round" stroke-linejoin="round"/>
<path d="M21.0601 26.93C22.2801 25.31 23.7101 23.95 25.2901 22.84" stroke="#362F2D" stroke-width="2" stroke-linecap="round" stroke-linejoin="round"/>
</svg>
