<svg width="70" height="70" viewBox="0 0 70 70" fill="none" xmlns="http://www.w3.org/2000/svg">
<path d="M42.9799 57.28C44.3299 56.38 54.1699 56.27 56.8399 46.67C59.1399 38.38 55.1699 34.12 53.2499 32.74C54.3399 39.04 52.9499 41.63 50.5399 42.59C48.1299 43.55 43.7399 42.91 42.9899 37.52C42.1899 31.78 50.5499 24.5 46.4099 18.62C42.8799 13.6 32.4499 19.93 29.2099 15.44C27.2999 12.8 31.9899 6.48 31.9899 6.48C31.9899 6.48 21.5199 9.53 23.5299 16.72C24.7799 21.18 32.3999 20.81 35.5399 25.82C38.4199 30.41 31.6899 34.35 31.6899 34.35C30.5399 29.24 28.3299 27.93 24.2299 26.82C24.2299 26.82 27.2999 31.66 24.0999 36.61C20.2499 42.55 13.7999 41.52 16.0199 34.57C9.2599 37.45 10.4799 47.5 14.6299 52.15C19.1099 57.16 25.8699 57.13 27.0899 57.3C36.0699 60.03 40.5499 58.92 42.9899 57.3L42.9799 57.28Z" fill="#10FF00" stroke="#362F2D" stroke-width="2" stroke-linecap="round" stroke-linejoin="round"/>
<path d="M44.1996 54.6209C45.3959 49.5521 42.2567 44.4733 37.1879 43.2769C32.1191 42.0806 27.0402 45.2198 25.8439 50.2886C24.6476 55.3574 27.7868 60.4362 32.8556 61.6326C37.9243 62.8289 43.0032 59.6897 44.1996 54.6209Z" fill="#FFF3D2" stroke="#362F2D" stroke-width="2" stroke-linecap="round" stroke-linejoin="round"/>
<path d="M31.9802 6.47C31.9802 6.47 27.3002 12.79 29.2002 15.43C30.1702 16.77 31.7902 17.15 33.6702 17.15C36.0402 17.15 38.8302 16.55 41.2902 16.55C43.4002 16.55 45.2602 16.99 46.4002 18.61C50.5402 24.48 42.1702 31.77 42.9802 37.51C43.5502 41.6 46.2102 42.96 48.5102 42.96C49.2502 42.96 49.9502 42.82 50.5302 42.59C52.9402 41.63 54.3302 39.04 53.2402 32.74C55.1602 34.12 59.1302 38.39 56.8302 46.67C54.2602 55.93 45.0402 56.37 43.1702 57.19C41.5402 60 38.5002 61.89 35.0202 61.89C31.5402 61.89 28.5602 60.03 26.9102 57.27C25.3802 57.11 18.9302 56.98 14.6002 52.13C10.4502 47.49 9.23021 37.43 15.9902 34.55C14.7502 38.44 16.2202 40.47 18.4302 40.47C20.1702 40.47 22.3702 39.2 24.0702 36.58C27.2702 31.63 24.2002 26.79 24.2002 26.79C28.3102 27.9 30.5102 29.21 31.6602 34.32C31.6602 34.32 38.3902 30.39 35.5102 25.79C32.3702 20.79 24.7602 21.15 23.5002 16.69C21.4802 9.5 31.9602 6.45 31.9602 6.45M31.9702 3.47C31.6902 3.47 31.4102 3.51 31.1302 3.59C26.5202 4.93 18.3902 9.57 20.6202 17.52C21.6402 21.15 24.8702 22.59 27.7302 23.86C29.8902 24.82 31.9202 25.72 32.9702 27.4C33.2702 27.88 33.2502 28.19 33.1902 28.45C33.1402 28.68 33.0302 28.91 32.9002 29.14C31.1602 26.18 28.5302 24.87 24.9802 23.91C24.7202 23.84 24.4602 23.81 24.1902 23.81C23.2502 23.81 22.3502 24.25 21.7802 25.03C21.0502 26.03 21.0002 27.37 21.6602 28.42C21.7302 28.53 23.6302 31.76 21.5502 34.97C20.4402 36.69 19.2102 37.39 18.5602 37.48C18.5102 37.17 18.5202 36.52 18.8502 35.48C19.2102 34.36 18.8802 33.14 18.0102 32.35C17.4502 31.84 16.7202 31.57 15.9902 31.57C15.5902 31.57 15.1902 31.65 14.8102 31.81C11.5802 33.19 9.35021 35.95 8.54021 39.58C7.46021 44.43 9.03021 50.42 12.3602 54.15C16.5802 58.88 22.3902 59.86 25.2402 60.15C27.5802 63.12 31.1902 64.91 35.0102 64.91C38.8302 64.91 42.7402 62.97 45.0702 59.77C45.1902 59.74 45.3002 59.71 45.4102 59.69C48.9102 58.84 57.1102 56.86 59.7102 47.49C61.2502 41.94 60.8102 34.52 54.9802 30.32C54.4602 29.94 53.8402 29.75 53.2302 29.75C52.6802 29.75 52.1302 29.9 51.6402 30.21C50.6102 30.86 50.0702 32.06 50.2702 33.26C50.7302 35.91 50.9502 39.2 49.4002 39.81C49.1502 39.91 48.8202 39.97 48.4902 39.97C47.0602 39.97 46.1902 39.01 45.9302 37.11C45.7202 35.61 46.8102 33.29 47.8702 31.05C49.8202 26.91 52.2602 21.75 48.8402 16.9C46.4902 13.57 42.5702 13.57 41.2802 13.57C39.8702 13.57 38.4402 13.73 37.0602 13.89C35.8302 14.03 34.6602 14.16 33.6602 14.16C32.9702 14.16 32.1002 14.09 31.7302 13.79C31.7102 12.81 32.9402 10.21 34.3802 8.26C35.1402 7.22 35.1602 5.82 34.4302 4.76C33.8602 3.94 32.9302 3.48 31.9702 3.48V3.47Z" fill="#362F2D"/>
<path d="M22.3599 49.5C22.5299 48.54 22.8199 47.61 23.1999 46.74" stroke="#362F2D" stroke-width="2" stroke-linecap="round" stroke-linejoin="round"/>
<path d="M47.0298 47.45C47.6398 48.89 47.9698 50.47 47.9698 52.12" stroke="#362F2D" stroke-width="2" stroke-linecap="round" stroke-linejoin="round"/>
<path d="M24.77 44.27C26.82 41.55 30.01 39.73 33.63 39.51" stroke="#362F2D" stroke-width="2" stroke-linecap="round" stroke-linejoin="round"/>
<path d="M38.1898 52.45C39.6589 52.45 40.8498 51.2591 40.8498 49.79C40.8498 48.3209 39.6589 47.13 38.1898 47.13C36.7207 47.13 35.5298 48.3209 35.5298 49.79C35.5298 51.2591 36.7207 52.45 38.1898 52.45Z" fill="#362F2D" stroke="#362F2D" stroke-miterlimit="10"/>
</svg>
