<svg width="30" height="30" viewBox="0 0 30 30" fill="none" xmlns="http://www.w3.org/2000/svg">
<path opacity="0.4" d="M29.1943 13.2857C29.1943 10.02 26.5457 7.37145 23.28 7.37145C20.0143 7.37145 17.3657 10.02 17.3657 13.2857C17.3657 13.4143 17.3743 13.5343 17.3828 13.6629C16.7057 13.3457 15.9514 13.1657 15.1457 13.1657C12.9771 13.1657 11.1085 14.4772 10.2943 16.3457C9.93425 14.64 7.69711 13.62 6.72854 12.6515C5.75997 11.6829 5.15997 9.42003 5.3914 9.1886C5.62283 8.95717 6.1714 9.83145 7.1914 9.9686C8.20283 10.1057 10.3285 7.52574 10.4228 6.32574C10.5171 5.12574 7.32854 3.05145 5.90568 2.95717C4.47425 2.86288 1.93711 5.26288 1.38854 6.1886C0.831397 7.11431 0.514254 9.50574 1.15711 15.6429C1.79997 21.78 6.13711 25.9715 7.29425 26.76C8.4514 27.54 8.99997 26.4857 9.85711 26.2543C10.7143 26.0229 14.7 26.5629 18.3428 24.7115C20.8628 23.4343 22.5771 21.7029 23.6743 20.4C24.1628 19.8172 24.6257 19.1057 25.2857 18.8315C27.5143 17.8972 29.1857 15.84 29.1857 13.2772L29.1943 13.2857Z" fill="black"/>
</svg>
