<svg width="57" height="54" viewBox="0 0 57 54" fill="none" xmlns="http://www.w3.org/2000/svg">
<path d="M55.5051 9.08L50.2252 10.8L50.0252 15.42L45.2152 16.55L44.3652 22.22L38.8152 23.3L38.0051 29.1L32.1852 29.78L31.1252 35.76L22.1452 44.86L19.6152 39.15L13.8352 26.14L49.8252 1L55.5051 9.08Z" fill="#B3B4BA" stroke="#362F2D" stroke-width="2" stroke-linecap="round" stroke-linejoin="round"/>
<path opacity="0.2" d="M55.5051 9.07993L50.2251 10.7999L50.0251 15.4199L45.2152 16.5499L44.3651 22.2199L38.8151 23.2999L38.0051 29.0999L32.1851 29.7799L31.1251 35.7599L22.1451 44.8599L19.6152 39.1499L20.6451 35.3999L52.7352 4.92993L55.5051 9.07993Z" fill="black"/>
<path d="M22.1452 44.86L13.8352 26.14L49.8252 1L55.5051 9.08L50.2152 10.8L50.0252 15.42L45.2152 16.55L44.3652 22.22L38.8252 23.3L37.9952 29.11L32.1952 29.77L31.1152 35.76L22.1452 44.86Z" stroke="#362F2D" stroke-width="2" stroke-linecap="round" stroke-linejoin="round"/>
<path d="M11.0652 43.7999C9.63515 45.2299 7.25515 45.1899 5.75515 44.5699C1.77515 42.9299 -0.774848 35.1499 2.49515 29.8899C4.75515 26.2499 9.50515 24.3999 14.4552 25.1299C16.0852 27.2299 23.6352 39.9499 21.6652 46.0799C20.3552 50.1799 14.7752 53.7999 11.4852 52.4999C9.18515 51.5899 7.97515 49.0299 8.95515 47.7699C10.0252 46.3799 13.1652 48.6199 14.9552 47.0699C17.2552 45.0799 14.7352 39.0499 14.0552 37.4099C13.3652 35.7699 12.2452 33.1699 10.2452 32.8699C10.0352 32.8399 9.21515 32.7399 8.65515 33.2299C7.72515 34.0399 7.92515 36.1299 8.90515 37.3599C9.94515 38.6699 11.4852 37.4099 12.1652 39.8199C12.5652 41.2299 12.2352 42.6499 11.0752 43.8099L11.0652 43.7999Z" fill="#F93048" stroke="#362F2D" stroke-width="2" stroke-linecap="round" stroke-linejoin="round"/>
</svg>
