<svg width="70" height="65" viewBox="0 0 70 65" fill="none" xmlns="http://www.w3.org/2000/svg">
<path d="M49.0764 44.69C48.1964 44.69 47.5164 44.45 47.0364 43.97C46.5564 43.47 46.3164 42.78 46.3164 41.9V26.06C46.3164 25.16 46.5564 24.47 47.0364 23.99C47.5364 23.51 48.2264 23.27 49.1064 23.27H56.4864C58.8864 23.27 60.7364 23.89 62.0364 25.13C63.3564 26.35 64.0164 28.04 64.0164 30.2C64.0164 32.36 63.3564 34.06 62.0364 35.3C60.7364 36.52 58.8864 37.13 56.4864 37.13H51.8364V41.9C51.8364 42.78 51.6064 43.47 51.1464 43.97C50.6864 44.45 49.9964 44.69 49.0764 44.69ZM51.8364 32.9H55.5264C56.5664 32.9 57.3664 32.68 57.9264 32.24C58.4864 31.78 58.7664 31.1 58.7664 30.2C58.7664 29.28 58.4864 28.6 57.9264 28.16C57.3664 27.72 56.5664 27.5 55.5264 27.5H51.8364V32.9Z" fill="#5FF55A"/>
<path d="M27.3192 44.69C26.6192 44.69 26.0392 44.5 25.5792 44.12C25.1192 43.74 24.8492 43.26 24.7692 42.68C24.7092 42.1 24.9092 41.51 25.3692 40.91L31.7292 32.51V35L25.5492 26.81C25.0892 26.19 24.8892 25.59 24.9492 25.01C25.0292 24.43 25.2992 23.95 25.7592 23.57C26.2192 23.19 26.7992 23 27.4992 23C28.0792 23 28.5892 23.14 29.0292 23.42C29.4692 23.7 29.9092 24.15 30.3492 24.77L34.8192 30.98H33.0192L37.5192 24.77C37.9592 24.13 38.3992 23.68 38.8392 23.42C39.2792 23.14 39.7892 23 40.3692 23C41.0892 23 41.6792 23.19 42.1392 23.57C42.5992 23.93 42.8592 24.4 42.9192 24.98C42.9992 25.56 42.7992 26.17 42.3192 26.81L36.1092 35V32.51L42.4692 40.91C42.9492 41.51 43.1492 42.1 43.0692 42.68C43.0092 43.26 42.7492 43.74 42.2892 44.12C41.8292 44.5 41.2392 44.69 40.5192 44.69C39.9592 44.69 39.4592 44.56 39.0192 44.3C38.5792 44.02 38.1292 43.56 37.6692 42.92L33.0492 36.53H34.7892L30.1992 42.92C29.7392 43.56 29.2892 44.02 28.8492 44.3C28.4092 44.56 27.8992 44.69 27.3192 44.69Z" fill="#5FF55A"/>
<path d="M9.88 44.42C8.94 44.42 8.22 44.18 7.72 43.7C7.24 43.2 7 42.49 7 41.57V26.12C7 25.2 7.24 24.5 7.72 24.02C8.22 23.52 8.94 23.27 9.88 23.27H20.05C20.77 23.27 21.31 23.45 21.67 23.81C22.03 24.17 22.21 24.69 22.21 25.37C22.21 26.07 22.03 26.61 21.67 26.99C21.31 27.35 20.77 27.53 20.05 27.53H12.28V31.55H19.39C20.09 31.55 20.62 31.73 20.98 32.09C21.36 32.45 21.55 32.98 21.55 33.68C21.55 34.38 21.36 34.91 20.98 35.27C20.62 35.63 20.09 35.81 19.39 35.81H12.28V40.16H20.05C20.77 40.16 21.31 40.35 21.67 40.73C22.03 41.09 22.21 41.61 22.21 42.29C22.21 42.99 22.03 43.52 21.67 43.88C21.31 44.24 20.77 44.42 20.05 44.42H9.88Z" fill="#5FF55A"/>
<path d="M43.0693 42.6797C43.1492 42.0998 42.9487 41.5101 42.4688 40.9102L42.3164 40.708V26.8125L42.3193 26.8096C42.7992 26.1697 42.9989 25.5594 42.9189 24.9795C42.8816 24.6192 42.7669 24.3017 42.5752 24.0264C42.844 23.0212 43.3479 22.0213 44.208 21.1611C44.2272 21.1419 44.247 21.1233 44.2666 21.1045C45.6977 19.7307 47.4846 19.2695 49.1064 19.2695V23.2695C48.2265 23.2695 47.5361 23.5102 47.0361 23.9902C46.5564 24.4702 46.3165 25.16 46.3164 26.0596V41.9004L46.3281 42.2207C46.3806 42.9491 46.6162 43.5322 47.0361 43.9697C47.5161 44.4497 48.1963 44.6894 49.0762 44.6895C49.9962 44.6895 50.6865 44.4497 51.1465 43.9697C51.549 43.5322 51.7759 42.9492 51.8262 42.2207L51.8369 41.9004V37.1299H56.4863C58.8862 37.1299 60.7361 36.5197 62.0361 35.2998C63.2736 34.1373 63.9314 32.5707 64.0088 30.5996L64.0166 30.2002C64.0166 28.0402 63.3561 26.3499 62.0361 25.1299C60.7361 23.89 58.8862 23.2695 56.4863 23.2695V19.2695C59.5398 19.2695 62.491 20.0639 64.751 22.1924C67.0535 24.3205 68.0166 27.1685 68.0166 30.2002C68.0165 33.2337 67.0537 36.0744 64.7754 38.2148L64.7734 38.2168C62.5061 40.3445 59.5442 41.1299 56.4863 41.1299H55.8369V41.9004C55.8368 43.4782 55.4107 45.242 54.0898 46.6777C54.0715 46.6977 54.053 46.7177 54.0342 46.7373C52.5668 48.2684 50.6571 48.6895 49.0762 48.6895C47.4635 48.6894 45.6419 48.2326 44.208 46.7988C44.1889 46.7797 44.1701 46.7598 44.1514 46.7402C43.3173 45.8715 42.8208 44.871 42.5586 43.8564C42.8507 43.525 43.0224 43.1337 43.0693 42.6797ZM55.5264 27.5C56.5664 27.5 57.3668 27.7202 57.9268 28.1602C58.4866 28.6002 58.7666 29.2804 58.7666 30.2002L58.7529 30.5273C58.6916 31.2666 58.4167 31.8378 57.9268 32.2402L57.7051 32.3945C57.1626 32.7314 56.4363 32.9004 55.5264 32.9004H51.8369V27.5H55.5264ZM56.4863 19.2695V23.2695H49.1064V19.2695H56.4863Z" fill="#362F2D"/>
<path d="M40.6426 19.0049C41.9822 19.0516 43.3874 19.4495 44.6035 20.4209L44.6045 20.4199C44.6224 20.4339 44.6395 20.4487 44.6572 20.4629C44.6669 20.4708 44.6769 20.4784 44.6865 20.4863H44.6855C45.8563 21.4339 46.6092 22.7292 46.8486 24.207C46.4948 24.6701 46.3165 25.2869 46.3164 26.0596V27.8945C46.0852 28.3815 45.8099 28.8228 45.5195 29.21C45.5154 29.2155 45.511 29.2211 45.5068 29.2266L42.0703 33.7578L45.6582 38.4951H45.6572C45.8942 38.7997 46.1184 39.1352 46.3164 39.499V41.9004C46.3165 42.7062 46.5202 43.3508 46.9229 43.8379C46.6197 45.1732 45.8927 46.3319 44.8369 47.2041C43.5199 48.292 41.9695 48.6894 40.5195 48.6895C39.3143 48.6895 38.0988 48.4017 36.9844 47.7432C36.9466 47.7209 36.909 47.6983 36.8721 47.6748C35.841 47.0187 35.0412 46.1179 34.4209 45.2549V45.2539L33.9326 44.5791L33.4482 45.2539L33.4473 45.2549C32.827 46.1178 32.028 47.0187 30.9971 47.6748C30.9599 47.6984 30.9217 47.7208 30.8838 47.7432C29.7479 48.4143 28.5167 48.6894 27.3193 48.6895C25.8583 48.6895 24.3283 48.2756 23.0312 47.2041C22.0882 46.425 21.4041 45.4208 21.041 44.2666C21.2903 44.1769 21.5004 44.0494 21.6699 43.8799C22.0299 43.5199 22.2099 42.99 22.21 42.29C22.21 41.61 22.0299 41.0895 21.6699 40.7295C21.524 40.5756 21.3476 40.4548 21.1426 40.3633C21.4053 39.6522 21.779 39.0183 22.1943 38.4766L25.7734 33.748L22.3564 29.2197C22.35 29.2111 22.3433 29.202 22.3369 29.1934C21.9269 28.6407 21.5537 27.992 21.2959 27.2627C21.4362 27.1871 21.5619 27.0982 21.6699 26.9902C22.0299 26.6103 22.2099 26.07 22.21 25.3701C22.21 24.6901 22.0299 24.1696 21.6699 23.8096C21.5379 23.6776 21.3816 23.5699 21.2012 23.4863C21.5589 22.3055 22.2516 21.2796 23.2119 20.4863L23.458 20.293C24.7 19.3647 26.1295 19 27.499 19L27.9697 19.0146C28.9897 19.0794 30.011 19.3598 30.959 19.9131L31.1768 20.0449L31.5518 20.3008C32.3925 20.9154 33.0609 21.6833 33.5957 22.4336L33.9326 22.9014L34.2803 22.4229C34.8679 21.5827 35.6497 20.6908 36.6914 20.0459V20.0449C37.8437 19.3117 39.1166 19 40.3691 19L40.6426 19.0049ZM40.3691 23C39.7892 23 39.2788 23.1399 38.8389 23.4199C38.399 23.6799 37.9594 24.1299 37.5195 24.7695L33.9219 29.7334L30.3496 24.7695C29.9096 24.1496 29.4693 23.6999 29.0293 23.4199C28.5893 23.1399 28.079 23 27.499 23C26.7991 23 26.2187 23.1903 25.7588 23.5703C25.2991 23.9502 25.0292 24.43 24.9492 25.0098C24.8892 25.5896 25.089 26.1897 25.5488 26.8096L30.7881 33.752L25.3691 40.9102L25.209 41.1348C24.8635 41.6574 24.7171 42.1723 24.7695 42.6797C24.8495 43.2597 25.1191 43.7401 25.5791 44.1201C25.9816 44.4526 26.4762 44.6391 27.0625 44.6807L27.3193 44.6895C27.8266 44.6894 28.2805 44.5905 28.6807 44.3916L28.8496 44.2998C29.2345 44.0548 29.6271 43.6719 30.0273 43.1514L30.1992 42.9199L33.9209 37.7373L37.6689 42.9199C38.1289 43.5599 38.5795 44.0198 39.0195 44.2998C39.4046 44.5273 39.8355 44.6552 40.3125 44.6836L40.5195 44.6895C41.1492 44.6894 41.6796 44.5446 42.1104 44.2539L42.2891 44.1201C42.7491 43.7401 43.0093 43.2597 43.0693 42.6797C43.1492 42.0998 42.9487 41.5101 42.4688 40.9102L37.0518 33.7549L42.3193 26.8096C42.7992 26.1697 42.9989 25.5594 42.9189 24.9795C42.8589 24.3999 42.5992 23.9302 42.1396 23.5703C41.6796 23.1903 41.0891 23 40.3691 23Z" fill="#362F2D"/>
<path d="M3 41.5703V26.1201C3 24.5264 3.42608 22.6569 4.8916 21.1914C6.36349 19.7195 8.24043 19.2696 9.87988 19.2695V23.2695C8.93999 23.2696 8.21969 23.5196 7.71973 24.0195C7.23973 24.4995 7 25.2001 7 26.1201V41.5703L7.01172 41.9053C7.06425 42.6642 7.29979 43.2627 7.71973 43.7002C8.21969 44.1802 8.93998 44.4199 9.87988 44.4199H20.0498C20.7698 44.4199 21.3099 44.2398 21.6699 43.8799C21.9848 43.565 22.1617 43.12 22.2012 42.5449L22.21 42.29C22.21 41.61 22.0299 41.0895 21.6699 40.7295C21.3549 40.3972 20.902 40.2105 20.3115 40.1689L20.0498 40.1602H12.2803V35.8096H19.3896C20.0896 35.8096 20.6205 35.6295 20.9805 35.2695C21.3602 34.9095 21.5498 34.3794 21.5498 33.6797C21.5498 32.9799 21.3603 32.4498 20.9805 32.0898C20.6205 31.7298 20.0896 31.5498 19.3896 31.5498H12.2803V27.5303H20.0498L20.3115 27.5215C20.8178 27.4877 21.2226 27.3525 21.5264 27.1162L21.6699 26.9902C21.9849 26.6578 22.1618 26.2024 22.2012 25.625L22.21 25.3701C22.21 24.6901 22.0299 24.1696 21.6699 23.8096C21.3099 23.4497 20.7696 23.2695 20.0498 23.2695V19.2695C21.3863 19.2695 23.1234 19.6069 24.498 20.9814C25.2455 21.7289 25.6927 22.5844 25.9414 23.4336C25.8787 23.4759 25.8176 23.5218 25.7588 23.5703C25.2991 23.9502 25.0292 24.43 24.9492 25.0098C24.8892 25.5896 25.089 26.1897 25.5488 26.8096L25.9414 27.3291C25.7014 28.1607 25.2777 28.9987 24.5742 29.7412C24.5494 29.7674 24.5235 29.7929 24.498 29.8184C24.461 29.8554 24.4214 29.8892 24.3838 29.9248C25.2764 31.1294 25.5498 32.514 25.5498 33.6797C25.5498 34.9128 25.2451 36.3919 24.2236 37.6426C24.3161 37.7248 24.4077 37.8105 24.4971 37.9014H24.498C24.5064 37.9097 24.5142 37.9193 24.5225 37.9277C24.5392 37.945 24.5576 37.9609 24.5742 37.9785L24.5723 37.9795C25.2344 38.6667 25.6497 39.4393 25.8965 40.2129L25.3691 40.9102C24.9093 41.51 24.7096 42.0998 24.7695 42.6797C24.8495 43.2597 25.1191 43.7401 25.5791 44.1201C25.6828 44.2057 25.7933 44.2803 25.9092 44.3467C25.6571 45.1626 25.2205 45.9856 24.498 46.708C23.1233 48.0827 21.3864 48.4199 20.0498 48.4199H9.87988C8.2828 48.4199 6.42774 48.0042 4.9502 46.5859C4.91096 46.5483 4.87263 46.509 4.83496 46.4697C3.43084 45.0071 3.00007 43.1752 3 41.5703ZM20.0498 19.2695V23.2695H9.87988V19.2695H20.0498Z" fill="#362F2D"/>
</svg>
