<svg width="70" height="70" viewBox="0 0 70 70" fill="none" xmlns="http://www.w3.org/2000/svg">
<path d="M57.0402 34.96C57.0402 49.43 47.1202 57.51 34.8902 57.51C22.6602 57.51 12.7402 47.41 12.7402 34.96C12.7402 22.51 22.6602 12.41 34.8902 12.41C47.1202 12.41 57.0302 20.55 57.0402 34.96Z" fill="#CC5744" stroke="#362F2D" stroke-width="2" stroke-linecap="round" stroke-linejoin="round"/>
<path opacity="0.32" d="M36.3698 12.45C45.2998 14.93 51.7598 22.47 51.7598 34.11C51.7598 48.58 41.8398 56.66 29.6098 56.66C29.3398 56.66 29.0698 56.65 28.7998 56.64C30.7398 57.2 32.7798 57.51 34.8898 57.51C47.1198 57.51 57.0398 49.43 57.0398 34.96C57.0398 21.13 47.9098 13.08 36.3698 12.45Z" fill="black"/>
<path opacity="0.2" d="M32.6599 43.99C36.8296 43.99 40.2099 40.2202 40.2099 35.57C40.2099 30.9198 36.8296 27.15 32.6599 27.15C28.4901 27.15 25.1099 30.9198 25.1099 35.57C25.1099 40.2202 28.4901 43.99 32.6599 43.99Z" fill="black"/>
<path d="M30.56 42.41C34.3211 42.41 37.37 39.0745 37.37 34.96C37.37 30.8455 34.3211 27.51 30.56 27.51C26.7989 27.51 23.75 30.8455 23.75 34.96C23.75 39.0745 26.7989 42.41 30.56 42.41Z" fill="#95A7C1" stroke="#362F2D" stroke-width="2" stroke-linecap="round" stroke-linejoin="round"/>
<path d="M57.0402 34.96C57.0402 49.43 47.1202 57.51 34.8902 57.51C22.6602 57.51 12.7402 47.41 12.7402 34.96C12.7402 22.51 22.6602 12.41 34.8902 12.41C47.1202 12.41 57.0302 20.55 57.0402 34.96Z" stroke="#362F2D" stroke-width="2" stroke-linecap="round" stroke-linejoin="round"/>
<path d="M16.01 52.72C13.86 50.35 12.14 47.58 10.96 44.53" stroke="#362F2D" stroke-width="2" stroke-linecap="round" stroke-linejoin="round"/>
<path d="M20.8801 56.91C19.8201 56.21 18.8101 55.43 17.8701 54.57" stroke="#362F2D" stroke-width="2" stroke-linecap="round" stroke-linejoin="round"/>
<path d="M51.9102 14.55C52.5202 15.06 53.1102 15.6 53.6602 16.17" stroke="#362F2D" stroke-width="2" stroke-linecap="round" stroke-linejoin="round"/>
<path d="M44.8198 10.49C46.5398 11.12 48.1598 11.93 49.6598 12.91" stroke="#362F2D" stroke-width="2" stroke-linecap="round" stroke-linejoin="round"/>
</svg>
