<svg width="48" height="57" viewBox="0 0 48 57" fill="none" xmlns="http://www.w3.org/2000/svg">
<path d="M46.4864 24.8501L40.1874 17.8297C39.4404 17.0026 38.1382 16.9064 37.27 17.6181L36.6946 18.0893C35.8265 18.801 35.7256 20.0416 36.4726 20.8687L36.7249 21.1572L22.764 32.5341L28.5483 38.9775L42.5091 27.6006L42.7615 27.8891C43.5085 28.7162 44.8107 28.8123 45.6789 28.1007L46.2543 27.6294C47.1224 26.9178 47.2233 25.6772 46.4763 24.8501H46.4864Z" fill="#31F49B" stroke="#362F2D" stroke-width="2" stroke-linecap="round" stroke-linejoin="round"/>
<path d="M39.7937 39.7952C39.723 45.123 37.2902 49.8931 33.4442 53.2302C32.041 54.4419 30.1937 55.067 28.2959 55.067H12.4978C10.6303 55.067 8.79306 54.4611 7.4 53.2686C3.47319 49.893 1 45.0076 1 39.5644C1 36.5927 1.73691 33.7941 3.04921 31.3033C5.36088 26.8987 9.4694 23.5039 14.4662 21.9748V3.62549H26.3375V22.0036C31.6877 23.677 36.0486 27.5431 38.2492 32.4189V32.4381C39.2789 34.7077 39.824 37.1986 39.7937 39.7952Z" fill="#31F49B" stroke="#362F2D" stroke-width="2" stroke-linecap="round" stroke-linejoin="round"/>
<path opacity="0.2" d="M25.9905 6.03833H13.9905V11.0383H25.9905V6.03833Z" fill="black"/>
<path opacity="0.2" d="M39.7937 39.7951C39.723 45.1229 37.2902 49.893 33.4442 53.2301C32.041 54.4418 30.1937 55.0669 28.2959 55.0669H12.4978C10.6303 55.0669 8.79306 54.461 7.4 53.2685C3.47319 49.893 1 45.0075 1 39.5643C1 36.5926 1.73691 33.794 3.04921 31.3032C6.21893 37.6889 9.31798 39.2661 11.5388 39.545C16.5861 40.199 18.8372 34.3903 25.2372 34.5538C30.8599 34.698 33.9792 39.3238 36.5634 37.8717C38.1281 36.9965 38.3401 34.5249 38.2492 32.438C39.2789 34.7077 39.824 37.1985 39.7937 39.7951Z" fill="black"/>
<path d="M26.3375 22.0036V3.62549H14.4662V21.9748C6.65299 24.3598 1.01009 31.3418 1.01009 39.574C1.01009 45.0172 3.48327 49.893 7.41009 53.2782C8.79305 54.4708 10.6303 55.0766 12.5079 55.0766H28.306C30.2038 55.0766 32.0612 54.4515 33.4543 53.2302C37.3003 49.9027 39.7331 45.123 39.8038 39.8048C39.9047 31.6207 34.2013 24.456 26.3476 22.0133L26.3375 22.0036Z" stroke="#362F2D" stroke-width="2" stroke-linecap="round" stroke-linejoin="round"/>
<path d="M13.9312 1H26.8524C28.3767 1 29.6082 2.17328 29.6082 3.62545V4.32749C29.6082 5.38537 28.6997 6.2509 27.5893 6.2509H13.1842C12.0738 6.2509 11.1653 5.38537 11.1653 4.32749V3.62545C11.1653 2.17328 12.3968 1 13.9211 1H13.9312Z" fill="#31F49B" stroke="#362F2D" stroke-width="2" stroke-linecap="round" stroke-linejoin="round"/>
<path d="M8.87382 39.5546C10.3456 39.5546 11.5388 38.4179 11.5388 37.0157C11.5388 35.6135 10.3456 34.4768 8.87382 34.4768C7.40199 34.4768 6.20883 35.6135 6.20883 37.0157C6.20883 38.4179 7.40199 39.5546 8.87382 39.5546Z" fill="#FFF255" stroke="#362F2D" stroke-width="1.5" stroke-linecap="round" stroke-linejoin="round"/>
<path d="M18.2114 45.344C20.6477 45.344 22.6227 43.4624 22.6227 41.1414C22.6227 38.8203 20.6477 36.9387 18.2114 36.9387C15.775 36.9387 13.8 38.8203 13.8 41.1414C13.8 43.4624 15.775 45.344 18.2114 45.344Z" fill="#FFF255" stroke="#362F2D" stroke-width="1.5" stroke-linecap="round" stroke-linejoin="round"/>
<path d="M16.1521 34.5539C18.0364 34.5539 19.564 33.0985 19.564 31.3033C19.564 29.5081 18.0364 28.0527 16.1521 28.0527C14.2677 28.0527 12.7401 29.5081 12.7401 31.3033C12.7401 33.0985 14.2677 34.5539 16.1521 34.5539Z" fill="#FFF255" stroke="#362F2D" stroke-width="1.5" stroke-linecap="round" stroke-linejoin="round"/>
</svg>
