<svg width="311" height="49" viewBox="0 0 311 49" fill="none" xmlns="http://www.w3.org/2000/svg">
<mask id="path-1-outside-1_561_293" maskUnits="userSpaceOnUse" x="0" y="0" width="311" height="49" fill="black">
<rect fill="white" width="311" height="49"/>
<path d="M10.8473 42.432C9.56731 42.432 8.57531 42.08 7.87131 41.376C7.19931 40.672 6.86331 39.68 6.86331 38.4V11.76C6.86331 10.448 7.23131 9.456 7.96731 8.784C8.70331 8.08 9.74331 7.728 11.0873 7.728C12.2073 7.728 13.0873 7.952 13.7273 8.4C14.3993 8.816 15.0073 9.52 15.5513 10.512L25.8713 29.04H24.1913L34.4633 10.512C35.0393 9.52 35.6473 8.816 36.2873 8.4C36.9593 7.952 37.8553 7.728 38.9753 7.728C40.2553 7.728 41.2313 8.08 41.9033 8.784C42.6073 9.456 42.9593 10.448 42.9593 11.76V38.4C42.9593 39.68 42.6233 40.672 41.9513 41.376C41.2793 42.08 40.2873 42.432 38.9753 42.432C37.6953 42.432 36.7033 42.08 35.9993 41.376C35.3273 40.672 34.9913 39.68 34.9913 38.4V21.888H35.9993L28.2713 35.328C27.8233 36.032 27.3433 36.56 26.8313 36.912C26.3513 37.264 25.6953 37.44 24.8633 37.44C24.0633 37.44 23.4073 37.264 22.8953 36.912C22.3833 36.56 21.9193 36.032 21.5033 35.328L13.7273 21.84H14.8313V38.4C14.8313 39.68 14.4953 40.672 13.8233 41.376C13.1513 42.08 12.1593 42.432 10.8473 42.432ZM57.4452 42.528C55.3972 42.528 53.7172 42.16 52.4052 41.424C51.0932 40.656 50.1012 39.52 49.4292 38.016C48.7892 36.512 48.4692 34.608 48.4692 32.304V22.224C48.4692 20.816 48.8372 19.76 49.5732 19.056C50.3092 18.32 51.3652 17.952 52.7412 17.952C54.1172 17.952 55.1732 18.32 55.9092 19.056C56.6452 19.76 57.0132 20.816 57.0132 22.224V32.544C57.0132 33.696 57.2532 34.56 57.7332 35.136C58.2132 35.712 58.9652 36 59.9892 36C61.1412 36 62.0852 35.584 62.8212 34.752C63.5572 33.92 63.9252 32.816 63.9252 31.44V22.224C63.9252 20.816 64.2932 19.76 65.0292 19.056C65.7652 18.32 66.8212 17.952 68.1972 17.952C69.5732 17.952 70.6292 18.32 71.3652 19.056C72.1012 19.76 72.4692 20.816 72.4692 22.224V38.112C72.4692 40.992 71.0932 42.432 68.3412 42.432C66.9972 42.432 65.9572 42.064 65.2212 41.328C64.4852 40.592 64.1172 39.52 64.1172 38.112V35.328L64.8852 37.68C64.1812 39.248 63.1892 40.448 61.9092 41.28C60.6612 42.112 59.1732 42.528 57.4452 42.528ZM89.8253 42.528C87.4253 42.528 85.4413 42.16 83.8733 41.424C82.3373 40.688 81.1853 39.584 80.4173 38.112C79.6493 36.608 79.2653 34.736 79.2653 32.496V24.672H77.6333C76.6093 24.672 75.8093 24.4 75.2333 23.856C74.6893 23.312 74.4173 22.528 74.4173 21.504C74.4173 20.48 74.6893 19.712 75.2333 19.2C75.8093 18.656 76.6093 18.384 77.6333 18.384H79.2653V15.408C79.2653 14 79.6333 12.928 80.3693 12.192C81.1053 11.456 82.1613 11.088 83.5373 11.088C84.9133 11.088 85.9693 11.456 86.7053 12.192C87.4413 12.928 87.8093 14 87.8093 15.408V18.384H91.7453C92.8013 18.384 93.6013 18.656 94.1453 19.2C94.7213 19.712 95.0093 20.48 95.0093 21.504C95.0093 22.528 94.7213 23.312 94.1453 23.856C93.6013 24.4 92.8013 24.672 91.7453 24.672H87.8093V32.208C87.8093 33.392 88.0813 34.272 88.6253 34.848C89.2013 35.392 90.0973 35.664 91.3133 35.664C91.7613 35.664 92.1933 35.616 92.6093 35.52C93.0253 35.424 93.4093 35.376 93.7613 35.376C94.2733 35.344 94.6893 35.504 95.0093 35.856C95.3293 36.176 95.4893 36.928 95.4893 38.112C95.4893 39.072 95.3453 39.888 95.0573 40.56C94.7693 41.2 94.2573 41.664 93.5213 41.952C93.0733 42.112 92.4653 42.24 91.6973 42.336C90.9293 42.464 90.3053 42.528 89.8253 42.528ZM106.087 42.528C104.263 42.528 102.647 42.192 101.239 41.52C99.8628 40.848 98.7748 39.936 97.9748 38.784C97.2068 37.6 96.8228 36.256 96.8228 34.752C96.8228 33.024 97.2708 31.664 98.1668 30.672C99.0628 29.68 100.503 28.976 102.487 28.56C104.471 28.112 107.111 27.888 110.407 27.888H113.047V31.92H110.407C109.159 31.92 108.119 32.016 107.287 32.208C106.487 32.368 105.895 32.64 105.511 33.024C105.127 33.376 104.935 33.84 104.935 34.416C104.935 35.152 105.191 35.76 105.703 36.24C106.247 36.72 107.015 36.96 108.007 36.96C108.807 36.96 109.511 36.784 110.119 36.432C110.759 36.08 111.271 35.6 111.655 34.992C112.039 34.352 112.231 33.616 112.231 32.784V27.216C112.231 26.064 111.927 25.248 111.319 24.768C110.743 24.288 109.735 24.048 108.295 24.048C107.527 24.048 106.663 24.144 105.703 24.336C104.743 24.496 103.671 24.8 102.487 25.248C101.623 25.568 100.887 25.616 100.279 25.392C99.6708 25.168 99.1908 24.784 98.8388 24.24C98.5188 23.696 98.3588 23.104 98.3588 22.464C98.3908 21.824 98.5988 21.216 98.9828 20.64C99.3988 20.064 100.023 19.616 100.855 19.296C102.391 18.72 103.799 18.336 105.079 18.144C106.391 17.952 107.591 17.856 108.679 17.856C111.303 17.856 113.463 18.24 115.159 19.008C116.887 19.744 118.167 20.896 118.999 22.464C119.863 24 120.295 25.984 120.295 28.416V38.112C120.295 39.52 119.959 40.592 119.287 41.328C118.615 42.064 117.639 42.432 116.359 42.432C115.047 42.432 114.039 42.064 113.335 41.328C112.663 40.592 112.327 39.52 112.327 38.112V36.864L112.615 37.536C112.455 38.56 112.087 39.44 111.511 40.176C110.935 40.912 110.183 41.488 109.255 41.904C108.327 42.32 107.271 42.528 106.087 42.528ZM129.384 42.432C128.04 42.432 127 42.064 126.264 41.328C125.528 40.592 125.16 39.52 125.16 38.112V22.224C125.16 20.848 125.512 19.792 126.216 19.056C126.952 18.32 127.992 17.952 129.336 17.952C130.68 17.952 131.704 18.32 132.408 19.056C133.112 19.792 133.464 20.848 133.464 22.224V24.48L132.936 22.512C133.704 21.008 134.792 19.856 136.2 19.056C137.64 18.256 139.272 17.856 141.096 17.856C142.984 17.856 144.536 18.224 145.752 18.96C146.968 19.664 147.88 20.784 148.488 22.32C149.096 23.824 149.4 25.728 149.4 28.032V38.112C149.4 39.52 149.032 40.592 148.296 41.328C147.56 42.064 146.504 42.432 145.128 42.432C143.752 42.432 142.696 42.064 141.96 41.328C141.224 40.592 140.856 39.52 140.856 38.112V28.368C140.856 26.928 140.6 25.904 140.088 25.296C139.608 24.688 138.888 24.384 137.928 24.384C136.648 24.384 135.624 24.8 134.856 25.632C134.088 26.432 133.704 27.52 133.704 28.896V38.112C133.704 40.992 132.264 42.432 129.384 42.432ZM166.653 42.528C164.253 42.528 162.269 42.16 160.701 41.424C159.165 40.688 158.013 39.584 157.245 38.112C156.477 36.608 156.093 34.736 156.093 32.496V24.672H154.461C153.437 24.672 152.637 24.4 152.061 23.856C151.517 23.312 151.245 22.528 151.245 21.504C151.245 20.48 151.517 19.712 152.061 19.2C152.637 18.656 153.437 18.384 154.461 18.384H156.093V15.408C156.093 14 156.461 12.928 157.197 12.192C157.933 11.456 158.989 11.088 160.365 11.088C161.741 11.088 162.797 11.456 163.533 12.192C164.269 12.928 164.637 14 164.637 15.408V18.384H168.573C169.629 18.384 170.429 18.656 170.973 19.2C171.549 19.712 171.837 20.48 171.837 21.504C171.837 22.528 171.549 23.312 170.973 23.856C170.429 24.4 169.629 24.672 168.573 24.672H164.637V32.208C164.637 33.392 164.909 34.272 165.453 34.848C166.029 35.392 166.925 35.664 168.141 35.664C168.589 35.664 169.021 35.616 169.437 35.52C169.853 35.424 170.237 35.376 170.589 35.376C171.101 35.344 171.517 35.504 171.837 35.856C172.157 36.176 172.317 36.928 172.317 38.112C172.317 39.072 172.173 39.888 171.885 40.56C171.597 41.2 171.085 41.664 170.349 41.952C169.901 42.112 169.293 42.24 168.525 42.336C167.757 42.464 167.133 42.528 166.653 42.528ZM186.425 42.528C183.801 42.528 181.513 42.032 179.561 41.04C177.609 40.048 176.089 38.624 175.001 36.768C173.913 34.912 173.369 32.72 173.369 30.192C173.369 28.272 173.673 26.56 174.281 25.056C174.889 23.52 175.769 22.224 176.921 21.168C178.073 20.08 179.449 19.264 181.049 18.72C182.649 18.144 184.441 17.856 186.425 17.856C189.049 17.856 191.337 18.352 193.289 19.344C195.241 20.336 196.745 21.76 197.801 23.616C198.889 25.44 199.433 27.632 199.433 30.192C199.433 32.08 199.129 33.792 198.521 35.328C197.913 36.864 197.033 38.176 195.881 39.264C194.761 40.32 193.385 41.136 191.753 41.712C190.153 42.256 188.377 42.528 186.425 42.528ZM186.425 36.24C187.289 36.24 188.057 36.032 188.729 35.616C189.401 35.168 189.913 34.512 190.265 33.648C190.649 32.752 190.841 31.6 190.841 30.192C190.841 28.048 190.425 26.512 189.593 25.584C188.761 24.624 187.705 24.144 186.425 24.144C185.561 24.144 184.793 24.352 184.121 24.768C183.449 25.184 182.921 25.84 182.537 26.736C182.153 27.6 181.961 28.752 181.961 30.192C181.961 32.304 182.377 33.84 183.209 34.8C184.041 35.76 185.113 36.24 186.425 36.24ZM207.716 42.432C206.308 42.432 205.22 42.064 204.452 41.328C203.716 40.592 203.348 39.52 203.348 38.112V22.224C203.348 20.848 203.7 19.792 204.404 19.056C205.14 18.32 206.18 17.952 207.524 17.952C208.868 17.952 209.892 18.32 210.596 19.056C211.3 19.792 211.652 20.848 211.652 22.224V24.192H211.172C211.492 22.272 212.308 20.752 213.62 19.632C214.964 18.512 216.628 17.92 218.612 17.856C219.54 17.824 220.228 18.064 220.676 18.576C221.156 19.056 221.412 19.968 221.444 21.312C221.444 22.464 221.204 23.376 220.724 24.048C220.244 24.72 219.332 25.12 217.988 25.248L216.884 25.344C215.188 25.504 213.956 25.984 213.188 26.784C212.42 27.552 212.036 28.704 212.036 30.24V38.112C212.036 39.52 211.668 40.592 210.932 41.328C210.196 42.064 209.124 42.432 207.716 42.432ZM228.384 42.432C227.04 42.432 226 42.032 225.264 41.232C224.528 40.432 224.16 39.28 224.16 37.776V22.608C224.16 21.104 224.528 19.952 225.264 19.152C226 18.352 227.04 17.952 228.384 17.952C229.76 17.952 230.816 18.352 231.552 19.152C232.32 19.952 232.704 21.104 232.704 22.608V37.776C232.704 39.28 232.336 40.432 231.6 41.232C230.864 42.032 229.792 42.432 228.384 42.432ZM228.384 14.544C226.88 14.544 225.712 14.192 224.88 13.488C224.08 12.784 223.68 11.76 223.68 10.416C223.68 9.104 224.08 8.096 224.88 7.392C225.712 6.688 226.88 6.336 228.384 6.336C229.952 6.336 231.136 6.688 231.936 7.392C232.736 8.096 233.136 9.104 233.136 10.416C233.136 11.76 232.736 12.784 231.936 13.488C231.136 14.192 229.952 14.544 228.384 14.544ZM246.492 42.528C244.444 42.528 242.764 42.16 241.452 41.424C240.14 40.656 239.148 39.52 238.476 38.016C237.836 36.512 237.516 34.608 237.516 32.304V22.224C237.516 20.816 237.884 19.76 238.62 19.056C239.356 18.32 240.412 17.952 241.788 17.952C243.164 17.952 244.22 18.32 244.956 19.056C245.692 19.76 246.06 20.816 246.06 22.224V32.544C246.06 33.696 246.3 34.56 246.78 35.136C247.26 35.712 248.012 36 249.036 36C250.188 36 251.132 35.584 251.868 34.752C252.604 33.92 252.972 32.816 252.972 31.44V22.224C252.972 20.816 253.34 19.76 254.076 19.056C254.812 18.32 255.868 17.952 257.244 17.952C258.62 17.952 259.676 18.32 260.412 19.056C261.148 19.76 261.516 20.816 261.516 22.224V38.112C261.516 40.992 260.14 42.432 257.388 42.432C256.044 42.432 255.004 42.064 254.268 41.328C253.532 40.592 253.164 39.52 253.164 38.112V35.328L253.932 37.68C253.228 39.248 252.236 40.448 250.956 41.28C249.708 42.112 248.22 42.528 246.492 42.528ZM270.808 42.432C269.464 42.432 268.424 42.064 267.688 41.328C266.952 40.592 266.584 39.52 266.584 38.112V22.224C266.584 20.848 266.936 19.792 267.64 19.056C268.376 18.32 269.416 17.952 270.76 17.952C272.104 17.952 273.128 18.32 273.832 19.056C274.536 19.792 274.888 20.848 274.888 22.224V24.864L274.36 22.512C275.032 21.104 276.024 19.984 277.336 19.152C278.68 18.288 280.264 17.856 282.088 17.856C283.816 17.856 285.288 18.272 286.504 19.104C287.752 19.936 288.648 21.2 289.192 22.896H288.52C289.256 21.328 290.36 20.096 291.832 19.2C293.304 18.304 294.936 17.856 296.728 17.856C298.584 17.856 300.104 18.224 301.288 18.96C302.472 19.664 303.352 20.784 303.928 22.32C304.536 23.824 304.84 25.728 304.84 28.032V38.112C304.84 39.52 304.456 40.592 303.688 41.328C302.952 42.064 301.896 42.432 300.52 42.432C299.176 42.432 298.136 42.064 297.4 41.328C296.664 40.592 296.296 39.52 296.296 38.112V28.272C296.296 26.896 296.088 25.904 295.672 25.296C295.256 24.688 294.568 24.384 293.608 24.384C292.424 24.384 291.512 24.8 290.872 25.632C290.264 26.464 289.96 27.648 289.96 29.184V38.112C289.96 39.52 289.592 40.592 288.856 41.328C288.12 42.064 287.064 42.432 285.688 42.432C284.312 42.432 283.256 42.064 282.52 41.328C281.784 40.592 281.416 39.52 281.416 38.112V28.272C281.416 26.896 281.208 25.904 280.792 25.296C280.376 24.688 279.688 24.384 278.728 24.384C277.576 24.384 276.68 24.8 276.04 25.632C275.432 26.464 275.128 27.648 275.128 29.184V38.112C275.128 40.992 273.688 42.432 270.808 42.432Z"/>
</mask>
<path d="M10.8473 42.432C9.56731 42.432 8.57531 42.08 7.87131 41.376C7.19931 40.672 6.86331 39.68 6.86331 38.4V11.76C6.86331 10.448 7.23131 9.456 7.96731 8.784C8.70331 8.08 9.74331 7.728 11.0873 7.728C12.2073 7.728 13.0873 7.952 13.7273 8.4C14.3993 8.816 15.0073 9.52 15.5513 10.512L25.8713 29.04H24.1913L34.4633 10.512C35.0393 9.52 35.6473 8.816 36.2873 8.4C36.9593 7.952 37.8553 7.728 38.9753 7.728C40.2553 7.728 41.2313 8.08 41.9033 8.784C42.6073 9.456 42.9593 10.448 42.9593 11.76V38.4C42.9593 39.68 42.6233 40.672 41.9513 41.376C41.2793 42.08 40.2873 42.432 38.9753 42.432C37.6953 42.432 36.7033 42.08 35.9993 41.376C35.3273 40.672 34.9913 39.68 34.9913 38.4V21.888H35.9993L28.2713 35.328C27.8233 36.032 27.3433 36.56 26.8313 36.912C26.3513 37.264 25.6953 37.44 24.8633 37.44C24.0633 37.44 23.4073 37.264 22.8953 36.912C22.3833 36.56 21.9193 36.032 21.5033 35.328L13.7273 21.84H14.8313V38.4C14.8313 39.68 14.4953 40.672 13.8233 41.376C13.1513 42.08 12.1593 42.432 10.8473 42.432ZM57.4452 42.528C55.3972 42.528 53.7172 42.16 52.4052 41.424C51.0932 40.656 50.1012 39.52 49.4292 38.016C48.7892 36.512 48.4692 34.608 48.4692 32.304V22.224C48.4692 20.816 48.8372 19.76 49.5732 19.056C50.3092 18.32 51.3652 17.952 52.7412 17.952C54.1172 17.952 55.1732 18.32 55.9092 19.056C56.6452 19.76 57.0132 20.816 57.0132 22.224V32.544C57.0132 33.696 57.2532 34.56 57.7332 35.136C58.2132 35.712 58.9652 36 59.9892 36C61.1412 36 62.0852 35.584 62.8212 34.752C63.5572 33.92 63.9252 32.816 63.9252 31.44V22.224C63.9252 20.816 64.2932 19.76 65.0292 19.056C65.7652 18.32 66.8212 17.952 68.1972 17.952C69.5732 17.952 70.6292 18.32 71.3652 19.056C72.1012 19.76 72.4692 20.816 72.4692 22.224V38.112C72.4692 40.992 71.0932 42.432 68.3412 42.432C66.9972 42.432 65.9572 42.064 65.2212 41.328C64.4852 40.592 64.1172 39.52 64.1172 38.112V35.328L64.8852 37.68C64.1812 39.248 63.1892 40.448 61.9092 41.28C60.6612 42.112 59.1732 42.528 57.4452 42.528ZM89.8253 42.528C87.4253 42.528 85.4413 42.16 83.8733 41.424C82.3373 40.688 81.1853 39.584 80.4173 38.112C79.6493 36.608 79.2653 34.736 79.2653 32.496V24.672H77.6333C76.6093 24.672 75.8093 24.4 75.2333 23.856C74.6893 23.312 74.4173 22.528 74.4173 21.504C74.4173 20.48 74.6893 19.712 75.2333 19.2C75.8093 18.656 76.6093 18.384 77.6333 18.384H79.2653V15.408C79.2653 14 79.6333 12.928 80.3693 12.192C81.1053 11.456 82.1613 11.088 83.5373 11.088C84.9133 11.088 85.9693 11.456 86.7053 12.192C87.4413 12.928 87.8093 14 87.8093 15.408V18.384H91.7453C92.8013 18.384 93.6013 18.656 94.1453 19.2C94.7213 19.712 95.0093 20.48 95.0093 21.504C95.0093 22.528 94.7213 23.312 94.1453 23.856C93.6013 24.4 92.8013 24.672 91.7453 24.672H87.8093V32.208C87.8093 33.392 88.0813 34.272 88.6253 34.848C89.2013 35.392 90.0973 35.664 91.3133 35.664C91.7613 35.664 92.1933 35.616 92.6093 35.52C93.0253 35.424 93.4093 35.376 93.7613 35.376C94.2733 35.344 94.6893 35.504 95.0093 35.856C95.3293 36.176 95.4893 36.928 95.4893 38.112C95.4893 39.072 95.3453 39.888 95.0573 40.56C94.7693 41.2 94.2573 41.664 93.5213 41.952C93.0733 42.112 92.4653 42.24 91.6973 42.336C90.9293 42.464 90.3053 42.528 89.8253 42.528ZM106.087 42.528C104.263 42.528 102.647 42.192 101.239 41.52C99.8628 40.848 98.7748 39.936 97.9748 38.784C97.2068 37.6 96.8228 36.256 96.8228 34.752C96.8228 33.024 97.2708 31.664 98.1668 30.672C99.0628 29.68 100.503 28.976 102.487 28.56C104.471 28.112 107.111 27.888 110.407 27.888H113.047V31.92H110.407C109.159 31.92 108.119 32.016 107.287 32.208C106.487 32.368 105.895 32.64 105.511 33.024C105.127 33.376 104.935 33.84 104.935 34.416C104.935 35.152 105.191 35.76 105.703 36.24C106.247 36.72 107.015 36.96 108.007 36.96C108.807 36.96 109.511 36.784 110.119 36.432C110.759 36.08 111.271 35.6 111.655 34.992C112.039 34.352 112.231 33.616 112.231 32.784V27.216C112.231 26.064 111.927 25.248 111.319 24.768C110.743 24.288 109.735 24.048 108.295 24.048C107.527 24.048 106.663 24.144 105.703 24.336C104.743 24.496 103.671 24.8 102.487 25.248C101.623 25.568 100.887 25.616 100.279 25.392C99.6708 25.168 99.1908 24.784 98.8388 24.24C98.5188 23.696 98.3588 23.104 98.3588 22.464C98.3908 21.824 98.5988 21.216 98.9828 20.64C99.3988 20.064 100.023 19.616 100.855 19.296C102.391 18.72 103.799 18.336 105.079 18.144C106.391 17.952 107.591 17.856 108.679 17.856C111.303 17.856 113.463 18.24 115.159 19.008C116.887 19.744 118.167 20.896 118.999 22.464C119.863 24 120.295 25.984 120.295 28.416V38.112C120.295 39.52 119.959 40.592 119.287 41.328C118.615 42.064 117.639 42.432 116.359 42.432C115.047 42.432 114.039 42.064 113.335 41.328C112.663 40.592 112.327 39.52 112.327 38.112V36.864L112.615 37.536C112.455 38.56 112.087 39.44 111.511 40.176C110.935 40.912 110.183 41.488 109.255 41.904C108.327 42.32 107.271 42.528 106.087 42.528ZM129.384 42.432C128.04 42.432 127 42.064 126.264 41.328C125.528 40.592 125.16 39.52 125.16 38.112V22.224C125.16 20.848 125.512 19.792 126.216 19.056C126.952 18.32 127.992 17.952 129.336 17.952C130.68 17.952 131.704 18.32 132.408 19.056C133.112 19.792 133.464 20.848 133.464 22.224V24.48L132.936 22.512C133.704 21.008 134.792 19.856 136.2 19.056C137.64 18.256 139.272 17.856 141.096 17.856C142.984 17.856 144.536 18.224 145.752 18.96C146.968 19.664 147.88 20.784 148.488 22.32C149.096 23.824 149.4 25.728 149.4 28.032V38.112C149.4 39.52 149.032 40.592 148.296 41.328C147.56 42.064 146.504 42.432 145.128 42.432C143.752 42.432 142.696 42.064 141.96 41.328C141.224 40.592 140.856 39.52 140.856 38.112V28.368C140.856 26.928 140.6 25.904 140.088 25.296C139.608 24.688 138.888 24.384 137.928 24.384C136.648 24.384 135.624 24.8 134.856 25.632C134.088 26.432 133.704 27.52 133.704 28.896V38.112C133.704 40.992 132.264 42.432 129.384 42.432ZM166.653 42.528C164.253 42.528 162.269 42.16 160.701 41.424C159.165 40.688 158.013 39.584 157.245 38.112C156.477 36.608 156.093 34.736 156.093 32.496V24.672H154.461C153.437 24.672 152.637 24.4 152.061 23.856C151.517 23.312 151.245 22.528 151.245 21.504C151.245 20.48 151.517 19.712 152.061 19.2C152.637 18.656 153.437 18.384 154.461 18.384H156.093V15.408C156.093 14 156.461 12.928 157.197 12.192C157.933 11.456 158.989 11.088 160.365 11.088C161.741 11.088 162.797 11.456 163.533 12.192C164.269 12.928 164.637 14 164.637 15.408V18.384H168.573C169.629 18.384 170.429 18.656 170.973 19.2C171.549 19.712 171.837 20.48 171.837 21.504C171.837 22.528 171.549 23.312 170.973 23.856C170.429 24.4 169.629 24.672 168.573 24.672H164.637V32.208C164.637 33.392 164.909 34.272 165.453 34.848C166.029 35.392 166.925 35.664 168.141 35.664C168.589 35.664 169.021 35.616 169.437 35.52C169.853 35.424 170.237 35.376 170.589 35.376C171.101 35.344 171.517 35.504 171.837 35.856C172.157 36.176 172.317 36.928 172.317 38.112C172.317 39.072 172.173 39.888 171.885 40.56C171.597 41.2 171.085 41.664 170.349 41.952C169.901 42.112 169.293 42.24 168.525 42.336C167.757 42.464 167.133 42.528 166.653 42.528ZM186.425 42.528C183.801 42.528 181.513 42.032 179.561 41.04C177.609 40.048 176.089 38.624 175.001 36.768C173.913 34.912 173.369 32.72 173.369 30.192C173.369 28.272 173.673 26.56 174.281 25.056C174.889 23.52 175.769 22.224 176.921 21.168C178.073 20.08 179.449 19.264 181.049 18.72C182.649 18.144 184.441 17.856 186.425 17.856C189.049 17.856 191.337 18.352 193.289 19.344C195.241 20.336 196.745 21.76 197.801 23.616C198.889 25.44 199.433 27.632 199.433 30.192C199.433 32.08 199.129 33.792 198.521 35.328C197.913 36.864 197.033 38.176 195.881 39.264C194.761 40.32 193.385 41.136 191.753 41.712C190.153 42.256 188.377 42.528 186.425 42.528ZM186.425 36.24C187.289 36.24 188.057 36.032 188.729 35.616C189.401 35.168 189.913 34.512 190.265 33.648C190.649 32.752 190.841 31.6 190.841 30.192C190.841 28.048 190.425 26.512 189.593 25.584C188.761 24.624 187.705 24.144 186.425 24.144C185.561 24.144 184.793 24.352 184.121 24.768C183.449 25.184 182.921 25.84 182.537 26.736C182.153 27.6 181.961 28.752 181.961 30.192C181.961 32.304 182.377 33.84 183.209 34.8C184.041 35.76 185.113 36.24 186.425 36.24ZM207.716 42.432C206.308 42.432 205.22 42.064 204.452 41.328C203.716 40.592 203.348 39.52 203.348 38.112V22.224C203.348 20.848 203.7 19.792 204.404 19.056C205.14 18.32 206.18 17.952 207.524 17.952C208.868 17.952 209.892 18.32 210.596 19.056C211.3 19.792 211.652 20.848 211.652 22.224V24.192H211.172C211.492 22.272 212.308 20.752 213.62 19.632C214.964 18.512 216.628 17.92 218.612 17.856C219.54 17.824 220.228 18.064 220.676 18.576C221.156 19.056 221.412 19.968 221.444 21.312C221.444 22.464 221.204 23.376 220.724 24.048C220.244 24.72 219.332 25.12 217.988 25.248L216.884 25.344C215.188 25.504 213.956 25.984 213.188 26.784C212.42 27.552 212.036 28.704 212.036 30.24V38.112C212.036 39.52 211.668 40.592 210.932 41.328C210.196 42.064 209.124 42.432 207.716 42.432ZM228.384 42.432C227.04 42.432 226 42.032 225.264 41.232C224.528 40.432 224.16 39.28 224.16 37.776V22.608C224.16 21.104 224.528 19.952 225.264 19.152C226 18.352 227.04 17.952 228.384 17.952C229.76 17.952 230.816 18.352 231.552 19.152C232.32 19.952 232.704 21.104 232.704 22.608V37.776C232.704 39.28 232.336 40.432 231.6 41.232C230.864 42.032 229.792 42.432 228.384 42.432ZM228.384 14.544C226.88 14.544 225.712 14.192 224.88 13.488C224.08 12.784 223.68 11.76 223.68 10.416C223.68 9.104 224.08 8.096 224.88 7.392C225.712 6.688 226.88 6.336 228.384 6.336C229.952 6.336 231.136 6.688 231.936 7.392C232.736 8.096 233.136 9.104 233.136 10.416C233.136 11.76 232.736 12.784 231.936 13.488C231.136 14.192 229.952 14.544 228.384 14.544ZM246.492 42.528C244.444 42.528 242.764 42.16 241.452 41.424C240.14 40.656 239.148 39.52 238.476 38.016C237.836 36.512 237.516 34.608 237.516 32.304V22.224C237.516 20.816 237.884 19.76 238.62 19.056C239.356 18.32 240.412 17.952 241.788 17.952C243.164 17.952 244.22 18.32 244.956 19.056C245.692 19.76 246.06 20.816 246.06 22.224V32.544C246.06 33.696 246.3 34.56 246.78 35.136C247.26 35.712 248.012 36 249.036 36C250.188 36 251.132 35.584 251.868 34.752C252.604 33.92 252.972 32.816 252.972 31.44V22.224C252.972 20.816 253.34 19.76 254.076 19.056C254.812 18.32 255.868 17.952 257.244 17.952C258.62 17.952 259.676 18.32 260.412 19.056C261.148 19.76 261.516 20.816 261.516 22.224V38.112C261.516 40.992 260.14 42.432 257.388 42.432C256.044 42.432 255.004 42.064 254.268 41.328C253.532 40.592 253.164 39.52 253.164 38.112V35.328L253.932 37.68C253.228 39.248 252.236 40.448 250.956 41.28C249.708 42.112 248.22 42.528 246.492 42.528ZM270.808 42.432C269.464 42.432 268.424 42.064 267.688 41.328C266.952 40.592 266.584 39.52 266.584 38.112V22.224C266.584 20.848 266.936 19.792 267.64 19.056C268.376 18.32 269.416 17.952 270.76 17.952C272.104 17.952 273.128 18.32 273.832 19.056C274.536 19.792 274.888 20.848 274.888 22.224V24.864L274.36 22.512C275.032 21.104 276.024 19.984 277.336 19.152C278.68 18.288 280.264 17.856 282.088 17.856C283.816 17.856 285.288 18.272 286.504 19.104C287.752 19.936 288.648 21.2 289.192 22.896H288.52C289.256 21.328 290.36 20.096 291.832 19.2C293.304 18.304 294.936 17.856 296.728 17.856C298.584 17.856 300.104 18.224 301.288 18.96C302.472 19.664 303.352 20.784 303.928 22.32C304.536 23.824 304.84 25.728 304.84 28.032V38.112C304.84 39.52 304.456 40.592 303.688 41.328C302.952 42.064 301.896 42.432 300.52 42.432C299.176 42.432 298.136 42.064 297.4 41.328C296.664 40.592 296.296 39.52 296.296 38.112V28.272C296.296 26.896 296.088 25.904 295.672 25.296C295.256 24.688 294.568 24.384 293.608 24.384C292.424 24.384 291.512 24.8 290.872 25.632C290.264 26.464 289.96 27.648 289.96 29.184V38.112C289.96 39.52 289.592 40.592 288.856 41.328C288.12 42.064 287.064 42.432 285.688 42.432C284.312 42.432 283.256 42.064 282.52 41.328C281.784 40.592 281.416 39.52 281.416 38.112V28.272C281.416 26.896 281.208 25.904 280.792 25.296C280.376 24.688 279.688 24.384 278.728 24.384C277.576 24.384 276.68 24.8 276.04 25.632C275.432 26.464 275.128 27.648 275.128 29.184V38.112C275.128 40.992 273.688 42.432 270.808 42.432Z" fill="#D2FF49"/>
<path d="M7.87131 41.376L3.53118 45.5189C3.56329 45.5525 3.59579 45.5858 3.62867 45.6186L7.87131 41.376ZM7.96731 8.784L12.0129 13.2149C12.0472 13.1836 12.0811 13.1519 12.1147 13.1198L7.96731 8.784ZM13.7273 8.4L10.2865 13.3154C10.379 13.3801 10.4732 13.4422 10.5692 13.5016L13.7273 8.4ZM15.5513 10.512L10.2904 13.397C10.2968 13.4086 10.3032 13.4201 10.3096 13.4316L15.5513 10.512ZM25.8713 29.04V35.04C27.9984 35.04 29.9665 33.9138 31.0442 32.0799C32.1219 30.246 32.1481 27.9787 31.1131 26.1204L25.8713 29.04ZM24.1913 29.04L18.9438 26.1308C17.9135 27.9892 17.943 30.2541 19.0214 32.085C20.0999 33.916 22.0663 35.04 24.1913 35.04V29.04ZM34.4633 10.512L29.2746 7.49919C29.2546 7.53352 29.2351 7.56804 29.2158 7.60276L34.4633 10.512ZM36.2873 8.4L39.5573 13.4307C39.5767 13.418 39.5962 13.4052 39.6155 13.3923L36.2873 8.4ZM41.9033 8.784L37.5632 12.9269C37.6274 12.9941 37.6932 13.0599 37.7605 13.1241L41.9033 8.784ZM41.9513 41.376L46.2914 45.5189L46.2915 45.5189L41.9513 41.376ZM35.9993 41.376L31.6592 45.5189C31.6913 45.5525 31.7238 45.5858 31.7567 45.6186L35.9993 41.376ZM34.9913 21.888V15.888C31.6776 15.888 28.9913 18.5743 28.9913 21.888H34.9913ZM35.9993 21.888L41.2008 24.8788C42.2683 23.0222 42.2653 20.7372 41.1928 18.8834C40.1203 17.0296 38.141 15.888 35.9993 15.888V21.888ZM28.2713 35.328L33.3333 38.5493C33.3815 38.4735 33.428 38.3967 33.4727 38.3188L28.2713 35.328ZM26.8313 36.912L23.4321 31.9677C23.3819 32.0023 23.3323 32.0375 23.2831 32.0736L26.8313 36.912ZM21.5033 35.328L16.3053 38.3247C16.316 38.3433 16.3268 38.3619 16.3378 38.3804L21.5033 35.328ZM13.7273 21.84V15.84C11.5844 15.84 9.60415 16.9829 8.5321 18.8384C7.46006 20.6939 7.45898 22.9802 8.52927 24.8367L13.7273 21.84ZM14.8313 21.84H20.8313C20.8313 18.5263 18.145 15.84 14.8313 15.84V21.84ZM13.8233 41.376L9.48318 37.2331L13.8233 41.376ZM10.8473 42.432V36.432C10.7481 36.432 10.8794 36.4175 11.1498 36.5134C11.4456 36.6184 11.7989 36.8183 12.114 37.1334L7.87131 41.376L3.62867 45.6186C5.75466 47.7446 8.45162 48.432 10.8473 48.432V42.432ZM7.87131 41.376L12.2114 37.2331C12.5244 37.561 12.7073 37.9109 12.7982 38.1792C12.8809 38.4233 12.8633 38.5256 12.8633 38.4H6.86331H0.863312C0.863312 40.7217 1.49171 43.3823 3.53118 45.5189L7.87131 41.376ZM6.86331 38.4H12.8633V11.76H6.86331H0.863312V38.4H6.86331ZM6.86331 11.76H12.8633C12.8633 11.6517 12.8799 11.8083 12.7647 12.1188C12.6374 12.4621 12.3941 12.8669 12.0129 13.2149L7.96731 8.784L3.92169 4.35309C1.57879 6.49226 0.863312 9.3238 0.863312 11.76H6.86331ZM7.96731 8.784L12.1147 13.1198C11.8004 13.4205 11.4678 13.5924 11.2229 13.6753C11.0023 13.75 10.9282 13.728 11.0873 13.728V7.728V1.728C8.70676 1.728 5.99276 2.36983 3.81998 4.44815L7.96731 8.784ZM11.0873 7.728V13.728C11.2592 13.728 11.2479 13.7464 11.1072 13.7106C10.9569 13.6723 10.6484 13.5687 10.2865 13.3154L13.7273 8.4L17.1681 3.48461C15.1685 2.08491 12.9261 1.728 11.0873 1.728V7.728ZM13.7273 8.4L10.5692 13.5016C10.3048 13.3379 10.1721 13.1916 10.1464 13.1617C10.123 13.1346 10.1794 13.1946 10.2904 13.397L15.5513 10.512L20.8122 7.627C19.9724 6.09563 18.7371 4.44465 16.8854 3.29841L13.7273 8.4ZM15.5513 10.512L10.3096 13.4316L20.6296 31.9596L25.8713 29.04L31.1131 26.1204L20.793 7.59238L15.5513 10.512ZM25.8713 29.04V23.04H24.1913V29.04V35.04H25.8713V29.04ZM24.1913 29.04L29.4388 31.9492L39.7108 13.4212L34.4633 10.512L29.2158 7.60276L18.9438 26.1308L24.1913 29.04ZM34.4633 10.512L39.652 13.5248C39.7212 13.4057 39.7782 13.318 39.8211 13.2565C39.8641 13.1949 39.8887 13.1658 39.8923 13.1617C39.8959 13.1575 39.8731 13.1845 39.8208 13.2314C39.7682 13.2787 39.6813 13.35 39.5573 13.4307L36.2873 8.4L33.0174 3.36934C31.2914 4.4912 30.1056 6.06804 29.2746 7.49919L34.4633 10.512ZM36.2873 8.4L39.6155 13.3923C39.3036 13.6003 39.0433 13.6857 38.9185 13.7169C38.8025 13.7459 38.8059 13.728 38.9753 13.728V7.728V1.728C37.1135 1.728 34.9299 2.09382 32.9591 3.40769L36.2873 8.4ZM38.9753 7.728V13.728C39.0776 13.728 38.929 13.7433 38.6317 13.6361C38.3048 13.5182 37.9108 13.291 37.5632 12.9269L41.9033 8.784L46.2434 4.64114C44.1136 2.4099 41.3545 1.728 38.9753 1.728V7.728ZM41.9033 8.784L37.7605 13.1241C37.3784 12.7594 37.1528 12.3543 37.0407 12.0385C36.9397 11.7537 36.9593 11.6259 36.9593 11.76H42.9593H48.9593C48.9593 9.39993 48.3052 6.60023 46.0462 4.44387L41.9033 8.784ZM42.9593 11.76H36.9593V38.4H42.9593H48.9593V11.76H42.9593ZM42.9593 38.4H36.9593C36.9593 38.5256 36.9417 38.4233 37.0244 38.1792C37.1153 37.9109 37.2982 37.561 37.6112 37.2332L41.9513 41.376L46.2915 45.5189C48.3309 43.3823 48.9593 40.7217 48.9593 38.4H42.9593ZM41.9513 41.376L37.6112 37.2331C37.9759 36.851 38.3811 36.6255 38.6969 36.5134C38.9817 36.4124 39.1094 36.432 38.9753 36.432V42.432V48.432C41.3354 48.432 44.1351 47.7779 46.2914 45.5189L41.9513 41.376ZM38.9753 42.432V36.432C38.8761 36.432 39.0074 36.4175 39.2778 36.5134C39.5736 36.6184 39.9269 36.8183 40.242 37.1334L35.9993 41.376L31.7567 45.6186C33.8827 47.7446 36.5796 48.432 38.9753 48.432V42.432ZM35.9993 41.376L40.3394 37.2331C40.6524 37.561 40.8353 37.9109 40.9262 38.1792C41.0089 38.4233 40.9913 38.5256 40.9913 38.4H34.9913H28.9913C28.9913 40.7217 29.6197 43.3823 31.6592 45.5189L35.9993 41.376ZM34.9913 38.4H40.9913V21.888H34.9913H28.9913V38.4H34.9913ZM34.9913 21.888V27.888H35.9993V21.888V15.888H34.9913V21.888ZM35.9993 21.888L30.7979 18.8972L23.0699 32.3372L28.2713 35.328L33.4727 38.3188L41.2008 24.8788L35.9993 21.888ZM28.2713 35.328L23.2093 32.1067C23.1392 32.217 23.1106 32.2435 23.1357 32.216C23.1615 32.1875 23.2562 32.0887 23.4321 31.9677L26.8313 36.912L30.2305 41.8563C31.5927 40.9197 32.5926 39.7132 33.3333 38.5493L28.2713 35.328ZM26.8313 36.912L23.2831 32.0736C23.721 31.7525 24.1348 31.5907 24.4245 31.5129C24.5664 31.4749 24.6776 31.4571 24.7495 31.4485C24.8214 31.44 24.8612 31.44 24.8633 31.44V37.44V43.44C26.4772 43.44 28.5328 43.1047 30.3795 41.7504L26.8313 36.912ZM24.8633 37.44V31.44C24.9297 31.44 25.5539 31.4586 26.2945 31.9677L22.8953 36.912L19.4961 41.8563C21.2607 43.0694 23.1969 43.44 24.8633 43.44V37.44ZM22.8953 36.912L26.2945 31.9677C26.4963 32.1065 26.6171 32.2308 26.6703 32.2913C26.7219 32.35 26.7163 32.3559 26.6689 32.2756L21.5033 35.328L16.3378 38.3804C17.0637 39.609 18.0752 40.8793 19.4961 41.8563L22.8953 36.912ZM21.5033 35.328L26.7014 32.3313L18.9254 18.8433L13.7273 21.84L8.52927 24.8367L16.3053 38.3247L21.5033 35.328ZM13.7273 21.84V27.84H14.8313V21.84V15.84H13.7273V21.84ZM14.8313 21.84H8.83131V38.4H14.8313H20.8313V21.84H14.8313ZM14.8313 38.4H8.83131C8.83131 38.5256 8.81375 38.4233 8.89645 38.1792C8.98729 37.9109 9.17022 37.561 9.48318 37.2331L13.8233 41.376L18.1634 45.5189C20.2029 43.3823 20.8313 40.7217 20.8313 38.4H14.8313ZM13.8233 41.376L9.48318 37.2331C9.84791 36.851 10.2531 36.6255 10.5689 36.5134C10.8536 36.4124 10.9814 36.432 10.8473 36.432V42.432V48.432C13.2074 48.432 16.0071 47.7779 18.1634 45.5189L13.8233 41.376ZM52.4052 41.424L49.3741 46.6021C49.4058 46.6206 49.4377 46.6389 49.4697 46.6569L52.4052 41.424ZM49.4292 38.016L43.9083 40.3653C43.9223 40.3982 43.9366 40.431 43.9511 40.4636L49.4292 38.016ZM49.5732 19.056L53.7205 23.3919C53.7526 23.3611 53.7844 23.3301 53.8158 23.2986L49.5732 19.056ZM55.9092 19.056L51.6665 23.2986C51.698 23.3301 51.7297 23.3611 51.7619 23.3919L55.9092 19.056ZM57.7332 35.136L62.3425 31.2949H62.3425L57.7332 35.136ZM62.8212 34.752L58.3272 30.7766V30.7766L62.8212 34.752ZM65.0292 19.056L69.1765 23.3919C69.2086 23.3611 69.2404 23.3301 69.2718 23.2986L65.0292 19.056ZM71.3652 19.056L67.1225 23.2986C67.154 23.3301 67.1857 23.3611 67.2179 23.3919L71.3652 19.056ZM65.2212 41.328L69.4638 37.0854L65.2212 41.328ZM64.1172 35.328L69.8208 33.4656C68.9052 30.6616 66.0873 28.939 63.1743 29.4026C60.2612 29.8661 58.1172 32.3783 58.1172 35.328H64.1172ZM64.8852 37.68L70.3588 40.1375C70.97 38.7763 71.052 37.2361 70.5888 35.8176L64.8852 37.68ZM61.9092 41.28L58.6393 36.2493C58.6198 36.262 58.6003 36.2748 58.581 36.2877L61.9092 41.28ZM57.4452 42.528V36.528C56.0695 36.528 55.4899 36.2749 55.3407 36.1911L52.4052 41.424L49.4697 46.6569C51.9445 48.0451 54.7248 48.528 57.4452 48.528V42.528ZM52.4052 41.424L55.4363 36.2459C55.2963 36.164 55.1135 36.0299 54.9072 35.5684L49.4292 38.016L43.9511 40.4636C45.0889 43.0101 46.8901 45.148 49.3741 46.6021L52.4052 41.424ZM49.4292 38.016L54.9501 35.6667C54.7276 35.1437 54.4692 34.1075 54.4692 32.304H48.4692H42.4692C42.4692 35.1085 42.8508 37.8803 43.9083 40.3653L49.4292 38.016ZM48.4692 32.304H54.4692V22.224H48.4692H42.4692V32.304H48.4692ZM48.4692 22.224H54.4692C54.4692 22.0257 54.4971 22.1035 54.411 22.3505C54.3139 22.6292 54.1036 23.0255 53.7205 23.3919L49.5732 19.056L45.4258 14.7201C43.1108 16.9346 42.4692 19.8215 42.4692 22.224H48.4692ZM49.5732 19.056L53.8158 23.2986C53.4978 23.6166 53.1525 23.8029 52.8916 23.8938C52.6578 23.9753 52.5762 23.952 52.7412 23.952V17.952V11.952C50.3048 11.952 47.5185 12.6254 45.3305 14.8134L49.5732 19.056ZM52.7412 17.952V23.952C52.9062 23.952 52.8246 23.9753 52.5907 23.8938C52.3299 23.8029 51.9845 23.6166 51.6665 23.2986L55.9092 19.056L60.1518 14.8134C57.9638 12.6254 55.1776 11.952 52.7412 11.952V17.952ZM55.9092 19.056L51.7619 23.3919C51.3788 23.0255 51.1685 22.6292 51.0714 22.3505C50.9853 22.1035 51.0132 22.0257 51.0132 22.224H57.0132H63.0132C63.0132 19.8215 62.3716 16.9346 60.0565 14.7201L55.9092 19.056ZM57.0132 22.224H51.0132V32.544H57.0132H63.0132V22.224H57.0132ZM57.0132 32.544H51.0132C51.0132 34.3814 51.3733 36.8765 53.1239 38.9771L57.7332 35.136L62.3425 31.2949C62.7432 31.7757 62.9105 32.2205 62.9743 32.4501C63.034 32.6649 63.0132 32.7229 63.0132 32.544H57.0132ZM57.7332 35.136L53.1239 38.9771C55.1207 41.3733 57.8717 42 59.9892 42V36V30C60.0201 30 60.3361 30.002 60.8031 30.1809C61.3123 30.3759 61.8772 30.7365 62.3425 31.2949L57.7332 35.136ZM59.9892 36V42C62.7874 42 65.3931 40.9002 67.3152 38.7274L62.8212 34.752L58.3272 30.7766C58.4884 30.5943 58.7613 30.3651 59.1416 30.1975C59.5165 30.0323 59.8296 30 59.9892 30V36ZM62.8212 34.752L67.3152 38.7274C69.2381 36.5537 69.9252 33.9168 69.9252 31.44H63.9252H57.9252C57.9252 31.5976 57.9038 31.5624 57.9571 31.4026C58.0161 31.2255 58.1347 30.9942 58.3272 30.7766L62.8212 34.752ZM63.9252 31.44H69.9252V22.224H63.9252H57.9252V31.44H63.9252ZM63.9252 22.224H69.9252C69.9252 22.0257 69.9531 22.1035 69.867 22.3505C69.7699 22.6292 69.5596 23.0255 69.1765 23.3919L65.0292 19.056L60.8819 14.7201C58.5668 16.9346 57.9252 19.8215 57.9252 22.224H63.9252ZM65.0292 19.056L69.2718 23.2986C68.9538 23.6166 68.6085 23.8029 68.3476 23.8938C68.1138 23.9753 68.0322 23.952 68.1972 23.952V17.952V11.952C65.7608 11.952 62.9745 12.6254 60.7865 14.8134L65.0292 19.056ZM68.1972 17.952V23.952C68.3622 23.952 68.2806 23.9753 68.0467 23.8938C67.7859 23.8029 67.4405 23.6166 67.1225 23.2986L71.3652 19.056L75.6078 14.8134C73.4198 12.6254 70.6335 11.952 68.1972 11.952V17.952ZM71.3652 19.056L67.2179 23.3919C66.8348 23.0255 66.6245 22.6292 66.5274 22.3505C66.4413 22.1035 66.4692 22.0257 66.4692 22.224H72.4692H78.4692C78.4692 19.8215 77.8276 16.9346 75.5125 14.7201L71.3652 19.056ZM72.4692 22.224H66.4692V38.112H72.4692H78.4692V22.224H72.4692ZM72.4692 38.112H66.4692C66.4692 38.6936 66.3258 38.0162 67.0992 37.2069C67.9213 36.3465 68.7211 36.432 68.3412 36.432V42.432V48.432C70.7133 48.432 73.577 47.7975 75.7751 45.4971C77.9245 43.2478 78.4692 40.4104 78.4692 38.112H72.4692ZM68.3412 42.432V36.432C68.2071 36.432 68.309 36.4127 68.5547 36.4997C68.8261 36.5957 69.1618 36.7834 69.4638 37.0854L65.2212 41.328L60.9785 45.5706C63.1413 47.7333 65.8901 48.432 68.3412 48.432V42.432ZM65.2212 41.328L69.4638 37.0854C69.7976 37.4192 69.9824 37.7741 70.0681 38.0239C70.1442 38.2457 70.1172 38.3072 70.1172 38.112H64.1172H58.1172C58.1172 40.5344 58.7663 43.3583 60.9785 45.5706L65.2212 41.328ZM64.1172 38.112H70.1172V35.328H64.1172H58.1172V38.112H64.1172ZM64.1172 35.328L58.4136 37.1904L59.1816 39.5424L64.8852 37.68L70.5888 35.8176L69.8208 33.4656L64.1172 35.328ZM64.8852 37.68L59.4116 35.2225C59.1184 35.8753 58.8346 36.1224 58.6393 36.2493L61.9092 41.28L65.1791 46.3107C67.5438 44.7736 69.2439 42.6207 70.3588 40.1375L64.8852 37.68ZM61.9092 41.28L58.581 36.2877C58.4621 36.367 58.1737 36.528 57.4452 36.528V42.528V48.528C60.1726 48.528 62.8603 47.857 65.2374 46.2723L61.9092 41.28ZM83.8733 41.424L81.2806 46.8349C81.295 46.8418 81.3094 46.8486 81.3239 46.8554L83.8733 41.424ZM80.4173 38.112L75.0737 40.8407C75.0817 40.8563 75.0897 40.8719 75.0978 40.8874L80.4173 38.112ZM79.2653 24.672H85.2653C85.2653 21.3583 82.579 18.672 79.2653 18.672V24.672ZM75.2333 23.856L70.9907 28.0986C71.0311 28.139 71.072 28.1789 71.1136 28.2181L75.2333 23.856ZM75.2333 19.2L79.3455 23.5692L79.3531 23.5621L75.2333 19.2ZM79.2653 18.384V24.384C82.579 24.384 85.2653 21.6977 85.2653 18.384H79.2653ZM86.7053 12.192L82.4627 16.4346V16.4346L86.7053 12.192ZM87.8093 18.384H81.8093C81.8093 21.6977 84.4956 24.384 87.8093 24.384V18.384ZM94.1453 19.2L89.9027 23.4426C89.9858 23.5257 90.0713 23.6064 90.1591 23.6845L94.1453 19.2ZM94.1453 23.856L90.0256 19.4939C89.984 19.5331 89.9431 19.573 89.9027 19.6134L94.1453 23.856ZM87.8093 24.672V18.672C84.4956 18.672 81.8093 21.3583 81.8093 24.672H87.8093ZM88.6253 34.848L84.2632 38.9677C84.3417 39.0508 84.4225 39.1316 84.5056 39.2101L88.6253 34.848ZM92.6093 35.52L93.9585 41.3663V41.3663L92.6093 35.52ZM93.7613 35.376V41.376C93.8862 41.376 94.011 41.3721 94.1356 41.3643L93.7613 35.376ZM95.0093 35.856L90.5697 39.892C90.6337 39.9625 90.6994 40.0313 90.7667 40.0986L95.0093 35.856ZM95.0573 40.56L100.529 43.0222C100.544 42.9894 100.558 42.9565 100.572 42.9235L95.0573 40.56ZM93.5213 41.952L95.5393 47.6025C95.5958 47.5823 95.6519 47.5613 95.7077 47.5395L93.5213 41.952ZM91.6973 42.336L90.9531 36.3823C90.8721 36.3925 90.7914 36.4042 90.7109 36.4176L91.6973 42.336ZM89.8253 42.528V36.528C87.9875 36.528 86.9473 36.2388 86.4228 35.9926L83.8733 41.424L81.3239 46.8554C83.9353 48.0812 86.8632 48.528 89.8253 48.528V42.528ZM83.8733 41.424L86.466 36.0131C86.0675 35.8221 85.8882 35.6268 85.7368 35.3366L80.4173 38.112L75.0978 40.8874C76.4824 43.5412 78.6072 45.5539 81.2806 46.8349L83.8733 41.424ZM80.4173 38.112L85.7609 35.3833C85.5417 34.9541 85.2653 34.0844 85.2653 32.496H79.2653H73.2653C73.2653 35.3876 73.7569 38.2619 75.0737 40.8407L80.4173 38.112ZM79.2653 32.496H85.2653V24.672H79.2653H73.2653V32.496H79.2653ZM79.2653 24.672V18.672H77.6333V24.672V30.672H79.2653V24.672ZM77.6333 24.672V18.672C77.6437 18.672 77.859 18.6725 78.1967 18.7874C78.5571 18.9099 78.9737 19.1356 79.3531 19.4939L75.2333 23.856L71.1136 28.2181C73.1002 30.0943 75.5412 30.672 77.6333 30.672V24.672ZM75.2333 23.856L79.476 19.6134C79.8946 20.032 80.1525 20.4974 80.2898 20.8934C80.4178 21.262 80.4173 21.4972 80.4173 21.504H74.4173H68.4173C68.4173 23.5748 68.9874 26.0954 70.9907 28.0986L75.2333 23.856ZM74.4173 21.504H80.4173C80.4173 21.5067 80.4189 21.7627 80.2771 22.1631C80.1237 22.5962 79.8306 23.1126 79.3455 23.5692L75.2333 19.2L71.1211 14.8308C68.978 16.8479 68.4173 19.459 68.4173 21.504H74.4173ZM75.2333 19.2L79.3531 23.5621C78.9737 23.9204 78.5571 24.1461 78.1967 24.2686C77.859 24.3835 77.6437 24.384 77.6333 24.384V18.384V12.384C75.5412 12.384 73.1002 12.9617 71.1136 14.8379L75.2333 19.2ZM77.6333 18.384V24.384H79.2653V18.384V12.384H77.6333V18.384ZM79.2653 18.384H85.2653V15.408H79.2653H73.2653V18.384H79.2653ZM79.2653 15.408H85.2653C85.2653 15.2128 85.2924 15.2743 85.2162 15.4961C85.1305 15.7459 84.9458 16.1008 84.612 16.4346L80.3693 12.192L76.1267 7.94936C73.9144 10.1617 73.2653 12.9856 73.2653 15.408H79.2653ZM80.3693 12.192L84.612 16.4346C84.294 16.7526 83.9486 16.9389 83.6878 17.0298C83.4539 17.1113 83.3723 17.088 83.5373 17.088V11.088V5.088C81.101 5.088 78.3147 5.76135 76.1267 7.94936L80.3693 12.192ZM83.5373 11.088V17.088C83.7023 17.088 83.6207 17.1113 83.3869 17.0298C83.126 16.9389 82.7806 16.7526 82.4627 16.4346L86.7053 12.192L90.948 7.94936C88.7599 5.76135 85.9737 5.088 83.5373 5.088V11.088ZM86.7053 12.192L82.4627 16.4346C82.1289 16.1008 81.9441 15.7459 81.8584 15.4961C81.7822 15.2743 81.8093 15.2128 81.8093 15.408H87.8093H93.8093C93.8093 12.9856 93.1603 10.1617 90.948 7.94936L86.7053 12.192ZM87.8093 15.408H81.8093V18.384H87.8093H93.8093V15.408H87.8093ZM87.8093 18.384V24.384H91.7453V18.384V12.384H87.8093V18.384ZM91.7453 18.384V24.384C91.8162 24.384 90.8502 24.3901 89.9027 23.4426L94.1453 19.2L98.388 14.9574C96.3524 12.9218 93.7864 12.384 91.7453 12.384V18.384ZM94.1453 19.2L90.1591 23.6845C89.6712 23.2508 89.3512 22.7357 89.1753 22.2667C89.0127 21.833 89.0093 21.5396 89.0093 21.504H95.0093H101.009C101.009 19.3601 100.374 16.7087 98.1315 14.7155L94.1453 19.2ZM95.0093 21.504H89.0093C89.0093 21.4643 89.0139 21.1924 89.1613 20.7911C89.3195 20.3605 89.6023 19.8936 90.0256 19.4939L94.1453 23.856L98.265 28.2181C100.367 26.2331 101.009 23.6699 101.009 21.504H95.0093ZM94.1453 23.856L89.9027 19.6134C90.8502 18.6658 91.8162 18.672 91.7453 18.672V24.672V30.672C93.7864 30.672 96.3524 30.1341 98.388 28.0986L94.1453 23.856ZM91.7453 24.672V18.672H87.8093V24.672V30.672H91.7453V24.672ZM87.8093 24.672H81.8093V32.208H87.8093H93.8093V24.672H87.8093ZM87.8093 32.208H81.8093C81.8093 34.1807 82.2489 36.8349 84.2632 38.9677L88.6253 34.848L92.9874 30.7283C93.4407 31.2082 93.6546 31.6893 93.7457 31.9842C93.8294 32.2547 93.8093 32.3614 93.8093 32.208H87.8093ZM88.6253 34.848L84.5056 39.2101C86.6634 41.2481 89.3607 41.664 91.3133 41.664V35.664V29.664C91.1298 29.664 91.2156 29.6408 91.4722 29.7187C91.7519 29.8036 92.2459 30.0145 92.7451 30.4859L88.6253 34.848ZM91.3133 35.664V41.664C92.1931 41.664 93.0788 41.5694 93.9585 41.3663L92.6093 35.52L91.2602 29.6737C91.2826 29.6685 91.3 29.6659 91.3107 29.6647C91.3214 29.6635 91.3227 29.664 91.3133 29.664V35.664ZM92.6093 35.52L93.9585 41.3663C93.9869 41.3598 93.9844 41.3618 93.9535 41.3657C93.9227 41.3695 93.8572 41.376 93.7613 41.376V35.376V29.376C92.8713 29.376 92.0285 29.4963 91.2602 29.6737L92.6093 35.52ZM93.7613 35.376L94.1356 41.3643C93.6603 41.394 93.0134 41.3451 92.3034 41.0721C91.5797 40.7937 90.9958 40.3607 90.5697 39.892L95.0093 35.856L99.449 31.82C97.7977 30.0036 95.5534 29.2523 93.387 29.3877L93.7613 35.376ZM95.0093 35.856L90.7667 40.0986C90.2015 39.5335 89.8974 38.9734 89.7432 38.629C89.5867 38.2796 89.5234 38.0153 89.5007 37.9086C89.4599 37.7169 89.4893 37.7407 89.4893 38.112H95.4893H101.489C101.489 37.2993 101.439 36.3551 101.238 35.4114C101.067 34.6058 100.625 32.986 99.252 31.6134L95.0093 35.856ZM95.4893 38.112H89.4893C89.4893 38.296 89.4752 38.3865 89.4726 38.4013C89.4703 38.4145 89.4827 38.336 89.5424 38.1965L95.0573 40.56L100.572 42.9235C101.264 41.3103 101.489 39.6424 101.489 38.112H95.4893ZM95.0573 40.56L89.5858 38.0978C89.7754 37.6765 90.0621 37.2738 90.4282 36.9421C90.7838 36.6198 91.1209 36.4483 91.3349 36.3645L93.5213 41.952L95.7077 47.5395C97.7048 46.758 99.5135 45.2786 100.529 43.0222L95.0573 40.56ZM93.5213 41.952L91.5033 36.3015C91.5982 36.2677 91.6073 36.2727 91.4932 36.2967C91.3857 36.3193 91.2102 36.3502 90.9531 36.3823L91.6973 42.336L92.4415 48.2897C93.4098 48.1686 94.5042 47.9721 95.5393 47.6025L93.5213 41.952ZM91.6973 42.336L90.7109 36.4176C90.4229 36.4656 90.2024 36.4948 90.0411 36.5113C89.8747 36.5284 89.81 36.528 89.8253 36.528V42.528V48.528C90.7747 48.528 91.7636 48.4077 92.6837 48.2544L91.6973 42.336ZM101.239 41.52L98.6058 46.9114C98.622 46.9193 98.6382 46.9271 98.6544 46.9349L101.239 41.52ZM97.9748 38.784L92.941 42.0491C92.9754 42.1021 93.0106 42.1545 93.0466 42.2064L97.9748 38.784ZM102.487 28.56L103.718 34.4323C103.748 34.426 103.778 34.4194 103.808 34.4126L102.487 28.56ZM113.047 27.888H119.047C119.047 24.5743 116.361 21.888 113.047 21.888V27.888ZM113.047 31.92V37.92C116.361 37.92 119.047 35.2337 119.047 31.92H113.047ZM107.287 32.208L108.464 38.0915C108.521 38.08 108.579 38.0676 108.636 38.0543L107.287 32.208ZM105.511 33.024L109.565 37.4469C109.629 37.3882 109.692 37.3281 109.753 37.2666L105.511 33.024ZM105.703 36.24L101.599 40.6172C101.643 40.6585 101.688 40.6991 101.733 40.739L105.703 36.24ZM110.119 36.432L107.227 31.1747C107.189 31.1959 107.151 31.2174 107.113 31.2394L110.119 36.432ZM111.655 34.992L116.728 38.196C116.752 38.1572 116.776 38.1182 116.8 38.079L111.655 34.992ZM111.319 24.768L107.478 29.3773C107.518 29.4112 107.559 29.4445 107.601 29.4773L111.319 24.768ZM105.703 24.336L106.689 30.2544C106.753 30.2438 106.816 30.2321 106.88 30.2195L105.703 24.336ZM102.487 25.248L104.571 30.8745C104.584 30.8696 104.597 30.8647 104.61 30.8597L102.487 25.248ZM98.8388 24.24L93.6672 27.2821C93.7104 27.3555 93.7551 27.428 93.8014 27.4995L98.8388 24.24ZM98.3588 22.464L92.3663 22.1644C92.3613 22.2642 92.3588 22.3641 92.3588 22.464L98.3588 22.464ZM98.9828 20.64L94.1187 17.1271C94.0748 17.1878 94.0321 17.2494 93.9905 17.3118L98.9828 20.64ZM100.855 19.296L98.7481 13.678C98.7323 13.6839 98.7166 13.6899 98.7009 13.6959L100.855 19.296ZM105.079 18.144L104.21 12.2072C104.203 12.2083 104.196 12.2093 104.189 12.2104L105.079 18.144ZM115.159 19.008L112.684 24.4737C112.725 24.4923 112.766 24.5105 112.808 24.5281L115.159 19.008ZM118.999 22.464L113.699 25.2763C113.722 25.3197 113.745 25.3628 113.769 25.4056L118.999 22.464ZM119.287 41.328L114.856 37.2824V37.2824L119.287 41.328ZM113.335 41.328L108.904 45.3736C108.935 45.4079 108.967 45.4418 108.999 45.4753L113.335 41.328ZM112.327 36.864L117.842 34.5005C116.72 31.8821 113.911 30.4138 111.12 30.9865C108.33 31.5593 106.327 34.0153 106.327 36.864H112.327ZM112.615 37.536L118.543 38.4623C118.717 37.3486 118.574 36.2085 118.13 35.1725L112.615 37.536ZM111.511 40.176L116.236 43.8739V43.8738L111.511 40.176ZM109.255 41.904L106.8 36.4289L109.255 41.904ZM106.087 42.528V36.528C105.007 36.528 104.299 36.332 103.823 36.1051L101.239 41.52L98.6544 46.9349C100.995 48.052 103.519 48.528 106.087 48.528V42.528ZM101.239 41.52L103.872 36.1286C103.33 35.8638 103.066 35.5962 102.903 35.3616L97.9748 38.784L93.0466 42.2064C94.4837 44.2758 96.3959 45.8322 98.6058 46.9114L101.239 41.52ZM97.9748 38.784L103.009 35.5189C102.913 35.3719 102.823 35.1769 102.823 34.752H96.8228H90.8228C90.8228 37.3351 91.5004 39.8281 92.941 42.0491L97.9748 38.784ZM96.8228 34.752H102.823C102.823 34.3983 102.869 34.2772 102.858 34.3132C102.851 34.3336 102.831 34.3873 102.788 34.4618C102.745 34.5373 102.688 34.6174 102.619 34.6937L98.1668 30.672L93.7142 26.6503C91.5583 29.0372 90.8228 31.9854 90.8228 34.752H96.8228ZM98.1668 30.672L102.619 34.6937C102.463 34.8665 102.388 34.8716 102.554 34.7903C102.728 34.705 103.091 34.5639 103.718 34.4323L102.487 28.56L101.256 22.6877C98.6343 23.2373 95.7986 24.3425 93.7142 26.6503L98.1668 30.672ZM102.487 28.56L103.808 34.4126C105.176 34.1038 107.318 33.888 110.407 33.888V27.888V21.888C106.904 21.888 103.766 22.1202 101.165 22.7074L102.487 28.56ZM110.407 27.888V33.888H113.047V27.888V21.888H110.407V27.888ZM113.047 27.888H107.047V31.92H113.047H119.047V27.888H113.047ZM113.047 31.92V25.92H110.407V31.92V37.92H113.047V31.92ZM110.407 31.92V25.92C108.893 25.92 107.364 26.0325 105.938 26.3617L107.287 32.208L108.636 38.0543C108.874 37.9995 109.425 37.92 110.407 37.92V31.92ZM107.287 32.208L106.11 26.3245C104.696 26.6074 102.812 27.2371 101.268 28.7814L105.511 33.024L109.753 37.2666C109.353 37.6668 108.973 37.8808 108.748 37.9841C108.529 38.0847 108.412 38.1018 108.464 38.0915L107.287 32.208ZM105.511 33.024L101.456 28.6011C99.694 30.2167 98.9348 32.356 98.9348 34.416H104.935H110.935C110.935 34.8004 110.869 35.3357 110.623 35.9301C110.371 36.5385 109.994 37.0534 109.565 37.4469L105.511 33.024ZM104.935 34.416H98.9348C98.9348 36.7196 99.8125 38.9422 101.599 40.6172L105.703 36.24L109.806 31.8628C110.124 32.1608 110.438 32.5754 110.657 33.0957C110.873 33.6095 110.935 34.0769 110.935 34.416H104.935ZM105.703 36.24L101.733 40.739C103.72 42.492 106.093 42.96 108.007 42.96V36.96V30.96C107.937 30.96 108.774 30.948 109.673 31.741L105.703 36.24ZM108.007 36.96V42.96C109.714 42.96 111.483 42.5754 113.125 41.6246L110.119 36.432L107.113 31.2394C107.31 31.1254 107.506 31.0506 107.68 31.0071C107.849 30.9647 107.966 30.96 108.007 30.96V36.96ZM110.119 36.432L113.01 41.6893C114.525 40.8563 115.793 39.6758 116.728 38.196L111.655 34.992L106.582 31.788C106.655 31.6721 106.754 31.5477 106.879 31.4308C107.003 31.3142 107.126 31.2304 107.227 31.1747L110.119 36.432ZM111.655 34.992L116.8 38.079C117.806 36.4024 118.231 34.5753 118.231 32.784H112.231H106.231C106.231 32.7363 106.237 32.6158 106.281 32.4455C106.327 32.2712 106.402 32.0844 106.51 31.905L111.655 34.992ZM112.231 32.784H118.231V27.216H112.231H106.231V32.784H112.231ZM112.231 27.216H118.231C118.231 25.1498 117.681 22.1462 115.037 20.0587L111.319 24.768L107.601 29.4773C106.939 28.9548 106.563 28.3251 106.38 27.8347C106.217 27.395 106.231 27.1374 106.231 27.216H112.231ZM111.319 24.768L115.16 20.1587C112.881 18.2595 110.022 18.048 108.295 18.048V24.048V30.048C108.714 30.048 108.83 30.086 108.741 30.0648C108.669 30.0476 108.12 29.9122 107.478 29.3773L111.319 24.768ZM108.295 24.048V18.048C107.041 18.048 105.774 18.203 104.526 18.4525L105.703 24.336L106.88 30.2195C107.552 30.085 108.012 30.048 108.295 30.048V24.048ZM105.703 24.336L104.716 18.4176C103.273 18.6582 101.812 19.0881 100.363 19.6363L102.487 25.248L104.61 30.8597C105.529 30.5119 106.213 30.3338 106.689 30.2544L105.703 24.336ZM102.487 25.248L100.403 19.6215C100.322 19.6515 101.15 19.3186 102.353 19.7619L100.279 25.392L98.2046 31.0221C100.624 31.9134 102.924 31.4845 104.571 30.8745L102.487 25.248ZM100.279 25.392L102.353 19.7619C102.621 19.8608 102.921 20.0186 103.211 20.2508C103.501 20.483 103.721 20.7405 103.876 20.9805L98.8388 24.24L93.8014 27.4995C94.8587 29.1335 96.3784 30.3493 98.2046 31.0221L100.279 25.392ZM98.8388 24.24L104.01 21.1979C104.114 21.3746 104.207 21.5858 104.271 21.8225C104.335 22.0588 104.359 22.2784 104.359 22.464H98.3588H92.3588C92.3588 24.158 92.7969 25.8025 93.6672 27.2821L98.8388 24.24ZM98.3588 22.464L104.351 22.7636C104.339 23.0048 104.293 23.2455 104.216 23.4701C104.14 23.692 104.048 23.8587 103.975 23.9682L98.9828 20.64L93.9905 17.3118C93.0559 18.7137 92.4567 20.3566 92.3663 22.1644L98.3588 22.464ZM98.9828 20.64L103.847 24.1529C103.426 24.7352 102.987 24.9043 103.009 24.8961L100.855 19.296L98.7009 13.6959C97.0584 14.3277 95.3712 15.3928 94.1187 17.1271L98.9828 20.64ZM100.855 19.296L102.962 24.914C104.203 24.4483 105.197 24.1933 105.969 24.0776L105.079 18.144L104.189 12.2104C102.4 12.4787 100.578 12.9917 98.7481 13.678L100.855 19.296ZM105.079 18.144L105.948 24.0808C107.032 23.9221 107.936 23.856 108.679 23.856V17.856V11.856C107.245 11.856 105.75 11.9819 104.21 12.2072L105.079 18.144ZM108.679 17.856V23.856C110.775 23.856 112.015 24.1711 112.684 24.4737L115.159 19.008L117.634 13.5423C114.91 12.3089 111.831 11.856 108.679 11.856V17.856ZM115.159 19.008L112.808 24.5281C113.351 24.7595 113.55 24.9958 113.699 25.2763L118.999 22.464L124.299 19.6517C122.784 16.7962 120.423 14.7285 117.51 13.4879L115.159 19.008ZM118.999 22.464L113.769 25.4056C113.972 25.7663 114.295 26.6413 114.295 28.416H120.295H126.295C126.295 25.3267 125.753 22.2337 124.228 19.5224L118.999 22.464ZM120.295 28.416H114.295V38.112H120.295H126.295V28.416H120.295ZM120.295 38.112H114.295C114.295 38.3544 114.264 38.3476 114.317 38.1775C114.378 37.9844 114.53 37.6391 114.856 37.2824L119.287 41.328L123.718 45.3736C125.749 43.1484 126.295 40.4005 126.295 38.112H120.295ZM119.287 41.328L114.856 37.2824C115.187 36.9199 115.58 36.6752 115.934 36.5418C116.257 36.4201 116.435 36.432 116.359 36.432V42.432V48.432C118.816 48.432 121.606 47.6866 123.718 45.3736L119.287 41.328ZM116.359 42.432V36.432C116.254 36.432 116.393 36.4163 116.676 36.5199C116.988 36.6337 117.353 36.8488 117.671 37.1807L113.335 41.328L108.999 45.4753C111.138 47.7113 113.906 48.432 116.359 48.432V42.432ZM113.335 41.328L117.766 37.2824C118.091 37.6391 118.244 37.9844 118.304 38.1775C118.357 38.3476 118.327 38.3544 118.327 38.112H112.327H106.327C106.327 40.4005 106.872 43.1484 108.904 45.3736L113.335 41.328ZM112.327 38.112H118.327V36.864H112.327H106.327V38.112H112.327ZM112.327 36.864L106.812 39.2275L107.1 39.8995L112.615 37.536L118.13 35.1725L117.842 34.5005L112.327 36.864ZM112.615 37.536L106.687 36.6097C106.675 36.6856 106.666 36.6911 106.683 36.6492C106.692 36.6291 106.705 36.6021 106.723 36.5706C106.741 36.539 106.763 36.5077 106.786 36.4782L111.511 40.176L116.236 43.8738C117.509 42.2465 118.242 40.385 118.543 38.4623L112.615 37.536ZM111.511 40.176L106.786 36.4781C106.799 36.4617 106.813 36.4451 106.829 36.4297C106.844 36.4144 106.858 36.4034 106.866 36.3967C106.875 36.3902 106.876 36.3901 106.867 36.3955C106.858 36.4009 106.837 36.4127 106.8 36.4289L109.255 41.904L111.709 47.3791C113.447 46.6 115.007 45.4444 116.236 43.8739L111.511 40.176ZM109.255 41.904L106.8 36.4289C106.761 36.4466 106.563 36.528 106.087 36.528V42.528V48.528C107.979 48.528 109.893 48.1934 111.709 47.3791L109.255 41.904ZM126.264 41.328L130.507 37.0854L126.264 41.328ZM126.216 19.056L121.973 14.8134C121.942 14.8448 121.911 14.8766 121.88 14.9087L126.216 19.056ZM132.408 19.056L128.072 23.2033V23.2033L132.408 19.056ZM133.464 24.48L127.669 26.0348C128.449 28.9426 131.263 30.822 134.248 30.4285C137.233 30.0351 139.464 27.4906 139.464 24.48H133.464ZM132.936 22.512L127.592 19.7833C126.917 21.1061 126.756 22.6323 127.141 24.0668L132.936 22.512ZM136.2 19.056L133.286 13.8111C133.269 13.8204 133.253 13.8298 133.236 13.8393L136.2 19.056ZM145.752 18.96L142.645 24.093C142.679 24.1132 142.712 24.133 142.746 24.1526L145.752 18.96ZM148.488 22.32L142.909 24.5283C142.915 24.5418 142.92 24.5553 142.925 24.5687L148.488 22.32ZM148.296 41.328L144.053 37.0854L148.296 41.328ZM141.96 41.328L146.203 37.0854L141.96 41.328ZM140.088 25.296L135.379 29.0139C135.418 29.0635 135.458 29.1125 135.499 29.1608L140.088 25.296ZM134.856 25.632L139.184 29.7872C139.212 29.7589 139.238 29.7304 139.265 29.7017L134.856 25.632ZM129.384 42.432V36.432C129.25 36.432 129.352 36.4127 129.598 36.4997C129.869 36.5957 130.205 36.7834 130.507 37.0854L126.264 41.328L122.021 45.5706C124.184 47.7333 126.933 48.432 129.384 48.432V42.432ZM126.264 41.328L130.507 37.0854C130.841 37.4192 131.025 37.7741 131.111 38.0239C131.187 38.2457 131.16 38.3072 131.16 38.112H125.16H119.16C119.16 40.5344 119.809 43.3583 122.021 45.5706L126.264 41.328ZM125.16 38.112H131.16V22.224H125.16H119.16V38.112H125.16ZM125.16 22.224H131.16C131.16 22.0347 131.186 22.0888 131.116 22.2974C131.038 22.5311 130.868 22.873 130.552 23.2033L126.216 19.056L121.88 14.9087C119.778 17.106 119.16 19.8568 119.16 22.224H125.16ZM126.216 19.056L130.459 23.2986C130.157 23.6006 129.821 23.7883 129.55 23.8843C129.304 23.9713 129.202 23.952 129.336 23.952V17.952V11.952C126.885 11.952 124.136 12.6507 121.973 14.8134L126.216 19.056ZM129.336 17.952V23.952C129.473 23.952 129.355 23.9721 129.083 23.8744C128.781 23.7661 128.406 23.5524 128.072 23.2033L132.408 19.056L136.744 14.9087C134.579 12.6453 131.771 11.952 129.336 11.952V17.952ZM132.408 19.056L128.072 23.2033C127.756 22.873 127.586 22.5311 127.508 22.2974C127.438 22.0888 127.464 22.0347 127.464 22.224H133.464H139.464C139.464 19.8568 138.846 17.106 136.744 14.9087L132.408 19.056ZM133.464 22.224H127.464V24.48H133.464H139.464V22.224H133.464ZM133.464 24.48L139.259 22.9252L138.731 20.9572L132.936 22.512L127.141 24.0668L127.669 26.0348L133.464 24.48ZM132.936 22.512L138.28 25.2407C138.539 24.7335 138.82 24.468 139.164 24.2727L136.2 19.056L133.236 13.8393C130.764 15.244 128.869 17.2825 127.592 19.7833L132.936 22.512ZM136.2 19.056L139.114 24.3009C139.57 24.0477 140.18 23.856 141.096 23.856V17.856V11.856C138.364 11.856 135.71 12.4643 133.286 13.8111L136.2 19.056ZM141.096 17.856V23.856C142.238 23.856 142.626 24.0813 142.645 24.093L145.752 18.96L148.859 13.827C146.446 12.3667 143.73 11.856 141.096 11.856V17.856ZM145.752 18.96L142.746 24.1526C142.732 24.1447 142.716 24.1336 142.702 24.1215C142.688 24.1097 142.686 24.1055 142.695 24.1166C142.712 24.1375 142.799 24.2508 142.909 24.5283L148.488 22.32L154.067 20.1117C153.053 17.5496 151.341 15.2625 148.758 13.7674L145.752 18.96ZM148.488 22.32L142.925 24.5687C143.15 25.1253 143.4 26.1998 143.4 28.032H149.4H155.4C155.4 25.2562 155.042 22.5227 154.051 20.0713L148.488 22.32ZM149.4 28.032H143.4V38.112H149.4H155.4V28.032H149.4ZM149.4 38.112H143.4C143.4 38.3072 143.373 38.2457 143.449 38.0239C143.535 37.7741 143.72 37.4192 144.053 37.0854L148.296 41.328L152.539 45.5706C154.751 43.3583 155.4 40.5344 155.4 38.112H149.4ZM148.296 41.328L144.053 37.0854C144.371 36.7674 144.717 36.5811 144.978 36.4902C145.211 36.4087 145.293 36.432 145.128 36.432V42.432V48.432C147.564 48.432 150.351 47.7586 152.539 45.5706L148.296 41.328ZM145.128 42.432V36.432C144.963 36.432 145.045 36.4087 145.279 36.4902C145.539 36.5811 145.885 36.7674 146.203 37.0854L141.96 41.328L137.717 45.5706C139.905 47.7586 142.692 48.432 145.128 48.432V42.432ZM141.96 41.328L146.203 37.0854C146.537 37.4192 146.721 37.7741 146.807 38.0239C146.883 38.2457 146.856 38.3072 146.856 38.112H140.856H134.856C134.856 40.5344 135.505 43.3583 137.717 45.5706L141.96 41.328ZM140.856 38.112H146.856V28.368H140.856H134.856V38.112H140.856ZM140.856 28.368H146.856C146.856 26.5345 146.593 23.7052 144.678 21.4312L140.088 25.296L135.499 29.1608C135.006 28.5756 134.867 28.0718 134.843 27.9752C134.818 27.8744 134.856 27.9739 134.856 28.368H140.856ZM140.088 25.296L144.797 21.5781C142.91 19.1873 140.24 18.384 137.928 18.384V24.384V30.384C137.784 30.384 137.381 30.3618 136.854 30.1395C136.291 29.9018 135.771 29.511 135.379 29.0139L140.088 25.296ZM137.928 24.384V18.384C135.215 18.384 132.505 19.3331 130.447 21.5623L134.856 25.632L139.265 29.7017C139.065 29.9178 138.784 30.1224 138.458 30.2548C138.149 30.3805 137.941 30.384 137.928 30.384V24.384ZM134.856 25.632L130.528 21.4768C128.443 23.6484 127.704 26.3635 127.704 28.896H133.704H139.704C139.704 28.7607 139.723 28.8374 139.65 29.0449C139.569 29.2735 139.416 29.5457 139.184 29.7872L134.856 25.632ZM133.704 28.896H127.704V38.112H133.704H139.704V28.896H133.704ZM133.704 38.112H127.704C127.704 38.6271 127.579 37.9114 128.381 37.1094C129.184 36.3073 129.899 36.432 129.384 36.432V42.432V48.432C131.749 48.432 134.625 47.8367 136.867 45.5946C139.109 43.3526 139.704 40.4769 139.704 38.112H133.704ZM160.701 41.424L158.109 46.8349C158.123 46.8418 158.138 46.8486 158.152 46.8554L160.701 41.424ZM157.245 38.112L151.902 40.8407C151.91 40.8563 151.918 40.8719 151.926 40.8874L157.245 38.112ZM156.093 24.672H162.093C162.093 21.3583 159.407 18.672 156.093 18.672V24.672ZM152.061 23.856L147.819 28.0986C147.859 28.139 147.9 28.1789 147.942 28.2181L152.061 23.856ZM152.061 19.2L156.174 23.5692L156.181 23.5621L152.061 19.2ZM156.093 18.384V24.384C159.407 24.384 162.093 21.6977 162.093 18.384H156.093ZM163.533 12.192L159.291 16.4346V16.4346L163.533 12.192ZM164.637 18.384H158.637C158.637 21.6977 161.324 24.384 164.637 24.384V18.384ZM170.973 19.2L166.731 23.4426C166.814 23.5257 166.899 23.6064 166.987 23.6845L170.973 19.2ZM170.973 23.856L166.854 19.4939C166.812 19.5331 166.771 19.573 166.731 19.6134L170.973 23.856ZM164.637 24.672V18.672C161.324 18.672 158.637 21.3583 158.637 24.672H164.637ZM165.453 34.848L161.091 38.9677C161.17 39.0508 161.251 39.1316 161.334 39.2101L165.453 34.848ZM169.437 35.52L170.787 41.3663L170.787 41.3663L169.437 35.52ZM170.589 35.376V41.376C170.714 41.376 170.839 41.3721 170.964 41.3643L170.589 35.376ZM171.837 35.856L167.398 39.892C167.462 39.9625 167.527 40.0313 167.595 40.0986L171.837 35.856ZM171.885 40.56L177.357 43.0222C177.372 42.9894 177.386 42.9565 177.4 42.9235L171.885 40.56ZM170.349 41.952L172.367 47.6025C172.424 47.5823 172.48 47.5613 172.536 47.5395L170.349 41.952ZM168.525 42.336L167.781 36.3823C167.7 36.3925 167.62 36.4042 167.539 36.4176L168.525 42.336ZM166.653 42.528V36.528C164.816 36.528 163.775 36.2388 163.251 35.9926L160.701 41.424L158.152 46.8554C160.763 48.0812 163.691 48.528 166.653 48.528V42.528ZM160.701 41.424L163.294 36.0131C162.896 35.8221 162.716 35.6268 162.565 35.3366L157.245 38.112L151.926 40.8874C153.311 43.5412 155.435 45.5539 158.109 46.8349L160.701 41.424ZM157.245 38.112L162.589 35.3833C162.37 34.9541 162.093 34.0844 162.093 32.496H156.093H150.093C150.093 35.3876 150.585 38.2619 151.902 40.8407L157.245 38.112ZM156.093 32.496H162.093V24.672H156.093H150.093V32.496H156.093ZM156.093 24.672V18.672H154.461V24.672V30.672H156.093V24.672ZM154.461 24.672V18.672C154.472 18.672 154.687 18.6725 155.025 18.7874C155.385 18.9099 155.802 19.1356 156.181 19.4939L152.061 23.856L147.942 28.2181C149.928 30.0943 152.369 30.672 154.461 30.672V24.672ZM152.061 23.856L156.304 19.6134C156.723 20.032 156.981 20.4974 157.118 20.8934C157.246 21.262 157.245 21.4972 157.245 21.504H151.245H145.245C145.245 23.5748 145.816 26.0954 147.819 28.0986L152.061 23.856ZM151.245 21.504H157.245C157.245 21.5067 157.247 21.7627 157.105 22.1631C156.952 22.5962 156.659 23.1126 156.174 23.5692L152.061 19.2L147.949 14.8308C145.806 16.8479 145.245 19.459 145.245 21.504H151.245ZM152.061 19.2L156.181 23.5621C155.802 23.9204 155.385 24.1461 155.025 24.2686C154.687 24.3835 154.472 24.384 154.461 24.384V18.384V12.384C152.369 12.384 149.928 12.9617 147.942 14.8379L152.061 19.2ZM154.461 18.384V24.384H156.093V18.384V12.384H154.461V18.384ZM156.093 18.384H162.093V15.408H156.093H150.093V18.384H156.093ZM156.093 15.408H162.093C162.093 15.2128 162.12 15.2743 162.044 15.4961C161.959 15.7459 161.774 16.1008 161.44 16.4346L157.197 12.192L152.955 7.94936C150.742 10.1617 150.093 12.9856 150.093 15.408H156.093ZM157.197 12.192L161.44 16.4346C161.122 16.7526 160.777 16.9389 160.516 17.0298C160.282 17.1113 160.2 17.088 160.365 17.088V11.088V5.088C157.929 5.088 155.143 5.76135 152.955 7.94936L157.197 12.192ZM160.365 11.088V17.088C160.53 17.088 160.449 17.1113 160.215 17.0298C159.954 16.9389 159.609 16.7526 159.291 16.4346L163.533 12.192L167.776 7.94936C165.588 5.76135 162.802 5.088 160.365 5.088V11.088ZM163.533 12.192L159.291 16.4346C158.957 16.1008 158.772 15.7459 158.687 15.4961C158.61 15.2743 158.637 15.2128 158.637 15.408H164.637H170.637C170.637 12.9856 169.988 10.1617 167.776 7.94936L163.533 12.192ZM164.637 15.408H158.637V18.384H164.637H170.637V15.408H164.637ZM164.637 18.384V24.384H168.573V18.384V12.384H164.637V18.384ZM168.573 18.384V24.384C168.644 24.384 167.678 24.3901 166.731 23.4426L170.973 19.2L175.216 14.9574C173.181 12.9218 170.615 12.384 168.573 12.384V18.384ZM170.973 19.2L166.987 23.6845C166.499 23.2508 166.179 22.7357 166.003 22.2667C165.841 21.833 165.837 21.5396 165.837 21.504H171.837H177.837C177.837 19.3601 177.202 16.7087 174.96 14.7155L170.973 19.2ZM171.837 21.504H165.837C165.837 21.4643 165.842 21.1924 165.989 20.7911C166.148 20.3605 166.43 19.8936 166.854 19.4939L170.973 23.856L175.093 28.2181C177.195 26.2331 177.837 23.6699 177.837 21.504H171.837ZM170.973 23.856L166.731 19.6134C167.678 18.6658 168.644 18.672 168.573 18.672V24.672V30.672C170.615 30.672 173.181 30.1341 175.216 28.0986L170.973 23.856ZM168.573 24.672V18.672H164.637V24.672V30.672H168.573V24.672ZM164.637 24.672H158.637V32.208H164.637H170.637V24.672H164.637ZM164.637 32.208H158.637C158.637 34.1807 159.077 36.8349 161.091 38.9677L165.453 34.848L169.816 30.7283C170.269 31.2082 170.483 31.6893 170.574 31.9842C170.657 32.2547 170.637 32.3614 170.637 32.208H164.637ZM165.453 34.848L161.334 39.2101C163.492 41.2481 166.189 41.664 168.141 41.664V35.664V29.664C167.958 29.664 168.044 29.6408 168.3 29.7187C168.58 29.8036 169.074 30.0145 169.573 30.4859L165.453 34.848ZM168.141 35.664V41.664C169.021 41.664 169.907 41.5694 170.787 41.3663L169.437 35.52L168.088 29.6737C168.111 29.6685 168.128 29.6659 168.139 29.6647C168.149 29.6635 168.151 29.664 168.141 29.664V35.664ZM169.437 35.52L170.787 41.3663C170.815 41.3598 170.813 41.3618 170.782 41.3657C170.751 41.3695 170.685 41.376 170.589 41.376V35.376V29.376C169.699 29.376 168.857 29.4963 168.088 29.6737L169.437 35.52ZM170.589 35.376L170.964 41.3643C170.488 41.394 169.841 41.3451 169.132 41.0721C168.408 40.7937 167.824 40.3607 167.398 39.892L171.837 35.856L176.277 31.82C174.626 30.0036 172.382 29.2523 170.215 29.3877L170.589 35.376ZM171.837 35.856L167.595 40.0986C167.03 39.5335 166.726 38.9734 166.571 38.629C166.415 38.2796 166.351 38.0153 166.329 37.9086C166.288 37.7169 166.317 37.7407 166.317 38.112H172.317H178.317C178.317 37.2993 178.267 36.3551 178.066 35.4114C177.895 34.6058 177.453 32.986 176.08 31.6134L171.837 35.856ZM172.317 38.112H166.317C166.317 38.296 166.303 38.3865 166.301 38.4013C166.298 38.4145 166.311 38.336 166.371 38.1965L171.885 40.56L177.4 42.9235C178.092 41.3103 178.317 39.6424 178.317 38.112H172.317ZM171.885 40.56L166.414 38.0978C166.604 37.6765 166.89 37.2738 167.256 36.9421C167.612 36.6198 167.949 36.4483 168.163 36.3645L170.349 41.952L172.536 47.5395C174.533 46.758 176.342 45.2786 177.357 43.0222L171.885 40.56ZM170.349 41.952L168.331 36.3015C168.426 36.2677 168.435 36.2727 168.321 36.2967C168.214 36.3193 168.038 36.3502 167.781 36.3823L168.525 42.336L169.27 48.2897C170.238 48.1686 171.332 47.9721 172.367 47.6025L170.349 41.952ZM168.525 42.336L167.539 36.4176C167.251 36.4656 167.031 36.4948 166.869 36.5113C166.703 36.5284 166.638 36.528 166.653 36.528V42.528V48.528C167.603 48.528 168.592 48.4077 169.512 48.2544L168.525 42.336ZM179.561 41.04L182.279 35.6911L179.561 41.04ZM175.001 36.768L169.824 39.8023V39.8023L175.001 36.768ZM174.281 25.056L179.843 27.3047C179.849 27.2913 179.854 27.2778 179.859 27.2643L174.281 25.056ZM176.921 21.168L180.975 25.5909C180.997 25.5708 181.019 25.5505 181.04 25.5301L176.921 21.168ZM181.049 18.72L182.98 24.4006C183.014 24.3892 183.047 24.3774 183.081 24.3653L181.049 18.72ZM193.289 19.344L196.007 13.9951V13.9951L193.289 19.344ZM197.801 23.616L192.586 26.5831C192.606 26.6189 192.627 26.6544 192.648 26.6897L197.801 23.616ZM198.521 35.328L192.942 33.1197L198.521 35.328ZM195.881 39.264L199.997 43.6295L200 43.6261L195.881 39.264ZM191.753 41.712L193.684 47.3926C193.706 47.3852 193.728 47.3776 193.749 47.3699L191.753 41.712ZM188.729 35.616L191.887 40.7176C191.944 40.6821 192.001 40.6457 192.057 40.6083L188.729 35.616ZM190.265 33.648L184.75 31.2845C184.736 31.3176 184.722 31.3508 184.708 31.3842L190.265 33.648ZM189.593 25.584L185.058 29.5136C185.08 29.539 185.103 29.5642 185.125 29.5893L189.593 25.584ZM184.121 24.768L180.962 19.6664V19.6664L184.121 24.768ZM182.537 26.736L188.019 29.1728C188.03 29.1485 188.041 29.124 188.051 29.0995L182.537 26.736ZM186.425 42.528V36.528C184.559 36.528 183.237 36.1782 182.279 35.6911L179.561 41.04L176.842 46.3889C179.788 47.8858 183.042 48.528 186.425 48.528V42.528ZM179.561 41.04L182.279 35.6911C181.332 35.2097 180.673 34.5803 180.177 33.7337L175.001 36.768L169.824 39.8023C171.504 42.6677 173.886 44.8863 176.842 46.3889L179.561 41.04ZM175.001 36.768L180.177 33.7337C179.716 32.9479 179.369 31.8417 179.369 30.192H173.369H167.369C167.369 33.5983 168.109 36.8761 169.824 39.8023L175.001 36.768ZM173.369 30.192H179.369C179.369 28.9039 179.572 27.9759 179.843 27.3047L174.281 25.056L168.718 22.8073C167.773 25.1441 167.369 27.6401 167.369 30.192H173.369ZM174.281 25.056L179.859 27.2643C180.153 26.523 180.53 25.9986 180.975 25.5909L176.921 21.168L172.866 16.7451C171.007 18.4493 169.624 20.517 168.702 22.8477L174.281 25.056ZM176.921 21.168L181.04 25.5301C181.525 25.0724 182.14 24.6861 182.98 24.4006L181.049 18.72L179.117 13.0394C176.757 13.8419 174.62 15.0876 172.801 16.8059L176.921 21.168ZM181.049 18.72L183.081 24.3653C183.93 24.0595 185.02 23.856 186.425 23.856V17.856V11.856C183.861 11.856 181.367 12.2285 179.016 13.0747L181.049 18.72ZM186.425 17.856V23.856C188.29 23.856 189.612 24.2058 190.57 24.6929L193.289 19.344L196.007 13.9951C193.061 12.4982 189.807 11.856 186.425 11.856V17.856ZM193.289 19.344L190.57 24.6929C191.503 25.1669 192.126 25.7756 192.586 26.5831L197.801 23.616L203.016 20.6488C201.363 17.7444 198.978 15.5051 196.007 13.9951L193.289 19.344ZM197.801 23.616L192.648 26.6897C193.077 27.4099 193.433 28.4914 193.433 30.192H199.433H205.433C205.433 26.7726 204.7 23.4701 202.953 20.5423L197.801 23.616ZM199.433 30.192H193.433C193.433 31.431 193.235 32.3798 192.942 33.1197L198.521 35.328L204.099 37.5363C205.023 35.2042 205.433 32.729 205.433 30.192H199.433ZM198.521 35.328L192.942 33.1197C192.643 33.8753 192.248 34.4422 191.761 34.9019L195.881 39.264L200 43.6261C201.818 41.9098 203.182 39.8527 204.099 37.5363L198.521 35.328ZM195.881 39.264L191.764 34.8985C191.325 35.3133 190.697 35.7218 189.756 36.0541L191.753 41.712L193.749 47.3699C196.072 46.5502 198.197 45.3267 199.997 43.6295L195.881 39.264ZM191.753 41.712L189.821 36.0314C188.931 36.334 187.82 36.528 186.425 36.528V42.528V48.528C188.934 48.528 191.374 48.178 193.684 47.3926L191.753 41.712ZM186.425 36.24V42.24C188.297 42.24 190.178 41.7751 191.887 40.7176L188.729 35.616L185.57 30.5144C185.732 30.4147 185.907 30.3394 186.08 30.2926C186.249 30.2468 186.372 30.24 186.425 30.24V36.24ZM188.729 35.616L192.057 40.6083C193.876 39.3953 195.088 37.7103 195.821 35.9118L190.265 33.648L184.708 31.3842C184.716 31.3655 184.764 31.253 184.887 31.0964C185.013 30.9342 185.186 30.7663 185.4 30.6237L188.729 35.616ZM190.265 33.648L195.779 36.0115C196.593 34.1142 196.841 32.0804 196.841 30.192H190.841H184.841C184.841 30.6303 184.81 30.9338 184.778 31.1256C184.746 31.3182 184.72 31.3545 184.75 31.2845L190.265 33.648ZM190.841 30.192H196.841C196.841 27.5471 196.379 24.1654 194.06 21.5787L189.593 25.584L185.125 29.5893C184.767 29.1896 184.708 28.894 184.737 29.0005C184.75 29.0482 184.777 29.1664 184.801 29.372C184.824 29.5766 184.841 29.847 184.841 30.192H190.841ZM189.593 25.584L194.127 21.6544C192.145 19.368 189.429 18.144 186.425 18.144V24.144V30.144C186.297 30.144 186.023 30.1158 185.694 29.9662C185.363 29.816 185.154 29.6233 185.058 29.5136L189.593 25.584ZM186.425 24.144V18.144C184.552 18.144 182.671 18.6089 180.962 19.6664L184.121 24.768L187.279 29.8696C187.118 29.9693 186.942 30.0446 186.769 30.0914C186.6 30.1372 186.477 30.144 186.425 30.144V24.144ZM184.121 24.768L180.962 19.6664C179.019 20.8693 177.777 22.6109 177.022 24.3725L182.537 26.736L188.051 29.0995C188.061 29.0767 188.022 29.1756 187.895 29.3341C187.761 29.5003 187.557 29.6973 187.279 29.8696L184.121 24.768ZM182.537 26.736L177.054 24.2992C176.198 26.2247 175.961 28.3092 175.961 30.192H181.961H187.961C187.961 29.7295 187.992 29.4196 188.023 29.2344C188.054 29.0462 188.075 29.0482 188.019 29.1728L182.537 26.736ZM181.961 30.192H175.961C175.961 32.8604 176.444 36.1564 178.674 38.7296L183.209 34.8L187.743 30.8704C188.048 31.2229 188.094 31.4704 188.064 31.3595C188.031 31.2383 187.961 30.8798 187.961 30.192H181.961ZM183.209 34.8L178.674 38.7296C180.688 41.0531 183.438 42.24 186.425 42.24V36.24V30.24C186.514 30.24 186.768 30.2601 187.089 30.4039C187.415 30.5499 187.633 30.744 187.743 30.8704L183.209 34.8ZM204.452 41.328L200.209 45.5706C200.239 45.6007 200.269 45.6305 200.3 45.6599L204.452 41.328ZM204.404 19.056L200.161 14.8134C200.13 14.8448 200.098 14.8766 200.068 14.9087L204.404 19.056ZM210.596 19.056L206.26 23.2033V23.2033L210.596 19.056ZM211.652 24.192V30.192C214.965 30.192 217.652 27.5057 217.652 24.192H211.652ZM211.172 24.192L205.253 23.2056C204.963 24.9453 205.453 26.7245 206.593 28.0702C207.733 29.416 209.408 30.192 211.172 30.192V24.192ZM213.62 19.632L209.778 15.0227C209.76 15.0379 209.742 15.0532 209.724 15.0686L213.62 19.632ZM218.612 17.856L218.805 23.8529L218.818 23.8524L218.612 17.856ZM220.676 18.576L216.16 22.527C216.248 22.6272 216.339 22.7245 216.433 22.8186L220.676 18.576ZM221.444 21.312H227.444C227.444 21.2644 227.443 21.2168 227.442 21.1692L221.444 21.312ZM220.724 24.048L225.606 27.5354V27.5354L220.724 24.048ZM217.988 25.248L218.507 31.2254C218.524 31.224 218.54 31.2225 218.556 31.221L217.988 25.248ZM216.884 25.344L216.364 19.3666C216.349 19.3678 216.335 19.3691 216.32 19.3705L216.884 25.344ZM213.188 26.784L217.43 31.0266C217.459 30.9978 217.488 30.9686 217.516 30.9392L213.188 26.784ZM210.932 41.328L206.689 37.0854L210.932 41.328ZM207.716 42.432V36.432C207.523 36.432 207.569 36.4057 207.766 36.4723C207.988 36.5473 208.303 36.7081 208.603 36.9961L204.452 41.328L200.3 45.6599C202.509 47.7765 205.276 48.432 207.716 48.432V42.432ZM204.452 41.328L208.694 37.0854C209.028 37.4192 209.213 37.7741 209.298 38.0239C209.375 38.2457 209.348 38.3072 209.348 38.112H203.348H197.348C197.348 40.5344 197.997 43.3583 200.209 45.5706L204.452 41.328ZM203.348 38.112H209.348V22.224H203.348H197.348V38.112H203.348ZM203.348 22.224H209.348C209.348 22.0347 209.373 22.0888 209.304 22.2974C209.226 22.5311 209.055 22.873 208.739 23.2033L204.404 19.056L200.068 14.9087C197.966 17.106 197.348 19.8568 197.348 22.224H203.348ZM204.404 19.056L208.646 23.2986C208.344 23.6006 208.008 23.7883 207.737 23.8843C207.491 23.9713 207.39 23.952 207.524 23.952V17.952V11.952C205.072 11.952 202.324 12.6507 200.161 14.8134L204.404 19.056ZM207.524 17.952V23.952C207.661 23.952 207.542 23.9721 207.27 23.8744C206.969 23.7661 206.594 23.5524 206.26 23.2033L210.596 19.056L214.931 14.9087C212.766 12.6453 209.959 11.952 207.524 11.952V17.952ZM210.596 19.056L206.26 23.2033C205.944 22.873 205.773 22.5311 205.695 22.2974C205.626 22.0888 205.652 22.0347 205.652 22.224H211.652H217.652C217.652 19.8568 217.033 17.106 214.931 14.9087L210.596 19.056ZM211.652 22.224H205.652V24.192H211.652H217.652V22.224H211.652ZM211.652 24.192V18.192H211.172V24.192V30.192H211.652V24.192ZM211.172 24.192L217.09 25.1784C217.209 24.4615 217.415 24.2805 217.515 24.1954L213.62 19.632L209.724 15.0686C207.2 17.2235 205.774 20.0825 205.253 23.2056L211.172 24.192ZM213.62 19.632L217.461 24.2413C217.641 24.0911 217.968 23.8799 218.805 23.8529L218.612 17.856L218.418 11.8591C215.287 11.9601 212.286 12.9329 209.778 15.0227L213.62 19.632ZM218.612 17.856L218.818 23.8524C218.735 23.8553 218.367 23.8586 217.847 23.6772C217.283 23.4803 216.668 23.108 216.16 22.527L220.676 18.576L225.191 14.625C223.163 12.3072 220.438 11.7895 218.405 11.8596L218.612 17.856ZM220.676 18.576L216.433 22.8186C215.714 22.0995 215.497 21.4045 215.451 21.2415C215.4 21.0615 215.437 21.0925 215.445 21.4548L221.444 21.312L227.442 21.1692C227.404 19.5928 227.154 16.5689 224.918 14.3334L220.676 18.576ZM221.444 21.312H215.444C215.444 21.6934 215.358 21.2372 215.841 20.5606L220.724 24.048L225.606 27.5354C227.049 25.5148 227.444 23.2346 227.444 21.312H221.444ZM220.724 24.048L215.841 20.5606C216.348 19.8516 216.94 19.5018 217.27 19.3573C217.564 19.2281 217.666 19.2515 217.419 19.275L217.988 25.248L218.556 31.221C220.56 31.0302 223.625 30.309 225.606 27.5354L220.724 24.048ZM217.988 25.248L217.468 19.2706L216.364 19.3666L216.884 25.344L217.403 31.3214L218.507 31.2254L217.988 25.248ZM216.884 25.344L216.32 19.3705C213.928 19.5962 211.038 20.3596 208.859 22.6288L213.188 26.784L217.516 30.9392C217.191 31.2776 216.908 31.3982 216.866 31.4147C216.847 31.422 216.88 31.4075 216.98 31.3856C217.08 31.3638 217.232 31.3377 217.447 31.3175L216.884 25.344ZM213.188 26.784L208.945 22.5414C206.655 24.8314 206.036 27.7791 206.036 30.24H212.036H218.036C218.036 29.9541 218.073 29.9482 218.016 30.1214C217.948 30.3236 217.779 30.6777 217.43 31.0266L213.188 26.784ZM212.036 30.24H206.036V38.112H212.036H218.036V30.24H212.036ZM212.036 38.112H206.036C206.036 38.3072 206.008 38.2457 206.085 38.0239C206.17 37.7741 206.355 37.4192 206.689 37.0854L210.932 41.328L215.174 45.5706C217.387 43.3583 218.036 40.5344 218.036 38.112H212.036ZM210.932 41.328L206.689 37.0854C207.023 36.7515 207.378 36.5668 207.627 36.4811C207.849 36.4049 207.911 36.432 207.716 36.432V42.432V48.432C210.138 48.432 212.962 47.7829 215.174 45.5706L210.932 41.328ZM225.264 41.232L229.68 37.1697L225.264 41.232ZM225.264 19.152L229.68 23.2143V23.2143L225.264 19.152ZM231.552 19.152L227.136 23.2143C227.165 23.2456 227.194 23.2766 227.224 23.3072L231.552 19.152ZM231.6 41.232L236.016 45.2943L231.6 41.232ZM224.88 13.488L220.916 17.9923C220.945 18.0179 220.975 18.0433 221.004 18.0683L224.88 13.488ZM224.88 7.392L221.004 2.81168C220.975 2.83674 220.945 2.86209 220.916 2.88771L224.88 7.392ZM231.936 7.392L227.972 11.8963V11.8963L231.936 7.392ZM231.936 13.488L235.9 17.9923V17.9923L231.936 13.488ZM228.384 42.432V36.432C228.301 36.432 228.457 36.4193 228.75 36.5319C229.07 36.655 229.406 36.8724 229.68 37.1697L225.264 41.232L220.848 45.2943C222.98 47.6114 225.788 48.432 228.384 48.432V42.432ZM225.264 41.232L229.68 37.1697C229.966 37.4808 230.1 37.7812 230.152 37.9422C230.195 38.0799 230.16 38.0528 230.16 37.776H224.16H218.16C218.16 40.2038 218.759 43.0228 220.848 45.2943L225.264 41.232ZM224.16 37.776H230.16V22.608H224.16H218.16V37.776H224.16ZM224.16 22.608H230.16C230.16 22.3312 230.195 22.3041 230.152 22.4418C230.1 22.6028 229.966 22.9032 229.68 23.2143L225.264 19.152L220.848 15.0897C218.759 17.3612 218.16 20.1802 218.16 22.608H224.16ZM225.264 19.152L229.68 23.2143C229.406 23.5116 229.07 23.729 228.75 23.8521C228.457 23.9647 228.301 23.952 228.384 23.952V17.952V11.952C225.788 11.952 222.98 12.7726 220.848 15.0897L225.264 19.152ZM228.384 17.952V23.952C228.5 23.952 228.364 23.9696 228.083 23.863C227.772 23.7453 227.426 23.5288 227.136 23.2143L231.552 19.152L235.968 15.0897C233.809 12.7436 230.963 11.952 228.384 11.952V17.952ZM231.552 19.152L227.224 23.3072C226.935 23.006 226.786 22.7005 226.724 22.5134C226.67 22.3517 226.704 22.3533 226.704 22.608H232.704H238.704C238.704 20.1181 238.056 17.2633 235.88 14.9968L231.552 19.152ZM232.704 22.608H226.704V37.776H232.704H238.704V22.608H232.704ZM232.704 37.776H226.704C226.704 38.0528 226.669 38.0799 226.713 37.9422C226.764 37.7812 226.898 37.4808 227.184 37.1697L231.6 41.232L236.016 45.2943C238.105 43.0228 238.704 40.2038 238.704 37.776H232.704ZM231.6 41.232L227.184 37.1697C227.489 36.8382 227.846 36.6228 228.147 36.5106C228.416 36.4099 228.531 36.432 228.384 36.432V42.432V48.432C230.946 48.432 233.832 47.6683 236.016 45.2943L231.6 41.232ZM228.384 14.544V8.544C228.088 8.544 228.021 8.50798 228.111 8.53521C228.22 8.56806 228.473 8.66879 228.756 8.90768L224.88 13.488L221.004 18.0683C223.269 19.9847 225.998 20.544 228.384 20.544V14.544ZM224.88 13.488L228.844 8.98372C229.186 9.28503 229.432 9.65776 229.569 10.0089C229.694 10.3285 229.68 10.5023 229.68 10.416H223.68H217.68C217.68 13 218.498 15.8642 220.916 17.9923L224.88 13.488ZM223.68 10.416H229.68C229.68 10.363 229.688 10.5579 229.557 10.8891C229.414 11.2493 229.168 11.6112 228.844 11.8963L224.88 7.392L220.916 2.88771C218.529 4.98812 217.68 7.81177 217.68 10.416H223.68ZM224.88 7.392L228.756 11.9723C228.473 12.2112 228.22 12.3119 228.111 12.3448C228.021 12.372 228.088 12.336 228.384 12.336V6.336V0.335999C225.998 0.335999 223.269 0.895339 221.004 2.81168L224.88 7.392ZM228.384 6.336V12.336C228.737 12.336 228.827 12.3776 228.738 12.3512C228.629 12.3188 228.32 12.2026 227.972 11.8963L231.936 7.392L235.9 2.88772C233.587 0.852844 230.739 0.335999 228.384 0.335999V6.336ZM231.936 7.392L227.972 11.8963C227.648 11.6112 227.402 11.2493 227.259 10.8891C227.128 10.5579 227.136 10.363 227.136 10.416H233.136H239.136C239.136 7.81177 238.287 4.98812 235.9 2.88771L231.936 7.392ZM233.136 10.416H227.136C227.136 10.5023 227.122 10.3285 227.247 10.0089C227.384 9.65776 227.63 9.28503 227.972 8.98372L231.936 13.488L235.9 17.9923C238.318 15.8642 239.136 13 239.136 10.416H233.136ZM231.936 13.488L227.972 8.98372C228.32 8.67739 228.629 8.56116 228.738 8.52878C228.827 8.50237 228.737 8.544 228.384 8.544V14.544V20.544C230.739 20.544 233.587 20.0272 235.9 17.9923L231.936 13.488ZM241.452 41.424L238.421 46.6021C238.453 46.6206 238.485 46.6389 238.517 46.6569L241.452 41.424ZM238.476 38.016L232.955 40.3653C232.969 40.3982 232.983 40.431 232.998 40.4636L238.476 38.016ZM238.62 19.056L242.767 23.3919C242.799 23.3611 242.831 23.3301 242.863 23.2986L238.62 19.056ZM244.956 19.056L240.713 23.2986C240.745 23.3301 240.777 23.3611 240.809 23.3919L244.956 19.056ZM246.78 35.136L251.389 31.2949L246.78 35.136ZM251.868 34.752L247.374 30.7766V30.7766L251.868 34.752ZM254.076 19.056L258.223 23.3919C258.256 23.3611 258.287 23.3301 258.319 23.2986L254.076 19.056ZM260.412 19.056L256.169 23.2986C256.201 23.3301 256.233 23.3611 256.265 23.3919L260.412 19.056ZM254.268 41.328L258.511 37.0854L254.268 41.328ZM253.164 35.328L258.868 33.4656C257.952 30.6616 255.134 28.939 252.221 29.4026C249.308 29.8661 247.164 32.3783 247.164 35.328H253.164ZM253.932 37.68L259.406 40.1375C260.017 38.7763 260.099 37.2361 259.636 35.8176L253.932 37.68ZM250.956 41.28L247.686 36.2493C247.667 36.262 247.647 36.2748 247.628 36.2877L250.956 41.28ZM246.492 42.528V36.528C245.116 36.528 244.537 36.2749 244.388 36.1911L241.452 41.424L238.517 46.6569C240.991 48.0451 243.772 48.528 246.492 48.528V42.528ZM241.452 41.424L244.483 36.2459C244.343 36.164 244.16 36.0299 243.954 35.5684L238.476 38.016L232.998 40.4636C234.136 43.0101 235.937 45.148 238.421 46.6021L241.452 41.424ZM238.476 38.016L243.997 35.6667C243.774 35.1437 243.516 34.1075 243.516 32.304H237.516H231.516C231.516 35.1085 231.898 37.8803 232.955 40.3653L238.476 38.016ZM237.516 32.304H243.516V22.224H237.516H231.516V32.304H237.516ZM237.516 22.224H243.516C243.516 22.0257 243.544 22.1035 243.458 22.3505C243.361 22.6292 243.15 23.0255 242.767 23.3919L238.62 19.056L234.473 14.7201C232.158 16.9346 231.516 19.8215 231.516 22.224H237.516ZM238.62 19.056L242.863 23.2986C242.545 23.6166 242.199 23.8029 241.939 23.8938C241.705 23.9753 241.623 23.952 241.788 23.952V17.952V11.952C239.352 11.952 236.565 12.6254 234.377 14.8134L238.62 19.056ZM241.788 17.952V23.952C241.953 23.952 241.871 23.9753 241.638 23.8938C241.377 23.8029 241.031 23.6166 240.713 23.2986L244.956 19.056L249.199 14.8134C247.011 12.6254 244.224 11.952 241.788 11.952V17.952ZM244.956 19.056L240.809 23.3919C240.426 23.0255 240.215 22.6292 240.118 22.3505C240.032 22.1035 240.06 22.0257 240.06 22.224H246.06H252.06C252.06 19.8215 251.418 16.9346 249.103 14.7201L244.956 19.056ZM246.06 22.224H240.06V32.544H246.06H252.06V22.224H246.06ZM246.06 32.544H240.06C240.06 34.3814 240.42 36.8765 242.171 38.9771L246.78 35.136L251.389 31.2949C251.79 31.7757 251.957 32.2205 252.021 32.4501C252.081 32.6649 252.06 32.7229 252.06 32.544H246.06ZM246.78 35.136L242.171 38.9771C244.168 41.3733 246.919 42 249.036 42V36V30C249.067 30 249.383 30.002 249.85 30.1809C250.359 30.3759 250.924 30.7365 251.389 31.2949L246.78 35.136ZM249.036 36V42C251.834 42 254.44 40.9002 256.362 38.7274L251.868 34.752L247.374 30.7766C247.535 30.5943 247.808 30.3651 248.189 30.1975C248.563 30.0323 248.876 30 249.036 30V36ZM251.868 34.752L256.362 38.7274C258.285 36.5537 258.972 33.9168 258.972 31.44H252.972H246.972C246.972 31.5976 246.951 31.5624 247.004 31.4026C247.063 31.2255 247.182 30.9942 247.374 30.7766L251.868 34.752ZM252.972 31.44H258.972V22.224H252.972H246.972V31.44H252.972ZM252.972 22.224H258.972C258.972 22.0257 259 22.1035 258.914 22.3505C258.817 22.6292 258.606 23.0255 258.223 23.3919L254.076 19.056L249.929 14.7201C247.614 16.9346 246.972 19.8215 246.972 22.224H252.972ZM254.076 19.056L258.319 23.2986C258.001 23.6166 257.655 23.8029 257.395 23.8938C257.161 23.9753 257.079 23.952 257.244 23.952V17.952V11.952C254.808 11.952 252.021 12.6254 249.833 14.8134L254.076 19.056ZM257.244 17.952V23.952C257.409 23.952 257.327 23.9753 257.094 23.8938C256.833 23.8029 256.487 23.6166 256.169 23.2986L260.412 19.056L264.655 14.8134C262.467 12.6254 259.68 11.952 257.244 11.952V17.952ZM260.412 19.056L256.265 23.3919C255.882 23.0255 255.671 22.6292 255.574 22.3505C255.488 22.1035 255.516 22.0257 255.516 22.224H261.516H267.516C267.516 19.8215 266.874 16.9346 264.559 14.7201L260.412 19.056ZM261.516 22.224H255.516V38.112H261.516H267.516V22.224H261.516ZM261.516 38.112H255.516C255.516 38.6936 255.373 38.0162 256.146 37.2069C256.968 36.3465 257.768 36.432 257.388 36.432V42.432V48.432C259.76 48.432 262.624 47.7975 264.822 45.4971C266.971 43.2478 267.516 40.4104 267.516 38.112H261.516ZM257.388 42.432V36.432C257.254 36.432 257.356 36.4127 257.602 36.4997C257.873 36.5957 258.209 36.7834 258.511 37.0854L254.268 41.328L250.025 45.5706C252.188 47.7333 254.937 48.432 257.388 48.432V42.432ZM254.268 41.328L258.511 37.0854C258.845 37.4192 259.029 37.7741 259.115 38.0239C259.191 38.2457 259.164 38.3072 259.164 38.112H253.164H247.164C247.164 40.5344 247.813 43.3583 250.025 45.5706L254.268 41.328ZM253.164 38.112H259.164V35.328H253.164H247.164V38.112H253.164ZM253.164 35.328L247.46 37.1904L248.228 39.5424L253.932 37.68L259.636 35.8176L258.868 33.4656L253.164 35.328ZM253.932 37.68L248.458 35.2225C248.165 35.8753 247.881 36.1224 247.686 36.2493L250.956 41.28L254.226 46.3107C256.591 44.7736 258.291 42.6207 259.406 40.1375L253.932 37.68ZM250.956 41.28L247.628 36.2877C247.509 36.367 247.221 36.528 246.492 36.528V42.528V48.528C249.22 48.528 251.907 47.857 254.284 46.2723L250.956 41.28ZM267.688 41.328L271.931 37.0854V37.0854L267.688 41.328ZM267.64 19.056L263.398 14.8134C263.366 14.8448 263.335 14.8766 263.304 14.9087L267.64 19.056ZM273.832 19.056L269.496 23.2033V23.2033L273.832 19.056ZM274.888 24.864L269.034 26.1782C269.704 29.1618 272.51 31.1644 275.549 30.8275C278.589 30.4905 280.888 27.9219 280.888 24.864H274.888ZM274.36 22.512L268.945 19.9276C268.366 21.1412 268.211 22.5142 268.506 23.8262L274.36 22.512ZM277.336 19.152L280.549 24.2191C280.56 24.2124 280.57 24.2058 280.581 24.1991L277.336 19.152ZM286.504 19.104L283.116 24.0558C283.136 24.0695 283.156 24.0829 283.176 24.0963L286.504 19.104ZM289.192 22.896V28.896C291.109 28.896 292.91 27.9803 294.04 26.4319C295.169 24.8834 295.491 22.8885 294.905 21.0634L289.192 22.896ZM288.52 22.896L283.089 20.3466C282.216 22.205 282.355 24.3805 283.456 26.1134C284.557 27.8463 286.467 28.896 288.52 28.896V22.896ZM301.288 18.96L298.121 24.0557C298.154 24.0765 298.188 24.097 298.222 24.1172L301.288 18.96ZM303.928 22.32L298.31 24.4267C298.328 24.4743 298.346 24.5216 298.366 24.5687L303.928 22.32ZM303.688 41.328L299.537 36.9961C299.506 37.0255 299.476 37.0553 299.446 37.0854L303.688 41.328ZM297.4 41.328L301.643 37.0854L297.4 41.328ZM290.872 25.632L286.116 21.9737C286.086 22.0128 286.057 22.0521 286.028 22.0919L290.872 25.632ZM288.856 41.328L284.614 37.0854V37.0854L288.856 41.328ZM282.52 41.328L286.763 37.0854L282.52 41.328ZM280.792 25.296L285.744 21.9079L285.744 21.9079L280.792 25.296ZM276.04 25.632L271.284 21.9737C271.254 22.0128 271.225 22.0521 271.196 22.0919L276.04 25.632ZM270.808 42.432V36.432C270.674 36.432 270.776 36.4127 271.022 36.4997C271.293 36.5957 271.629 36.7834 271.931 37.0854L267.688 41.328L263.446 45.5706C265.608 47.7333 268.357 48.432 270.808 48.432V42.432ZM267.688 41.328L271.931 37.0854C272.265 37.4192 272.449 37.7741 272.535 38.0239C272.611 38.2457 272.584 38.3072 272.584 38.112H266.584H260.584C260.584 40.5344 261.233 43.3583 263.446 45.5706L267.688 41.328ZM266.584 38.112H272.584V22.224H266.584H260.584V38.112H266.584ZM266.584 22.224H272.584C272.584 22.0347 272.61 22.0888 272.54 22.2974C272.462 22.5311 272.292 22.873 271.976 23.2033L267.64 19.056L263.304 14.9087C261.203 17.106 260.584 19.8568 260.584 22.224H266.584ZM267.64 19.056L271.883 23.2986C271.581 23.6006 271.245 23.7883 270.974 23.8843C270.728 23.9713 270.626 23.952 270.76 23.952V17.952V11.952C268.309 11.952 265.56 12.6507 263.398 14.8134L267.64 19.056ZM270.76 17.952V23.952C270.897 23.952 270.779 23.9721 270.507 23.8744C270.206 23.7661 269.83 23.5524 269.496 23.2033L273.832 19.056L278.168 14.9087C276.003 12.6452 273.195 11.952 270.76 11.952V17.952ZM273.832 19.056L269.496 23.2033C269.18 22.873 269.01 22.5311 268.932 22.2974C268.863 22.0888 268.888 22.0347 268.888 22.224H274.888H280.888C280.888 19.8568 280.27 17.106 278.168 14.9087L273.832 19.056ZM274.888 22.224H268.888V24.864H274.888H280.888V22.224H274.888ZM274.888 24.864L280.742 23.5498L280.214 21.1978L274.36 22.512L268.506 23.8262L269.034 26.1782L274.888 24.864ZM274.36 22.512L279.775 25.0964C279.963 24.7019 280.194 24.4442 280.549 24.2191L277.336 19.152L274.123 14.0849C271.854 15.5238 270.101 17.5061 268.945 19.9276L274.36 22.512ZM277.336 19.152L280.581 24.1991C280.825 24.0419 281.247 23.856 282.088 23.856V17.856V11.856C279.281 11.856 276.535 12.5341 274.092 14.1049L277.336 19.152ZM282.088 17.856V23.856C282.821 23.856 283.061 24.0183 283.116 24.0558L286.504 19.104L289.892 14.1522C287.515 12.5257 284.811 11.856 282.088 11.856V17.856ZM286.504 19.104L283.176 24.0963C283.178 24.0978 283.178 24.0979 283.18 24.0994C283.182 24.1012 283.195 24.114 283.217 24.1458C283.262 24.2087 283.367 24.3793 283.479 24.7286L289.192 22.896L294.905 21.0634C294.028 18.3266 292.412 15.8315 289.832 14.1117L286.504 19.104ZM289.192 22.896V16.896H288.52V22.896V28.896H289.192V22.896ZM288.52 22.896L293.952 25.4454C294.19 24.9386 294.492 24.605 294.952 24.3252L291.832 19.2L288.712 14.0748C286.228 15.587 284.323 17.7174 283.089 20.3466L288.52 22.896ZM291.832 19.2L294.952 24.3252C295.445 24.0248 295.991 23.856 296.728 23.856V17.856V11.856C293.882 11.856 291.163 12.5832 288.712 14.0748L291.832 19.2ZM296.728 17.856V23.856C297.826 23.856 298.153 24.0762 298.121 24.0557L301.288 18.96L304.456 13.8643C302.055 12.3718 299.343 11.856 296.728 11.856V17.856ZM301.288 18.96L298.222 24.1172C298.196 24.1017 298.169 24.0823 298.146 24.062C298.123 24.0419 298.115 24.0302 298.118 24.0349C298.125 24.0438 298.206 24.1495 298.31 24.4267L303.928 22.32L309.546 20.2133C308.586 17.6534 306.924 15.3308 304.355 13.8028L301.288 18.96ZM303.928 22.32L298.366 24.5687C298.591 25.1253 298.84 26.1998 298.84 28.032H304.84H310.84C310.84 25.2562 310.482 22.5227 309.491 20.0713L303.928 22.32ZM304.84 28.032H298.84V38.112H304.84H310.84V28.032H304.84ZM304.84 38.112H298.84C298.84 38.2834 298.815 38.1948 298.904 37.9486C299.003 37.6726 299.203 37.3161 299.537 36.9961L303.688 41.328L307.84 45.6599C310.135 43.46 310.84 40.6036 310.84 38.112H304.84ZM303.688 41.328L299.446 37.0854C299.764 36.7674 300.109 36.5811 300.37 36.4902C300.604 36.4087 300.685 36.432 300.52 36.432V42.432V48.432C302.957 48.432 305.743 47.7586 307.931 45.5706L303.688 41.328ZM300.52 42.432V36.432C300.386 36.432 300.488 36.4127 300.734 36.4997C301.005 36.5957 301.341 36.7834 301.643 37.0854L297.4 41.328L293.158 45.5706C295.32 47.7333 298.069 48.432 300.52 48.432V42.432ZM297.4 41.328L301.643 37.0854C301.977 37.4192 302.161 37.7741 302.247 38.0239C302.323 38.2457 302.296 38.3072 302.296 38.112H296.296H290.296C290.296 40.5344 290.945 43.3583 293.158 45.5706L297.4 41.328ZM296.296 38.112H302.296V28.272H296.296H290.296V38.112H296.296ZM296.296 28.272H302.296C302.296 26.5852 302.097 24.0608 300.624 21.9079L295.672 25.296L290.72 28.6841C290.528 28.403 290.417 28.1615 290.355 28.0041C290.294 27.847 290.272 27.7468 290.268 27.7273C290.264 27.7065 290.272 27.739 290.28 27.837C290.289 27.9338 290.296 28.0767 290.296 28.272H296.296ZM295.672 25.296L300.624 21.9079C298.759 19.1824 295.881 18.384 293.608 18.384V24.384V30.384C293.475 30.384 293.019 30.3652 292.419 30.1001C291.765 29.8109 291.157 29.3218 290.72 28.6841L295.672 25.296ZM293.608 24.384V18.384C290.833 18.384 288.048 19.4623 286.116 21.9737L290.872 25.632L295.628 29.2903C295.38 29.6125 295.004 29.9372 294.526 30.1549C294.072 30.3622 293.721 30.384 293.608 30.384V24.384ZM290.872 25.632L286.028 22.0919C284.382 24.3446 283.96 26.9684 283.96 29.184H289.96H295.96C295.96 28.9962 295.97 28.8583 295.98 28.7644C295.991 28.6705 296.001 28.6309 296 28.6361C295.997 28.6473 295.937 28.8699 295.717 29.1721L290.872 25.632ZM289.96 29.184H283.96V38.112H289.96H295.96V29.184H289.96ZM289.96 38.112H283.96C283.96 38.3072 283.933 38.2457 284.009 38.0239C284.095 37.7741 284.28 37.4192 284.614 37.0854L288.856 41.328L293.099 45.5706C295.311 43.3583 295.96 40.5344 295.96 38.112H289.96ZM288.856 41.328L284.614 37.0854C284.932 36.7674 285.277 36.5811 285.538 36.4902C285.772 36.4087 285.853 36.432 285.688 36.432V42.432V48.432C288.125 48.432 290.911 47.7586 293.099 45.5706L288.856 41.328ZM285.688 42.432V36.432C285.523 36.432 285.605 36.4087 285.839 36.4902C286.1 36.5811 286.445 36.7674 286.763 37.0854L282.52 41.328L278.278 45.5706C280.466 47.7586 283.252 48.432 285.688 48.432V42.432ZM282.52 41.328L286.763 37.0854C287.097 37.4192 287.281 37.7741 287.367 38.0239C287.443 38.2457 287.416 38.3072 287.416 38.112H281.416H275.416C275.416 40.5344 276.065 43.3583 278.278 45.5706L282.52 41.328ZM281.416 38.112H287.416V28.272H281.416H275.416V38.112H281.416ZM281.416 28.272H287.416C287.416 26.5852 287.217 24.0608 285.744 21.9079L280.792 25.296L275.84 28.6841C275.648 28.403 275.537 28.1615 275.475 28.0041C275.414 27.847 275.392 27.7468 275.388 27.7273C275.384 27.7065 275.392 27.739 275.4 27.837C275.409 27.9338 275.416 28.0767 275.416 28.272H281.416ZM280.792 25.296L285.744 21.9079C283.879 19.1824 281.001 18.384 278.728 18.384V24.384V30.384C278.595 30.384 278.139 30.3652 277.539 30.1001C276.885 29.8109 276.277 29.3218 275.84 28.6841L280.792 25.296ZM278.728 24.384V18.384C275.922 18.384 273.182 19.5073 271.284 21.9737L276.04 25.632L280.796 29.2903C280.565 29.5903 280.201 29.9141 279.719 30.1381C279.254 30.3538 278.881 30.384 278.728 30.384V24.384ZM276.04 25.632L271.196 22.0919C269.55 24.3446 269.128 26.9684 269.128 29.184H275.128H281.128C281.128 28.9962 281.138 28.8583 281.148 28.7644C281.159 28.6705 281.169 28.6309 281.168 28.6361C281.165 28.6473 281.105 28.8699 280.885 29.1721L276.04 25.632ZM275.128 29.184H269.128V38.112H275.128H281.128V29.184H275.128ZM275.128 38.112H269.128C269.128 38.6271 269.003 37.9114 269.806 37.1094C270.608 36.3073 271.323 36.432 270.808 36.432V42.432V48.432C273.173 48.432 276.049 47.8367 278.291 45.5946C280.533 43.3526 281.128 40.4769 281.128 38.112H275.128Z" fill="#362F2D" mask="url(#path-1-outside-1_561_293)"/>
</svg>
