<svg width="106" height="28" viewBox="0 0 106 28" fill="none" xmlns="http://www.w3.org/2000/svg">
<g filter="url(#filter0_d_507_2871)">
<rect x="3" y="3" width="100" height="18" rx="9" fill="#FCF8B5"/>
<rect x="3" y="3" width="100" height="18" rx="9" stroke="#362F2D" stroke-width="5"/>
</g>
<path d="M20.9924 7L18.6929 7.05291C18.4962 7.05291 18.3147 7.13605 18.171 7.27211L13.4054 12.0416C12.6263 11.6561 11.6505 11.777 11 12.4271L12.5431 13.969L11.2572 15.254C10.9622 15.5488 10.9622 16.0249 11.2572 16.3197L11.6808 16.743C11.9758 17.0378 12.4523 17.0378 12.7474 16.743L14.0333 15.458L15.5764 17C16.2345 16.35 16.3555 15.3673 15.9622 14.5888L20.7277 9.82691C20.8638 9.69085 20.947 9.50189 20.947 9.31293L21 7.01512L20.9924 7Z" fill="#362F2D"/>
<path d="M41.4671 16C41.2111 16 41.0231 15.944 40.9031 15.832C40.7911 15.712 40.7351 15.54 40.7351 15.316C40.7351 15.18 40.7711 15.048 40.8431 14.92C40.9151 14.792 41.0191 14.656 41.1551 14.512L43.5671 11.944C43.9351 11.56 44.1991 11.212 44.3591 10.9C44.5191 10.58 44.5991 10.26 44.5991 9.94C44.5991 9.54 44.4711 9.236 44.2151 9.028C43.9671 8.82 43.6031 8.716 43.1231 8.716C42.8511 8.716 42.5791 8.756 42.3071 8.836C42.0351 8.908 41.7591 9.036 41.4791 9.22C41.3351 9.316 41.1991 9.356 41.0711 9.34C40.9511 9.324 40.8431 9.272 40.7471 9.184C40.6591 9.096 40.5991 8.988 40.5671 8.86C40.5351 8.732 40.5391 8.604 40.5791 8.476C40.6271 8.34 40.7231 8.224 40.8671 8.128C41.2111 7.896 41.5951 7.72 42.0191 7.6C42.4511 7.48 42.8831 7.42 43.3151 7.42C43.9231 7.42 44.4351 7.512 44.8511 7.696C45.2671 7.88 45.5831 8.148 45.7991 8.5C46.0151 8.852 46.1231 9.28 46.1231 9.784C46.1231 10.12 46.0671 10.448 45.9551 10.768C45.8511 11.088 45.6871 11.412 45.4631 11.74C45.2471 12.068 44.9631 12.416 44.6111 12.784L42.3551 15.136V14.728H45.8831C46.0991 14.728 46.2631 14.78 46.3751 14.884C46.4871 14.988 46.5431 15.144 46.5431 15.352C46.5431 15.56 46.4871 15.72 46.3751 15.832C46.2631 15.944 46.0991 16 45.8831 16H41.4671ZM50.6664 16.12C49.6664 16.12 48.9024 15.744 48.3744 14.992C47.8464 14.232 47.5824 13.152 47.5824 11.752C47.5824 10.808 47.6984 10.016 47.9304 9.376C48.1704 8.728 48.5184 8.24 48.9744 7.912C49.4384 7.584 50.0024 7.42 50.6664 7.42C51.6744 7.42 52.4384 7.788 52.9584 8.524C53.4864 9.26 53.7504 10.332 53.7504 11.74C53.7504 12.676 53.6304 13.472 53.3904 14.128C53.1584 14.776 52.8144 15.272 52.3584 15.616C51.9024 15.952 51.3384 16.12 50.6664 16.12ZM50.6664 14.86C51.2104 14.86 51.6104 14.608 51.8664 14.104C52.1304 13.6 52.2624 12.812 52.2624 11.74C52.2624 10.668 52.1304 9.892 51.8664 9.412C51.6104 8.924 51.2104 8.68 50.6664 8.68C50.1304 8.68 49.7304 8.924 49.4664 9.412C49.2024 9.892 49.0704 10.668 49.0704 11.74C49.0704 12.812 49.2024 13.6 49.4664 14.104C49.7304 14.608 50.1304 14.86 50.6664 14.86ZM57.8617 16.12C56.8617 16.12 56.0977 15.744 55.5697 14.992C55.0417 14.232 54.7777 13.152 54.7777 11.752C54.7777 10.808 54.8937 10.016 55.1257 9.376C55.3657 8.728 55.7137 8.24 56.1697 7.912C56.6337 7.584 57.1977 7.42 57.8617 7.42C58.8697 7.42 59.6337 7.788 60.1537 8.524C60.6817 9.26 60.9457 10.332 60.9457 11.74C60.9457 12.676 60.8257 13.472 60.5857 14.128C60.3537 14.776 60.0097 15.272 59.5537 15.616C59.0977 15.952 58.5337 16.12 57.8617 16.12ZM57.8617 14.86C58.4057 14.86 58.8057 14.608 59.0617 14.104C59.3257 13.6 59.4577 12.812 59.4577 11.74C59.4577 10.668 59.3257 9.892 59.0617 9.412C58.8057 8.924 58.4057 8.68 57.8617 8.68C57.3257 8.68 56.9257 8.924 56.6617 9.412C56.3977 9.892 56.2657 10.668 56.2657 11.74C56.2657 12.812 56.3977 13.6 56.6617 14.104C56.9257 14.608 57.3257 14.86 57.8617 14.86ZM62.513 16.348C62.465 16.5 62.389 16.608 62.285 16.672C62.181 16.744 62.065 16.78 61.937 16.78C61.817 16.78 61.705 16.748 61.601 16.684C61.497 16.62 61.425 16.528 61.385 16.408C61.337 16.296 61.337 16.16 61.385 16L64.157 7.396C64.205 7.244 64.281 7.132 64.385 7.06C64.497 6.988 64.613 6.956 64.733 6.964C64.853 6.964 64.965 6.996 65.069 7.06C65.173 7.124 65.245 7.212 65.285 7.324C65.333 7.436 65.333 7.572 65.285 7.732L62.513 16.348ZM67.0908 16C66.8828 16 66.7188 15.944 66.5988 15.832C66.4868 15.712 66.4308 15.552 66.4308 15.352C66.4308 15.144 66.4868 14.988 66.5988 14.884C66.7188 14.78 66.8828 14.728 67.0908 14.728H68.4348V8.836H69.1788L67.4148 9.904C67.2628 9.992 67.1188 10.028 66.9827 10.012C66.8548 9.988 66.7428 9.932 66.6468 9.844C66.5588 9.748 66.4988 9.636 66.4668 9.508C66.4348 9.38 66.4428 9.252 66.4908 9.124C66.5468 8.988 66.6508 8.876 66.8027 8.788L68.4588 7.792C68.6188 7.696 68.7788 7.616 68.9388 7.552C69.0988 7.48 69.2468 7.444 69.3828 7.444C69.5508 7.444 69.6908 7.492 69.8028 7.588C69.9148 7.676 69.9708 7.824 69.9708 8.032V14.728H71.1948C71.4028 14.728 71.5628 14.78 71.6748 14.884C71.7948 14.988 71.8548 15.144 71.8548 15.352C71.8548 15.56 71.7948 15.72 71.6748 15.832C71.5628 15.944 71.4028 16 71.1948 16H67.0908ZM76.0141 16.12C75.0141 16.12 74.2501 15.744 73.7221 14.992C73.1941 14.232 72.9301 13.152 72.9301 11.752C72.9301 10.808 73.0461 10.016 73.2781 9.376C73.5181 8.728 73.8661 8.24 74.3221 7.912C74.7861 7.584 75.3501 7.42 76.0141 7.42C77.0221 7.42 77.7861 7.788 78.3061 8.524C78.8341 9.26 79.0981 10.332 79.0981 11.74C79.0981 12.676 78.9781 13.472 78.7381 14.128C78.5061 14.776 78.1621 15.272 77.7061 15.616C77.2501 15.952 76.6861 16.12 76.0141 16.12ZM76.0141 14.86C76.5581 14.86 76.9581 14.608 77.2141 14.104C77.4781 13.6 77.6101 12.812 77.6101 11.74C77.6101 10.668 77.4781 9.892 77.2141 9.412C76.9581 8.924 76.5581 8.68 76.0141 8.68C75.4781 8.68 75.0781 8.924 74.8141 9.412C74.5501 9.892 74.4181 10.668 74.4181 11.74C74.4181 12.812 74.5501 13.6 74.8141 14.104C75.0781 14.608 75.4781 14.86 76.0141 14.86ZM83.2094 16.12C82.2094 16.12 81.4454 15.744 80.9174 14.992C80.3894 14.232 80.1254 13.152 80.1254 11.752C80.1254 10.808 80.2414 10.016 80.4734 9.376C80.7134 8.728 81.0614 8.24 81.5174 7.912C81.9814 7.584 82.5454 7.42 83.2094 7.42C84.2174 7.42 84.9814 7.788 85.5014 8.524C86.0294 9.26 86.2934 10.332 86.2934 11.74C86.2934 12.676 86.1734 13.472 85.9334 14.128C85.7014 14.776 85.3574 15.272 84.9014 15.616C84.4454 15.952 83.8814 16.12 83.2094 16.12ZM83.2094 14.86C83.7534 14.86 84.1534 14.608 84.4094 14.104C84.6734 13.6 84.8054 12.812 84.8054 11.74C84.8054 10.668 84.6734 9.892 84.4094 9.412C84.1534 8.924 83.7534 8.68 83.2094 8.68C82.6734 8.68 82.2734 8.924 82.0094 9.412C81.7454 9.892 81.6134 10.668 81.6134 11.74C81.6134 12.812 81.7454 13.6 82.0094 14.104C82.2734 14.608 82.6734 14.86 83.2094 14.86ZM90.4047 16.12C89.4047 16.12 88.6407 15.744 88.1127 14.992C87.5847 14.232 87.3207 13.152 87.3207 11.752C87.3207 10.808 87.4367 10.016 87.6687 9.376C87.9087 8.728 88.2567 8.24 88.7127 7.912C89.1767 7.584 89.7407 7.42 90.4047 7.42C91.4127 7.42 92.1767 7.788 92.6967 8.524C93.2247 9.26 93.4887 10.332 93.4887 11.74C93.4887 12.676 93.3687 13.472 93.1287 14.128C92.8967 14.776 92.5527 15.272 92.0967 15.616C91.6407 15.952 91.0767 16.12 90.4047 16.12ZM90.4047 14.86C90.9487 14.86 91.3487 14.608 91.6047 14.104C91.8687 13.6 92.0007 12.812 92.0007 11.74C92.0007 10.668 91.8687 9.892 91.6047 9.412C91.3487 8.924 90.9487 8.68 90.4047 8.68C89.8687 8.68 89.4687 8.924 89.2047 9.412C88.9407 9.892 88.8087 10.668 88.8087 11.74C88.8087 12.812 88.9407 13.6 89.2047 14.104C89.4687 14.608 89.8687 14.86 90.4047 14.86Z" fill="#362F2D"/>
<defs>
<filter id="filter0_d_507_2871" x="0.5" y="0.5" width="105" height="27" filterUnits="userSpaceOnUse" color-interpolation-filters="sRGB">
<feFlood flood-opacity="0" result="BackgroundImageFix"/>
<feColorMatrix in="SourceAlpha" type="matrix" values="0 0 0 0 0 0 0 0 0 0 0 0 0 0 0 0 0 0 127 0" result="hardAlpha"/>
<feOffset dy="4"/>
<feComposite in2="hardAlpha" operator="out"/>
<feColorMatrix type="matrix" values="0 0 0 0 0 0 0 0 0 0 0 0 0 0 0 0 0 0 0.25 0"/>
<feBlend mode="normal" in2="BackgroundImageFix" result="effect1_dropShadow_507_2871"/>
<feBlend mode="normal" in="SourceGraphic" in2="effect1_dropShadow_507_2871" result="shape"/>
</filter>
</defs>
</svg>
