<svg width="106" height="28" viewBox="0 0 106 28" fill="none" xmlns="http://www.w3.org/2000/svg">
<g filter="url(#filter0_d_621_215)">
<rect x="3" y="3" width="100" height="18" rx="9" fill="#FF6BA8"/>
<rect x="3" y="3" width="100" height="18" rx="9" stroke="#362F2D" stroke-width="5"/>
</g>
<path d="M16.3491 15.9082C16.1349 16.0172 15.8636 16.0172 15.6494 15.9082C11.08 13.6316 9.93056 10.2263 11.9725 8.59744C14.0287 6.95572 15.9993 9.16178 15.9993 9.16178C15.9993 9.16178 17.9627 6.95572 20.026 8.59744C22.068 10.2263 20.9256 13.6316 16.3491 15.9082Z" fill="#362F2D"/>
<path d="M50.4984 16.12C50.0664 16.12 49.6184 16.064 49.1544 15.952C48.6904 15.84 48.2864 15.672 47.9424 15.448C47.7824 15.344 47.6744 15.224 47.6184 15.088C47.5624 14.952 47.5464 14.824 47.5704 14.704C47.6024 14.576 47.6624 14.468 47.7504 14.38C47.8464 14.292 47.9624 14.24 48.0984 14.224C48.2424 14.208 48.3984 14.244 48.5664 14.332C48.8944 14.508 49.2104 14.636 49.5144 14.716C49.8184 14.788 50.1304 14.824 50.4504 14.824C50.8024 14.824 51.0984 14.776 51.3384 14.68C51.5784 14.584 51.7584 14.44 51.8784 14.248C52.0064 14.056 52.0704 13.824 52.0704 13.552C52.0704 13.152 51.9344 12.856 51.6624 12.664C51.3984 12.464 51.0104 12.364 50.4984 12.364H49.7304C49.5064 12.364 49.3344 12.308 49.2144 12.196C49.1024 12.084 49.0464 11.928 49.0464 11.728C49.0464 11.528 49.1024 11.372 49.2144 11.26C49.3344 11.148 49.5064 11.092 49.7304 11.092H50.3544C50.6584 11.092 50.9184 11.044 51.1344 10.948C51.3504 10.844 51.5184 10.7 51.6384 10.516C51.7584 10.332 51.8184 10.108 51.8184 9.844C51.8184 9.476 51.6944 9.196 51.4464 9.004C51.2064 8.812 50.8544 8.716 50.3904 8.716C50.0944 8.716 49.8144 8.752 49.5504 8.824C49.2944 8.888 49.0104 9.012 48.6984 9.196C48.5544 9.284 48.4144 9.32 48.2784 9.304C48.1504 9.288 48.0424 9.236 47.9544 9.148C47.8664 9.06 47.8064 8.956 47.7744 8.836C47.7424 8.708 47.7504 8.58 47.7984 8.452C47.8464 8.316 47.9464 8.2 48.0984 8.104C48.4424 7.88 48.8224 7.712 49.2384 7.6C49.6544 7.48 50.0824 7.42 50.5224 7.42C51.1064 7.42 51.6064 7.512 52.0224 7.696C52.4384 7.872 52.7544 8.128 52.9704 8.464C53.1944 8.792 53.3064 9.192 53.3064 9.664C53.3064 10 53.2424 10.308 53.1144 10.588C52.9864 10.86 52.8064 11.092 52.5744 11.284C52.3424 11.476 52.0624 11.612 51.7344 11.692V11.548C52.3104 11.644 52.7584 11.884 53.0784 12.268C53.3984 12.644 53.5584 13.116 53.5584 13.684C53.5584 14.18 53.4344 14.612 53.1864 14.98C52.9384 15.348 52.5864 15.632 52.1304 15.832C51.6744 16.024 51.1304 16.12 50.4984 16.12ZM57.9337 16.12C57.5097 16.12 57.0777 16.064 56.6377 15.952C56.1977 15.84 55.7937 15.668 55.4257 15.436C55.2737 15.34 55.1697 15.228 55.1137 15.1C55.0657 14.964 55.0537 14.832 55.0777 14.704C55.1097 14.568 55.1697 14.456 55.2577 14.368C55.3537 14.272 55.4657 14.216 55.5937 14.2C55.7297 14.184 55.8777 14.22 56.0377 14.308C56.3337 14.476 56.6337 14.604 56.9377 14.692C57.2417 14.78 57.5657 14.824 57.9097 14.824C58.2457 14.824 58.5337 14.764 58.7737 14.644C59.0137 14.524 59.1977 14.356 59.3257 14.14C59.4537 13.924 59.5177 13.672 59.5177 13.384C59.5177 12.936 59.3817 12.576 59.1097 12.304C58.8377 12.024 58.4657 11.884 57.9937 11.884C57.7377 11.884 57.4897 11.928 57.2497 12.016C57.0097 12.096 56.7737 12.24 56.5417 12.448C56.4697 12.512 56.3777 12.576 56.2657 12.64C56.1537 12.696 56.0337 12.724 55.9057 12.724C55.7057 12.724 55.5537 12.672 55.4497 12.568C55.3457 12.464 55.2937 12.32 55.2937 12.136V8.212C55.2937 7.996 55.3497 7.832 55.4617 7.72C55.5817 7.6 55.7497 7.54 55.9657 7.54H59.9137C60.1297 7.54 60.2937 7.596 60.4057 7.708C60.5257 7.812 60.5857 7.968 60.5857 8.176C60.5857 8.376 60.5257 8.532 60.4057 8.644C60.2937 8.756 60.1297 8.812 59.9137 8.812H56.7937V11.5H56.3977C56.6057 11.22 56.8817 11.004 57.2257 10.852C57.5697 10.7 57.9457 10.624 58.3537 10.624C58.8897 10.624 59.3537 10.74 59.7457 10.972C60.1457 11.196 60.4537 11.512 60.6697 11.92C60.8937 12.32 61.0057 12.788 61.0057 13.324C61.0057 13.876 60.8817 14.364 60.6337 14.788C60.3857 15.204 60.0297 15.532 59.5657 15.772C59.1097 16.004 58.5657 16.12 57.9337 16.12ZM63.521 16.096C63.337 16.096 63.185 16.052 63.065 15.964C62.945 15.876 62.873 15.76 62.849 15.616C62.825 15.464 62.861 15.296 62.957 15.112L66.581 8.296V8.824H62.693C62.477 8.824 62.309 8.768 62.189 8.656C62.077 8.544 62.021 8.388 62.021 8.188C62.021 7.98 62.077 7.82 62.189 7.708C62.309 7.596 62.477 7.54 62.693 7.54H67.337C67.553 7.54 67.729 7.596 67.865 7.708C68.001 7.82 68.069 7.98 68.069 8.188C68.069 8.364 68.045 8.52 67.997 8.656C67.949 8.784 67.885 8.924 67.805 9.076L64.397 15.592C64.309 15.768 64.193 15.896 64.049 15.976C63.913 16.056 63.737 16.096 63.521 16.096ZM69.7083 16.348C69.6603 16.5 69.5843 16.608 69.4803 16.672C69.3763 16.744 69.2603 16.78 69.1323 16.78C69.0123 16.78 68.9003 16.748 68.7963 16.684C68.6923 16.62 68.6203 16.528 68.5803 16.408C68.5323 16.296 68.5323 16.16 68.5803 16L71.3523 7.396C71.4003 7.244 71.4763 7.132 71.5803 7.06C71.6923 6.988 71.8083 6.956 71.9283 6.964C72.0483 6.964 72.1603 6.996 72.2643 7.06C72.3683 7.124 72.4403 7.212 72.4803 7.324C72.5283 7.436 72.5283 7.572 72.4803 7.732L69.7083 16.348ZM76.3261 16.12C75.6301 16.12 75.0341 15.956 74.5381 15.628C74.0501 15.292 73.6781 14.812 73.4221 14.188C73.1661 13.564 73.0381 12.808 73.0381 11.92C73.0381 11.2 73.1181 10.564 73.2781 10.012C73.4461 9.452 73.6861 8.98 73.9981 8.596C74.3101 8.212 74.6901 7.92 75.1381 7.72C75.5941 7.52 76.1061 7.42 76.6741 7.42C77.0261 7.42 77.3821 7.476 77.7421 7.588C78.1101 7.692 78.4541 7.852 78.7741 8.068C78.9021 8.148 78.9861 8.252 79.0261 8.38C79.0661 8.508 79.0701 8.636 79.0381 8.764C79.0141 8.884 78.9581 8.992 78.8701 9.088C78.7901 9.176 78.6861 9.232 78.5581 9.256C78.4301 9.272 78.2901 9.236 78.1381 9.148C77.8661 8.988 77.6101 8.876 77.3701 8.812C77.1301 8.748 76.8901 8.716 76.6501 8.716C76.1861 8.716 75.7941 8.824 75.4741 9.04C75.1541 9.256 74.9101 9.58 74.7421 10.012C74.5821 10.444 74.5021 10.984 74.5021 11.632V12.532H74.3581C74.4221 12.124 74.5541 11.776 74.7541 11.488C74.9621 11.192 75.2261 10.968 75.5461 10.816C75.8661 10.656 76.2221 10.576 76.6141 10.576C77.1021 10.576 77.5341 10.692 77.9101 10.924C78.2861 11.156 78.5821 11.476 78.7981 11.884C79.0141 12.292 79.1221 12.76 79.1221 13.288C79.1221 13.832 79.0021 14.32 78.7621 14.752C78.5301 15.176 78.2021 15.512 77.7781 15.76C77.3621 16 76.8781 16.12 76.3261 16.12ZM76.2421 14.896C76.5301 14.896 76.7821 14.832 76.9981 14.704C77.2221 14.576 77.3941 14.396 77.5141 14.164C77.6341 13.924 77.6941 13.652 77.6941 13.348C77.6941 13.036 77.6341 12.764 77.5141 12.532C77.3941 12.3 77.2221 12.12 76.9981 11.992C76.7821 11.856 76.5301 11.788 76.2421 11.788C75.9541 11.788 75.7021 11.856 75.4861 11.992C75.2701 12.12 75.0981 12.3 74.9701 12.532C74.8501 12.764 74.7901 13.036 74.7901 13.348C74.7901 13.652 74.8501 13.924 74.9701 14.164C75.0981 14.396 75.2701 14.576 75.4861 14.704C75.7021 14.832 75.9541 14.896 76.2421 14.896ZM83.2094 16.12C82.2094 16.12 81.4454 15.744 80.9174 14.992C80.3894 14.232 80.1254 13.152 80.1254 11.752C80.1254 10.808 80.2414 10.016 80.4734 9.376C80.7134 8.728 81.0614 8.24 81.5174 7.912C81.9814 7.584 82.5454 7.42 83.2094 7.42C84.2174 7.42 84.9814 7.788 85.5014 8.524C86.0294 9.26 86.2934 10.332 86.2934 11.74C86.2934 12.676 86.1734 13.472 85.9334 14.128C85.7014 14.776 85.3574 15.272 84.9014 15.616C84.4454 15.952 83.8814 16.12 83.2094 16.12ZM83.2094 14.86C83.7534 14.86 84.1534 14.608 84.4094 14.104C84.6734 13.6 84.8054 12.812 84.8054 11.74C84.8054 10.668 84.6734 9.892 84.4094 9.412C84.1534 8.924 83.7534 8.68 83.2094 8.68C82.6734 8.68 82.2734 8.924 82.0094 9.412C81.7454 9.892 81.6134 10.668 81.6134 11.74C81.6134 12.812 81.7454 13.6 82.0094 14.104C82.2734 14.608 82.6734 14.86 83.2094 14.86ZM90.4047 16.12C89.4047 16.12 88.6407 15.744 88.1127 14.992C87.5847 14.232 87.3207 13.152 87.3207 11.752C87.3207 10.808 87.4367 10.016 87.6687 9.376C87.9087 8.728 88.2567 8.24 88.7127 7.912C89.1767 7.584 89.7407 7.42 90.4047 7.42C91.4127 7.42 92.1767 7.788 92.6967 8.524C93.2247 9.26 93.4887 10.332 93.4887 11.74C93.4887 12.676 93.3687 13.472 93.1287 14.128C92.8967 14.776 92.5527 15.272 92.0967 15.616C91.6407 15.952 91.0767 16.12 90.4047 16.12ZM90.4047 14.86C90.9487 14.86 91.3487 14.608 91.6047 14.104C91.8687 13.6 92.0007 12.812 92.0007 11.74C92.0007 10.668 91.8687 9.892 91.6047 9.412C91.3487 8.924 90.9487 8.68 90.4047 8.68C89.8687 8.68 89.4687 8.924 89.2047 9.412C88.9407 9.892 88.8087 10.668 88.8087 11.74C88.8087 12.812 88.9407 13.6 89.2047 14.104C89.4687 14.608 89.8687 14.86 90.4047 14.86Z" fill="#362F2D"/>
<defs>
<filter id="filter0_d_621_215" x="0.5" y="0.5" width="105" height="27" filterUnits="userSpaceOnUse" color-interpolation-filters="sRGB">
<feFlood flood-opacity="0" result="BackgroundImageFix"/>
<feColorMatrix in="SourceAlpha" type="matrix" values="0 0 0 0 0 0 0 0 0 0 0 0 0 0 0 0 0 0 127 0" result="hardAlpha"/>
<feOffset dy="4"/>
<feComposite in2="hardAlpha" operator="out"/>
<feColorMatrix type="matrix" values="0 0 0 0 0 0 0 0 0 0 0 0 0 0 0 0 0 0 0.25 0"/>
<feBlend mode="normal" in2="BackgroundImageFix" result="effect1_dropShadow_621_215"/>
<feBlend mode="normal" in="SourceGraphic" in2="effect1_dropShadow_621_215" result="shape"/>
</filter>
</defs>
</svg>
