<svg width="31" height="47" viewBox="0 0 31 47" fill="none" xmlns="http://www.w3.org/2000/svg">
<path opacity="0.4" d="M15.5788 31.588C14.4694 31.588 13.5948 31.2253 12.9548 30.5C12.3148 29.7747 11.9948 28.8147 11.9948 27.62C11.9948 26.468 12.1228 25.4013 12.3788 24.42C12.6774 23.396 13.1254 22.3933 13.7228 21.412C14.3628 20.388 15.1948 19.364 16.2188 18.34C16.9014 17.6147 17.4348 16.9747 17.8188 16.42C18.2454 15.8653 18.5441 15.3533 18.7148 14.884C18.8854 14.372 18.9708 13.86 18.9708 13.348C18.9708 12.3667 18.6081 11.62 17.8828 11.108C17.1574 10.596 16.1121 10.34 14.7468 10.34C13.3814 10.34 12.1014 10.4893 10.9068 10.788C9.71208 11.0867 8.56008 11.5347 7.45075 12.132C6.17075 12.8147 5.04008 13.0493 4.05875 12.836C3.07742 12.58 2.30942 12.068 1.75475 11.3C1.20008 10.532 0.880083 9.636 0.79475 8.612C0.752083 7.588 1.02942 6.58533 1.62675 5.604C2.26675 4.62266 3.24808 3.812 4.57075 3.172C6.32008 2.31866 8.17608 1.7 10.1388 1.316C12.1014 0.889332 13.9361 0.675999 15.6428 0.675999C18.5868 0.675999 21.1681 1.14533 23.3868 2.084C25.6481 3.02266 27.3974 4.34533 28.6348 6.052C29.8721 7.716 30.4908 9.67866 30.4908 11.94C30.4908 13.22 30.2988 14.436 29.9148 15.588C29.5308 16.74 28.9121 17.8707 28.0588 18.98C27.2054 20.0467 26.0108 21.1347 24.4748 22.244C23.1521 23.2253 22.1281 24.1 21.4028 24.868C20.6774 25.5933 20.1441 26.2973 19.8028 26.98C19.5041 27.6627 19.2694 28.4093 19.0988 29.22C18.9281 29.9027 18.5654 30.4787 18.0108 30.948C17.4561 31.3747 16.6454 31.588 15.5788 31.588ZM15.3868 46.884C13.4241 46.884 11.8668 46.308 10.7148 45.156C9.60542 44.004 9.05075 42.4893 9.05075 40.612C9.05075 38.7773 9.60542 37.3053 10.7148 36.196C11.8668 35.044 13.4241 34.468 15.3868 34.468C17.3494 34.468 18.8854 35.044 19.9948 36.196C21.1041 37.3053 21.6588 38.7773 21.6588 40.612C21.6588 42.4893 21.1041 44.004 19.9948 45.156C18.8854 46.308 17.3494 46.884 15.3868 46.884Z" fill="black"/>
</svg>
