<svg width="10" height="10" viewBox="0 0 10 10" fill="none" xmlns="http://www.w3.org/2000/svg">
<path opacity="0.5" d="M9.99244 0L7.69289 0.0529101C7.49622 0.0529101 7.31467 0.136054 7.17095 0.272109L2.40545 5.04157C1.62632 4.65609 0.65053 4.77702 0 5.42706L1.54312 6.96901L0.257186 8.25397C-0.0378215 8.54875 -0.0378215 9.02494 0.257186 9.31973L0.680787 9.74301C0.975794 10.0378 1.45234 10.0378 1.74735 9.74301L3.03328 8.45805L4.5764 10C5.23449 9.34996 5.35552 8.36735 4.96218 7.58881L9.72768 2.82691C9.86384 2.69085 9.94705 2.50189 9.94705 2.31293L10 0.0151172L9.99244 0Z" fill="black"/>
</svg>
