<svg width="16" height="16" viewBox="0 0 16 16" fill="none" xmlns="http://www.w3.org/2000/svg">
<g clip-path="url(#clip0_978_2121)">
<g opacity="0.5">
<path d="M7.99998 6.48004C7.15998 6.48004 6.47998 7.16004 6.47998 8.00004C6.47998 8.84004 7.15998 9.52004 7.99998 9.52004C8.83998 9.52004 9.51998 8.84004 9.51998 8.00004C9.51998 7.16004 8.83998 6.48004 7.99998 6.48004Z" fill="black"/>
<path d="M14.9201 7.01002H14.2201C13.7901 4.33002 11.6701 2.21002 8.99008 1.78002V1.08002C8.99008 0.800017 8.77008 0.580017 8.49008 0.580017H7.51008C7.23008 0.580017 7.01008 0.800017 7.01008 1.08002V1.78002C4.33008 2.21002 2.21008 4.33002 1.78008 7.01002H1.08008C0.800078 7.01002 0.580078 7.23002 0.580078 7.51002V8.49002C0.580078 8.77002 0.800078 8.99002 1.08008 8.99002H1.78008C2.21008 11.67 4.33008 13.79 7.01008 14.22V14.92C7.01008 15.2 7.23008 15.42 7.51008 15.42H8.49008C8.77008 15.42 8.99008 15.2 8.99008 14.92V14.22C11.6701 13.79 13.7901 11.67 14.2201 8.99002H14.9201C15.2001 8.99002 15.4201 8.77002 15.4201 8.49002V7.51002C15.4201 7.23002 15.2001 7.01002 14.9201 7.01002ZM8.99008 12.18V11.61H7.01008V12.18C5.43008 11.81 4.19008 10.57 3.82008 8.99002H4.39008V7.01002H3.82008C4.19008 5.43002 5.43008 4.19002 7.01008 3.82002V4.39002H8.99008V3.82002C10.5701 4.19002 11.8101 5.43002 12.1801 7.01002H11.6101V8.99002H12.1801C11.8101 10.57 10.5701 11.81 8.99008 12.18Z" fill="black"/>
</g>
</g>
<defs>
<clipPath id="clip0_978_2121">
<rect width="16" height="16" fill="white"/>
</clipPath>
</defs>
</svg>
