<svg width="43" height="43" viewBox="0 0 43 43" fill="none" xmlns="http://www.w3.org/2000/svg">
<path opacity="0.3" d="M30.1804 1.36232C31.352 0.190749 33.252 0.190749 34.4236 1.36232L41.5808 8.52052C42.7522 9.69211 42.7523 11.5912 41.5808 12.7627L32.8718 21.4717L41.5808 30.1807C42.7524 31.3523 42.7524 33.2523 41.5808 34.4238L34.4236 41.5811C33.252 42.7526 31.352 42.7526 30.1804 41.5811L21.4715 32.8721L12.7625 41.5811C11.5909 42.7526 9.69088 42.7526 8.5193 41.5811L1.36208 34.4238C0.190505 33.2523 0.190505 31.3523 1.36208 30.1807L10.0711 21.4717L1.36208 12.7627C0.190565 11.5912 0.190684 9.69211 1.36208 8.52052L8.5193 1.36232C9.69088 0.190749 11.5909 0.190749 12.7625 1.36232L21.4715 10.0713L30.1804 1.36232Z" fill="black"/>
</svg>
